%TF.GenerationSoftware,KiCad,Pcbnew,7.0.5*%
%TF.CreationDate,2023-07-31T13:29:29+02:00*%
%TF.ProjectId,Byaxon_2D_V1,42796178-6f6e-45f3-9244-5f56312e6b69,rev?*%
%TF.SameCoordinates,Original*%
%TF.FileFunction,Legend,Bot*%
%TF.FilePolarity,Positive*%
%FSLAX46Y46*%
G04 Gerber Fmt 4.6, Leading zero omitted, Abs format (unit mm)*
G04 Created by KiCad (PCBNEW 7.0.5) date 2023-07-31 13:29:29*
%MOMM*%
%LPD*%
G01*
G04 APERTURE LIST*
%ADD10C,0.254000*%
%ADD11C,0.150000*%
%ADD12C,0.200000*%
%ADD13C,0.120000*%
%ADD14C,0.152400*%
G04 APERTURE END LIST*
D10*
%TO.C,R2*%
X40374318Y-112913333D02*
X39769556Y-112489999D01*
X40374318Y-112187618D02*
X39104318Y-112187618D01*
X39104318Y-112187618D02*
X39104318Y-112671428D01*
X39104318Y-112671428D02*
X39164794Y-112792380D01*
X39164794Y-112792380D02*
X39225270Y-112852857D01*
X39225270Y-112852857D02*
X39346222Y-112913333D01*
X39346222Y-112913333D02*
X39527651Y-112913333D01*
X39527651Y-112913333D02*
X39648603Y-112852857D01*
X39648603Y-112852857D02*
X39709080Y-112792380D01*
X39709080Y-112792380D02*
X39769556Y-112671428D01*
X39769556Y-112671428D02*
X39769556Y-112187618D01*
X39225270Y-113397142D02*
X39164794Y-113457618D01*
X39164794Y-113457618D02*
X39104318Y-113578571D01*
X39104318Y-113578571D02*
X39104318Y-113880952D01*
X39104318Y-113880952D02*
X39164794Y-114001904D01*
X39164794Y-114001904D02*
X39225270Y-114062380D01*
X39225270Y-114062380D02*
X39346222Y-114122857D01*
X39346222Y-114122857D02*
X39467175Y-114122857D01*
X39467175Y-114122857D02*
X39648603Y-114062380D01*
X39648603Y-114062380D02*
X40374318Y-113336666D01*
X40374318Y-113336666D02*
X40374318Y-114122857D01*
%TO.C,R5*%
X61311666Y-107774318D02*
X61735000Y-107169556D01*
X62037381Y-107774318D02*
X62037381Y-106504318D01*
X62037381Y-106504318D02*
X61553571Y-106504318D01*
X61553571Y-106504318D02*
X61432619Y-106564794D01*
X61432619Y-106564794D02*
X61372142Y-106625270D01*
X61372142Y-106625270D02*
X61311666Y-106746222D01*
X61311666Y-106746222D02*
X61311666Y-106927651D01*
X61311666Y-106927651D02*
X61372142Y-107048603D01*
X61372142Y-107048603D02*
X61432619Y-107109080D01*
X61432619Y-107109080D02*
X61553571Y-107169556D01*
X61553571Y-107169556D02*
X62037381Y-107169556D01*
X60162619Y-106504318D02*
X60767381Y-106504318D01*
X60767381Y-106504318D02*
X60827857Y-107109080D01*
X60827857Y-107109080D02*
X60767381Y-107048603D01*
X60767381Y-107048603D02*
X60646428Y-106988127D01*
X60646428Y-106988127D02*
X60344047Y-106988127D01*
X60344047Y-106988127D02*
X60223095Y-107048603D01*
X60223095Y-107048603D02*
X60162619Y-107109080D01*
X60162619Y-107109080D02*
X60102142Y-107230032D01*
X60102142Y-107230032D02*
X60102142Y-107532413D01*
X60102142Y-107532413D02*
X60162619Y-107653365D01*
X60162619Y-107653365D02*
X60223095Y-107713842D01*
X60223095Y-107713842D02*
X60344047Y-107774318D01*
X60344047Y-107774318D02*
X60646428Y-107774318D01*
X60646428Y-107774318D02*
X60767381Y-107713842D01*
X60767381Y-107713842D02*
X60827857Y-107653365D01*
D11*
%TO.C,C36*%
X61809580Y-114719642D02*
X61857200Y-114672023D01*
X61857200Y-114672023D02*
X61904819Y-114529166D01*
X61904819Y-114529166D02*
X61904819Y-114433928D01*
X61904819Y-114433928D02*
X61857200Y-114291071D01*
X61857200Y-114291071D02*
X61761961Y-114195833D01*
X61761961Y-114195833D02*
X61666723Y-114148214D01*
X61666723Y-114148214D02*
X61476247Y-114100595D01*
X61476247Y-114100595D02*
X61333390Y-114100595D01*
X61333390Y-114100595D02*
X61142914Y-114148214D01*
X61142914Y-114148214D02*
X61047676Y-114195833D01*
X61047676Y-114195833D02*
X60952438Y-114291071D01*
X60952438Y-114291071D02*
X60904819Y-114433928D01*
X60904819Y-114433928D02*
X60904819Y-114529166D01*
X60904819Y-114529166D02*
X60952438Y-114672023D01*
X60952438Y-114672023D02*
X61000057Y-114719642D01*
X60904819Y-115052976D02*
X60904819Y-115672023D01*
X60904819Y-115672023D02*
X61285771Y-115338690D01*
X61285771Y-115338690D02*
X61285771Y-115481547D01*
X61285771Y-115481547D02*
X61333390Y-115576785D01*
X61333390Y-115576785D02*
X61381009Y-115624404D01*
X61381009Y-115624404D02*
X61476247Y-115672023D01*
X61476247Y-115672023D02*
X61714342Y-115672023D01*
X61714342Y-115672023D02*
X61809580Y-115624404D01*
X61809580Y-115624404D02*
X61857200Y-115576785D01*
X61857200Y-115576785D02*
X61904819Y-115481547D01*
X61904819Y-115481547D02*
X61904819Y-115195833D01*
X61904819Y-115195833D02*
X61857200Y-115100595D01*
X61857200Y-115100595D02*
X61809580Y-115052976D01*
X60904819Y-116529166D02*
X60904819Y-116338690D01*
X60904819Y-116338690D02*
X60952438Y-116243452D01*
X60952438Y-116243452D02*
X61000057Y-116195833D01*
X61000057Y-116195833D02*
X61142914Y-116100595D01*
X61142914Y-116100595D02*
X61333390Y-116052976D01*
X61333390Y-116052976D02*
X61714342Y-116052976D01*
X61714342Y-116052976D02*
X61809580Y-116100595D01*
X61809580Y-116100595D02*
X61857200Y-116148214D01*
X61857200Y-116148214D02*
X61904819Y-116243452D01*
X61904819Y-116243452D02*
X61904819Y-116433928D01*
X61904819Y-116433928D02*
X61857200Y-116529166D01*
X61857200Y-116529166D02*
X61809580Y-116576785D01*
X61809580Y-116576785D02*
X61714342Y-116624404D01*
X61714342Y-116624404D02*
X61476247Y-116624404D01*
X61476247Y-116624404D02*
X61381009Y-116576785D01*
X61381009Y-116576785D02*
X61333390Y-116529166D01*
X61333390Y-116529166D02*
X61285771Y-116433928D01*
X61285771Y-116433928D02*
X61285771Y-116243452D01*
X61285771Y-116243452D02*
X61333390Y-116148214D01*
X61333390Y-116148214D02*
X61381009Y-116100595D01*
X61381009Y-116100595D02*
X61476247Y-116052976D01*
%TO.C,C39*%
X65009580Y-59082142D02*
X65057200Y-59034523D01*
X65057200Y-59034523D02*
X65104819Y-58891666D01*
X65104819Y-58891666D02*
X65104819Y-58796428D01*
X65104819Y-58796428D02*
X65057200Y-58653571D01*
X65057200Y-58653571D02*
X64961961Y-58558333D01*
X64961961Y-58558333D02*
X64866723Y-58510714D01*
X64866723Y-58510714D02*
X64676247Y-58463095D01*
X64676247Y-58463095D02*
X64533390Y-58463095D01*
X64533390Y-58463095D02*
X64342914Y-58510714D01*
X64342914Y-58510714D02*
X64247676Y-58558333D01*
X64247676Y-58558333D02*
X64152438Y-58653571D01*
X64152438Y-58653571D02*
X64104819Y-58796428D01*
X64104819Y-58796428D02*
X64104819Y-58891666D01*
X64104819Y-58891666D02*
X64152438Y-59034523D01*
X64152438Y-59034523D02*
X64200057Y-59082142D01*
X64104819Y-59415476D02*
X64104819Y-60034523D01*
X64104819Y-60034523D02*
X64485771Y-59701190D01*
X64485771Y-59701190D02*
X64485771Y-59844047D01*
X64485771Y-59844047D02*
X64533390Y-59939285D01*
X64533390Y-59939285D02*
X64581009Y-59986904D01*
X64581009Y-59986904D02*
X64676247Y-60034523D01*
X64676247Y-60034523D02*
X64914342Y-60034523D01*
X64914342Y-60034523D02*
X65009580Y-59986904D01*
X65009580Y-59986904D02*
X65057200Y-59939285D01*
X65057200Y-59939285D02*
X65104819Y-59844047D01*
X65104819Y-59844047D02*
X65104819Y-59558333D01*
X65104819Y-59558333D02*
X65057200Y-59463095D01*
X65057200Y-59463095D02*
X65009580Y-59415476D01*
X65104819Y-60510714D02*
X65104819Y-60701190D01*
X65104819Y-60701190D02*
X65057200Y-60796428D01*
X65057200Y-60796428D02*
X65009580Y-60844047D01*
X65009580Y-60844047D02*
X64866723Y-60939285D01*
X64866723Y-60939285D02*
X64676247Y-60986904D01*
X64676247Y-60986904D02*
X64295295Y-60986904D01*
X64295295Y-60986904D02*
X64200057Y-60939285D01*
X64200057Y-60939285D02*
X64152438Y-60891666D01*
X64152438Y-60891666D02*
X64104819Y-60796428D01*
X64104819Y-60796428D02*
X64104819Y-60605952D01*
X64104819Y-60605952D02*
X64152438Y-60510714D01*
X64152438Y-60510714D02*
X64200057Y-60463095D01*
X64200057Y-60463095D02*
X64295295Y-60415476D01*
X64295295Y-60415476D02*
X64533390Y-60415476D01*
X64533390Y-60415476D02*
X64628628Y-60463095D01*
X64628628Y-60463095D02*
X64676247Y-60510714D01*
X64676247Y-60510714D02*
X64723866Y-60605952D01*
X64723866Y-60605952D02*
X64723866Y-60796428D01*
X64723866Y-60796428D02*
X64676247Y-60891666D01*
X64676247Y-60891666D02*
X64628628Y-60939285D01*
X64628628Y-60939285D02*
X64533390Y-60986904D01*
D10*
%TO.C,R15*%
X77566428Y-93624318D02*
X77989762Y-93019556D01*
X78292143Y-93624318D02*
X78292143Y-92354318D01*
X78292143Y-92354318D02*
X77808333Y-92354318D01*
X77808333Y-92354318D02*
X77687381Y-92414794D01*
X77687381Y-92414794D02*
X77626904Y-92475270D01*
X77626904Y-92475270D02*
X77566428Y-92596222D01*
X77566428Y-92596222D02*
X77566428Y-92777651D01*
X77566428Y-92777651D02*
X77626904Y-92898603D01*
X77626904Y-92898603D02*
X77687381Y-92959080D01*
X77687381Y-92959080D02*
X77808333Y-93019556D01*
X77808333Y-93019556D02*
X78292143Y-93019556D01*
X76356904Y-93624318D02*
X77082619Y-93624318D01*
X76719762Y-93624318D02*
X76719762Y-92354318D01*
X76719762Y-92354318D02*
X76840714Y-92535746D01*
X76840714Y-92535746D02*
X76961666Y-92656699D01*
X76961666Y-92656699D02*
X77082619Y-92717175D01*
X75207857Y-92354318D02*
X75812619Y-92354318D01*
X75812619Y-92354318D02*
X75873095Y-92959080D01*
X75873095Y-92959080D02*
X75812619Y-92898603D01*
X75812619Y-92898603D02*
X75691666Y-92838127D01*
X75691666Y-92838127D02*
X75389285Y-92838127D01*
X75389285Y-92838127D02*
X75268333Y-92898603D01*
X75268333Y-92898603D02*
X75207857Y-92959080D01*
X75207857Y-92959080D02*
X75147380Y-93080032D01*
X75147380Y-93080032D02*
X75147380Y-93382413D01*
X75147380Y-93382413D02*
X75207857Y-93503365D01*
X75207857Y-93503365D02*
X75268333Y-93563842D01*
X75268333Y-93563842D02*
X75389285Y-93624318D01*
X75389285Y-93624318D02*
X75691666Y-93624318D01*
X75691666Y-93624318D02*
X75812619Y-93563842D01*
X75812619Y-93563842D02*
X75873095Y-93503365D01*
D11*
%TO.C,C22*%
X121409580Y-62957142D02*
X121457200Y-62909523D01*
X121457200Y-62909523D02*
X121504819Y-62766666D01*
X121504819Y-62766666D02*
X121504819Y-62671428D01*
X121504819Y-62671428D02*
X121457200Y-62528571D01*
X121457200Y-62528571D02*
X121361961Y-62433333D01*
X121361961Y-62433333D02*
X121266723Y-62385714D01*
X121266723Y-62385714D02*
X121076247Y-62338095D01*
X121076247Y-62338095D02*
X120933390Y-62338095D01*
X120933390Y-62338095D02*
X120742914Y-62385714D01*
X120742914Y-62385714D02*
X120647676Y-62433333D01*
X120647676Y-62433333D02*
X120552438Y-62528571D01*
X120552438Y-62528571D02*
X120504819Y-62671428D01*
X120504819Y-62671428D02*
X120504819Y-62766666D01*
X120504819Y-62766666D02*
X120552438Y-62909523D01*
X120552438Y-62909523D02*
X120600057Y-62957142D01*
X120600057Y-63338095D02*
X120552438Y-63385714D01*
X120552438Y-63385714D02*
X120504819Y-63480952D01*
X120504819Y-63480952D02*
X120504819Y-63719047D01*
X120504819Y-63719047D02*
X120552438Y-63814285D01*
X120552438Y-63814285D02*
X120600057Y-63861904D01*
X120600057Y-63861904D02*
X120695295Y-63909523D01*
X120695295Y-63909523D02*
X120790533Y-63909523D01*
X120790533Y-63909523D02*
X120933390Y-63861904D01*
X120933390Y-63861904D02*
X121504819Y-63290476D01*
X121504819Y-63290476D02*
X121504819Y-63909523D01*
X120600057Y-64290476D02*
X120552438Y-64338095D01*
X120552438Y-64338095D02*
X120504819Y-64433333D01*
X120504819Y-64433333D02*
X120504819Y-64671428D01*
X120504819Y-64671428D02*
X120552438Y-64766666D01*
X120552438Y-64766666D02*
X120600057Y-64814285D01*
X120600057Y-64814285D02*
X120695295Y-64861904D01*
X120695295Y-64861904D02*
X120790533Y-64861904D01*
X120790533Y-64861904D02*
X120933390Y-64814285D01*
X120933390Y-64814285D02*
X121504819Y-64242857D01*
X121504819Y-64242857D02*
X121504819Y-64861904D01*
%TO.C,C38*%
X62342857Y-70347080D02*
X62390476Y-70394700D01*
X62390476Y-70394700D02*
X62533333Y-70442319D01*
X62533333Y-70442319D02*
X62628571Y-70442319D01*
X62628571Y-70442319D02*
X62771428Y-70394700D01*
X62771428Y-70394700D02*
X62866666Y-70299461D01*
X62866666Y-70299461D02*
X62914285Y-70204223D01*
X62914285Y-70204223D02*
X62961904Y-70013747D01*
X62961904Y-70013747D02*
X62961904Y-69870890D01*
X62961904Y-69870890D02*
X62914285Y-69680414D01*
X62914285Y-69680414D02*
X62866666Y-69585176D01*
X62866666Y-69585176D02*
X62771428Y-69489938D01*
X62771428Y-69489938D02*
X62628571Y-69442319D01*
X62628571Y-69442319D02*
X62533333Y-69442319D01*
X62533333Y-69442319D02*
X62390476Y-69489938D01*
X62390476Y-69489938D02*
X62342857Y-69537557D01*
X62009523Y-69442319D02*
X61390476Y-69442319D01*
X61390476Y-69442319D02*
X61723809Y-69823271D01*
X61723809Y-69823271D02*
X61580952Y-69823271D01*
X61580952Y-69823271D02*
X61485714Y-69870890D01*
X61485714Y-69870890D02*
X61438095Y-69918509D01*
X61438095Y-69918509D02*
X61390476Y-70013747D01*
X61390476Y-70013747D02*
X61390476Y-70251842D01*
X61390476Y-70251842D02*
X61438095Y-70347080D01*
X61438095Y-70347080D02*
X61485714Y-70394700D01*
X61485714Y-70394700D02*
X61580952Y-70442319D01*
X61580952Y-70442319D02*
X61866666Y-70442319D01*
X61866666Y-70442319D02*
X61961904Y-70394700D01*
X61961904Y-70394700D02*
X62009523Y-70347080D01*
X60819047Y-69870890D02*
X60914285Y-69823271D01*
X60914285Y-69823271D02*
X60961904Y-69775652D01*
X60961904Y-69775652D02*
X61009523Y-69680414D01*
X61009523Y-69680414D02*
X61009523Y-69632795D01*
X61009523Y-69632795D02*
X60961904Y-69537557D01*
X60961904Y-69537557D02*
X60914285Y-69489938D01*
X60914285Y-69489938D02*
X60819047Y-69442319D01*
X60819047Y-69442319D02*
X60628571Y-69442319D01*
X60628571Y-69442319D02*
X60533333Y-69489938D01*
X60533333Y-69489938D02*
X60485714Y-69537557D01*
X60485714Y-69537557D02*
X60438095Y-69632795D01*
X60438095Y-69632795D02*
X60438095Y-69680414D01*
X60438095Y-69680414D02*
X60485714Y-69775652D01*
X60485714Y-69775652D02*
X60533333Y-69823271D01*
X60533333Y-69823271D02*
X60628571Y-69870890D01*
X60628571Y-69870890D02*
X60819047Y-69870890D01*
X60819047Y-69870890D02*
X60914285Y-69918509D01*
X60914285Y-69918509D02*
X60961904Y-69966128D01*
X60961904Y-69966128D02*
X61009523Y-70061366D01*
X61009523Y-70061366D02*
X61009523Y-70251842D01*
X61009523Y-70251842D02*
X60961904Y-70347080D01*
X60961904Y-70347080D02*
X60914285Y-70394700D01*
X60914285Y-70394700D02*
X60819047Y-70442319D01*
X60819047Y-70442319D02*
X60628571Y-70442319D01*
X60628571Y-70442319D02*
X60533333Y-70394700D01*
X60533333Y-70394700D02*
X60485714Y-70347080D01*
X60485714Y-70347080D02*
X60438095Y-70251842D01*
X60438095Y-70251842D02*
X60438095Y-70061366D01*
X60438095Y-70061366D02*
X60485714Y-69966128D01*
X60485714Y-69966128D02*
X60533333Y-69918509D01*
X60533333Y-69918509D02*
X60628571Y-69870890D01*
%TO.C,C25*%
X131305357Y-109459580D02*
X131352976Y-109507200D01*
X131352976Y-109507200D02*
X131495833Y-109554819D01*
X131495833Y-109554819D02*
X131591071Y-109554819D01*
X131591071Y-109554819D02*
X131733928Y-109507200D01*
X131733928Y-109507200D02*
X131829166Y-109411961D01*
X131829166Y-109411961D02*
X131876785Y-109316723D01*
X131876785Y-109316723D02*
X131924404Y-109126247D01*
X131924404Y-109126247D02*
X131924404Y-108983390D01*
X131924404Y-108983390D02*
X131876785Y-108792914D01*
X131876785Y-108792914D02*
X131829166Y-108697676D01*
X131829166Y-108697676D02*
X131733928Y-108602438D01*
X131733928Y-108602438D02*
X131591071Y-108554819D01*
X131591071Y-108554819D02*
X131495833Y-108554819D01*
X131495833Y-108554819D02*
X131352976Y-108602438D01*
X131352976Y-108602438D02*
X131305357Y-108650057D01*
X130924404Y-108650057D02*
X130876785Y-108602438D01*
X130876785Y-108602438D02*
X130781547Y-108554819D01*
X130781547Y-108554819D02*
X130543452Y-108554819D01*
X130543452Y-108554819D02*
X130448214Y-108602438D01*
X130448214Y-108602438D02*
X130400595Y-108650057D01*
X130400595Y-108650057D02*
X130352976Y-108745295D01*
X130352976Y-108745295D02*
X130352976Y-108840533D01*
X130352976Y-108840533D02*
X130400595Y-108983390D01*
X130400595Y-108983390D02*
X130972023Y-109554819D01*
X130972023Y-109554819D02*
X130352976Y-109554819D01*
X129448214Y-108554819D02*
X129924404Y-108554819D01*
X129924404Y-108554819D02*
X129972023Y-109031009D01*
X129972023Y-109031009D02*
X129924404Y-108983390D01*
X129924404Y-108983390D02*
X129829166Y-108935771D01*
X129829166Y-108935771D02*
X129591071Y-108935771D01*
X129591071Y-108935771D02*
X129495833Y-108983390D01*
X129495833Y-108983390D02*
X129448214Y-109031009D01*
X129448214Y-109031009D02*
X129400595Y-109126247D01*
X129400595Y-109126247D02*
X129400595Y-109364342D01*
X129400595Y-109364342D02*
X129448214Y-109459580D01*
X129448214Y-109459580D02*
X129495833Y-109507200D01*
X129495833Y-109507200D02*
X129591071Y-109554819D01*
X129591071Y-109554819D02*
X129829166Y-109554819D01*
X129829166Y-109554819D02*
X129924404Y-109507200D01*
X129924404Y-109507200D02*
X129972023Y-109459580D01*
%TO.C,C34*%
X62462857Y-97679580D02*
X62510476Y-97727200D01*
X62510476Y-97727200D02*
X62653333Y-97774819D01*
X62653333Y-97774819D02*
X62748571Y-97774819D01*
X62748571Y-97774819D02*
X62891428Y-97727200D01*
X62891428Y-97727200D02*
X62986666Y-97631961D01*
X62986666Y-97631961D02*
X63034285Y-97536723D01*
X63034285Y-97536723D02*
X63081904Y-97346247D01*
X63081904Y-97346247D02*
X63081904Y-97203390D01*
X63081904Y-97203390D02*
X63034285Y-97012914D01*
X63034285Y-97012914D02*
X62986666Y-96917676D01*
X62986666Y-96917676D02*
X62891428Y-96822438D01*
X62891428Y-96822438D02*
X62748571Y-96774819D01*
X62748571Y-96774819D02*
X62653333Y-96774819D01*
X62653333Y-96774819D02*
X62510476Y-96822438D01*
X62510476Y-96822438D02*
X62462857Y-96870057D01*
X62129523Y-96774819D02*
X61510476Y-96774819D01*
X61510476Y-96774819D02*
X61843809Y-97155771D01*
X61843809Y-97155771D02*
X61700952Y-97155771D01*
X61700952Y-97155771D02*
X61605714Y-97203390D01*
X61605714Y-97203390D02*
X61558095Y-97251009D01*
X61558095Y-97251009D02*
X61510476Y-97346247D01*
X61510476Y-97346247D02*
X61510476Y-97584342D01*
X61510476Y-97584342D02*
X61558095Y-97679580D01*
X61558095Y-97679580D02*
X61605714Y-97727200D01*
X61605714Y-97727200D02*
X61700952Y-97774819D01*
X61700952Y-97774819D02*
X61986666Y-97774819D01*
X61986666Y-97774819D02*
X62081904Y-97727200D01*
X62081904Y-97727200D02*
X62129523Y-97679580D01*
X60653333Y-97108152D02*
X60653333Y-97774819D01*
X60891428Y-96727200D02*
X61129523Y-97441485D01*
X61129523Y-97441485D02*
X60510476Y-97441485D01*
%TO.C,R6*%
X96995319Y-79243333D02*
X96519128Y-78910000D01*
X96995319Y-78671905D02*
X95995319Y-78671905D01*
X95995319Y-78671905D02*
X95995319Y-79052857D01*
X95995319Y-79052857D02*
X96042938Y-79148095D01*
X96042938Y-79148095D02*
X96090557Y-79195714D01*
X96090557Y-79195714D02*
X96185795Y-79243333D01*
X96185795Y-79243333D02*
X96328652Y-79243333D01*
X96328652Y-79243333D02*
X96423890Y-79195714D01*
X96423890Y-79195714D02*
X96471509Y-79148095D01*
X96471509Y-79148095D02*
X96519128Y-79052857D01*
X96519128Y-79052857D02*
X96519128Y-78671905D01*
X95995319Y-80100476D02*
X95995319Y-79910000D01*
X95995319Y-79910000D02*
X96042938Y-79814762D01*
X96042938Y-79814762D02*
X96090557Y-79767143D01*
X96090557Y-79767143D02*
X96233414Y-79671905D01*
X96233414Y-79671905D02*
X96423890Y-79624286D01*
X96423890Y-79624286D02*
X96804842Y-79624286D01*
X96804842Y-79624286D02*
X96900080Y-79671905D01*
X96900080Y-79671905D02*
X96947700Y-79719524D01*
X96947700Y-79719524D02*
X96995319Y-79814762D01*
X96995319Y-79814762D02*
X96995319Y-80005238D01*
X96995319Y-80005238D02*
X96947700Y-80100476D01*
X96947700Y-80100476D02*
X96900080Y-80148095D01*
X96900080Y-80148095D02*
X96804842Y-80195714D01*
X96804842Y-80195714D02*
X96566747Y-80195714D01*
X96566747Y-80195714D02*
X96471509Y-80148095D01*
X96471509Y-80148095D02*
X96423890Y-80100476D01*
X96423890Y-80100476D02*
X96376271Y-80005238D01*
X96376271Y-80005238D02*
X96376271Y-79814762D01*
X96376271Y-79814762D02*
X96423890Y-79719524D01*
X96423890Y-79719524D02*
X96471509Y-79671905D01*
X96471509Y-79671905D02*
X96566747Y-79624286D01*
D10*
%TO.C,R1*%
X43774318Y-87063333D02*
X43169556Y-86639999D01*
X43774318Y-86337618D02*
X42504318Y-86337618D01*
X42504318Y-86337618D02*
X42504318Y-86821428D01*
X42504318Y-86821428D02*
X42564794Y-86942380D01*
X42564794Y-86942380D02*
X42625270Y-87002857D01*
X42625270Y-87002857D02*
X42746222Y-87063333D01*
X42746222Y-87063333D02*
X42927651Y-87063333D01*
X42927651Y-87063333D02*
X43048603Y-87002857D01*
X43048603Y-87002857D02*
X43109080Y-86942380D01*
X43109080Y-86942380D02*
X43169556Y-86821428D01*
X43169556Y-86821428D02*
X43169556Y-86337618D01*
X43774318Y-88272857D02*
X43774318Y-87547142D01*
X43774318Y-87909999D02*
X42504318Y-87909999D01*
X42504318Y-87909999D02*
X42685746Y-87789047D01*
X42685746Y-87789047D02*
X42806699Y-87668095D01*
X42806699Y-87668095D02*
X42867175Y-87547142D01*
D11*
%TO.C,R28*%
X96855319Y-78797142D02*
X96379128Y-78463809D01*
X96855319Y-78225714D02*
X95855319Y-78225714D01*
X95855319Y-78225714D02*
X95855319Y-78606666D01*
X95855319Y-78606666D02*
X95902938Y-78701904D01*
X95902938Y-78701904D02*
X95950557Y-78749523D01*
X95950557Y-78749523D02*
X96045795Y-78797142D01*
X96045795Y-78797142D02*
X96188652Y-78797142D01*
X96188652Y-78797142D02*
X96283890Y-78749523D01*
X96283890Y-78749523D02*
X96331509Y-78701904D01*
X96331509Y-78701904D02*
X96379128Y-78606666D01*
X96379128Y-78606666D02*
X96379128Y-78225714D01*
X95950557Y-79178095D02*
X95902938Y-79225714D01*
X95902938Y-79225714D02*
X95855319Y-79320952D01*
X95855319Y-79320952D02*
X95855319Y-79559047D01*
X95855319Y-79559047D02*
X95902938Y-79654285D01*
X95902938Y-79654285D02*
X95950557Y-79701904D01*
X95950557Y-79701904D02*
X96045795Y-79749523D01*
X96045795Y-79749523D02*
X96141033Y-79749523D01*
X96141033Y-79749523D02*
X96283890Y-79701904D01*
X96283890Y-79701904D02*
X96855319Y-79130476D01*
X96855319Y-79130476D02*
X96855319Y-79749523D01*
X96283890Y-80320952D02*
X96236271Y-80225714D01*
X96236271Y-80225714D02*
X96188652Y-80178095D01*
X96188652Y-80178095D02*
X96093414Y-80130476D01*
X96093414Y-80130476D02*
X96045795Y-80130476D01*
X96045795Y-80130476D02*
X95950557Y-80178095D01*
X95950557Y-80178095D02*
X95902938Y-80225714D01*
X95902938Y-80225714D02*
X95855319Y-80320952D01*
X95855319Y-80320952D02*
X95855319Y-80511428D01*
X95855319Y-80511428D02*
X95902938Y-80606666D01*
X95902938Y-80606666D02*
X95950557Y-80654285D01*
X95950557Y-80654285D02*
X96045795Y-80701904D01*
X96045795Y-80701904D02*
X96093414Y-80701904D01*
X96093414Y-80701904D02*
X96188652Y-80654285D01*
X96188652Y-80654285D02*
X96236271Y-80606666D01*
X96236271Y-80606666D02*
X96283890Y-80511428D01*
X96283890Y-80511428D02*
X96283890Y-80320952D01*
X96283890Y-80320952D02*
X96331509Y-80225714D01*
X96331509Y-80225714D02*
X96379128Y-80178095D01*
X96379128Y-80178095D02*
X96474366Y-80130476D01*
X96474366Y-80130476D02*
X96664842Y-80130476D01*
X96664842Y-80130476D02*
X96760080Y-80178095D01*
X96760080Y-80178095D02*
X96807700Y-80225714D01*
X96807700Y-80225714D02*
X96855319Y-80320952D01*
X96855319Y-80320952D02*
X96855319Y-80511428D01*
X96855319Y-80511428D02*
X96807700Y-80606666D01*
X96807700Y-80606666D02*
X96760080Y-80654285D01*
X96760080Y-80654285D02*
X96664842Y-80701904D01*
X96664842Y-80701904D02*
X96474366Y-80701904D01*
X96474366Y-80701904D02*
X96379128Y-80654285D01*
X96379128Y-80654285D02*
X96331509Y-80606666D01*
X96331509Y-80606666D02*
X96283890Y-80511428D01*
%TO.C,C27*%
X123709580Y-60619642D02*
X123757200Y-60572023D01*
X123757200Y-60572023D02*
X123804819Y-60429166D01*
X123804819Y-60429166D02*
X123804819Y-60333928D01*
X123804819Y-60333928D02*
X123757200Y-60191071D01*
X123757200Y-60191071D02*
X123661961Y-60095833D01*
X123661961Y-60095833D02*
X123566723Y-60048214D01*
X123566723Y-60048214D02*
X123376247Y-60000595D01*
X123376247Y-60000595D02*
X123233390Y-60000595D01*
X123233390Y-60000595D02*
X123042914Y-60048214D01*
X123042914Y-60048214D02*
X122947676Y-60095833D01*
X122947676Y-60095833D02*
X122852438Y-60191071D01*
X122852438Y-60191071D02*
X122804819Y-60333928D01*
X122804819Y-60333928D02*
X122804819Y-60429166D01*
X122804819Y-60429166D02*
X122852438Y-60572023D01*
X122852438Y-60572023D02*
X122900057Y-60619642D01*
X122900057Y-61000595D02*
X122852438Y-61048214D01*
X122852438Y-61048214D02*
X122804819Y-61143452D01*
X122804819Y-61143452D02*
X122804819Y-61381547D01*
X122804819Y-61381547D02*
X122852438Y-61476785D01*
X122852438Y-61476785D02*
X122900057Y-61524404D01*
X122900057Y-61524404D02*
X122995295Y-61572023D01*
X122995295Y-61572023D02*
X123090533Y-61572023D01*
X123090533Y-61572023D02*
X123233390Y-61524404D01*
X123233390Y-61524404D02*
X123804819Y-60952976D01*
X123804819Y-60952976D02*
X123804819Y-61572023D01*
X122804819Y-61905357D02*
X122804819Y-62572023D01*
X122804819Y-62572023D02*
X123804819Y-62143452D01*
%TO.C,C37*%
X43507857Y-59399580D02*
X43555476Y-59447200D01*
X43555476Y-59447200D02*
X43698333Y-59494819D01*
X43698333Y-59494819D02*
X43793571Y-59494819D01*
X43793571Y-59494819D02*
X43936428Y-59447200D01*
X43936428Y-59447200D02*
X44031666Y-59351961D01*
X44031666Y-59351961D02*
X44079285Y-59256723D01*
X44079285Y-59256723D02*
X44126904Y-59066247D01*
X44126904Y-59066247D02*
X44126904Y-58923390D01*
X44126904Y-58923390D02*
X44079285Y-58732914D01*
X44079285Y-58732914D02*
X44031666Y-58637676D01*
X44031666Y-58637676D02*
X43936428Y-58542438D01*
X43936428Y-58542438D02*
X43793571Y-58494819D01*
X43793571Y-58494819D02*
X43698333Y-58494819D01*
X43698333Y-58494819D02*
X43555476Y-58542438D01*
X43555476Y-58542438D02*
X43507857Y-58590057D01*
X43174523Y-58494819D02*
X42555476Y-58494819D01*
X42555476Y-58494819D02*
X42888809Y-58875771D01*
X42888809Y-58875771D02*
X42745952Y-58875771D01*
X42745952Y-58875771D02*
X42650714Y-58923390D01*
X42650714Y-58923390D02*
X42603095Y-58971009D01*
X42603095Y-58971009D02*
X42555476Y-59066247D01*
X42555476Y-59066247D02*
X42555476Y-59304342D01*
X42555476Y-59304342D02*
X42603095Y-59399580D01*
X42603095Y-59399580D02*
X42650714Y-59447200D01*
X42650714Y-59447200D02*
X42745952Y-59494819D01*
X42745952Y-59494819D02*
X43031666Y-59494819D01*
X43031666Y-59494819D02*
X43126904Y-59447200D01*
X43126904Y-59447200D02*
X43174523Y-59399580D01*
X42222142Y-58494819D02*
X41555476Y-58494819D01*
X41555476Y-58494819D02*
X41984047Y-59494819D01*
D10*
%TO.C,R4*%
X62031666Y-82194318D02*
X62455000Y-81589556D01*
X62757381Y-82194318D02*
X62757381Y-80924318D01*
X62757381Y-80924318D02*
X62273571Y-80924318D01*
X62273571Y-80924318D02*
X62152619Y-80984794D01*
X62152619Y-80984794D02*
X62092142Y-81045270D01*
X62092142Y-81045270D02*
X62031666Y-81166222D01*
X62031666Y-81166222D02*
X62031666Y-81347651D01*
X62031666Y-81347651D02*
X62092142Y-81468603D01*
X62092142Y-81468603D02*
X62152619Y-81529080D01*
X62152619Y-81529080D02*
X62273571Y-81589556D01*
X62273571Y-81589556D02*
X62757381Y-81589556D01*
X60943095Y-81347651D02*
X60943095Y-82194318D01*
X61245476Y-80863842D02*
X61547857Y-81770984D01*
X61547857Y-81770984D02*
X60761666Y-81770984D01*
%TO.C,R10*%
X97600228Y-67644318D02*
X98023562Y-67039556D01*
X98325943Y-67644318D02*
X98325943Y-66374318D01*
X98325943Y-66374318D02*
X97842133Y-66374318D01*
X97842133Y-66374318D02*
X97721181Y-66434794D01*
X97721181Y-66434794D02*
X97660704Y-66495270D01*
X97660704Y-66495270D02*
X97600228Y-66616222D01*
X97600228Y-66616222D02*
X97600228Y-66797651D01*
X97600228Y-66797651D02*
X97660704Y-66918603D01*
X97660704Y-66918603D02*
X97721181Y-66979080D01*
X97721181Y-66979080D02*
X97842133Y-67039556D01*
X97842133Y-67039556D02*
X98325943Y-67039556D01*
X96390704Y-67644318D02*
X97116419Y-67644318D01*
X96753562Y-67644318D02*
X96753562Y-66374318D01*
X96753562Y-66374318D02*
X96874514Y-66555746D01*
X96874514Y-66555746D02*
X96995466Y-66676699D01*
X96995466Y-66676699D02*
X97116419Y-66737175D01*
X95604514Y-66374318D02*
X95483561Y-66374318D01*
X95483561Y-66374318D02*
X95362609Y-66434794D01*
X95362609Y-66434794D02*
X95302133Y-66495270D01*
X95302133Y-66495270D02*
X95241657Y-66616222D01*
X95241657Y-66616222D02*
X95181180Y-66858127D01*
X95181180Y-66858127D02*
X95181180Y-67160508D01*
X95181180Y-67160508D02*
X95241657Y-67402413D01*
X95241657Y-67402413D02*
X95302133Y-67523365D01*
X95302133Y-67523365D02*
X95362609Y-67583842D01*
X95362609Y-67583842D02*
X95483561Y-67644318D01*
X95483561Y-67644318D02*
X95604514Y-67644318D01*
X95604514Y-67644318D02*
X95725466Y-67583842D01*
X95725466Y-67583842D02*
X95785942Y-67523365D01*
X95785942Y-67523365D02*
X95846419Y-67402413D01*
X95846419Y-67402413D02*
X95906895Y-67160508D01*
X95906895Y-67160508D02*
X95906895Y-66858127D01*
X95906895Y-66858127D02*
X95846419Y-66616222D01*
X95846419Y-66616222D02*
X95785942Y-66495270D01*
X95785942Y-66495270D02*
X95725466Y-66434794D01*
X95725466Y-66434794D02*
X95604514Y-66374318D01*
D11*
%TO.C,R7*%
X94455319Y-92113333D02*
X93979128Y-91780000D01*
X94455319Y-91541905D02*
X93455319Y-91541905D01*
X93455319Y-91541905D02*
X93455319Y-91922857D01*
X93455319Y-91922857D02*
X93502938Y-92018095D01*
X93502938Y-92018095D02*
X93550557Y-92065714D01*
X93550557Y-92065714D02*
X93645795Y-92113333D01*
X93645795Y-92113333D02*
X93788652Y-92113333D01*
X93788652Y-92113333D02*
X93883890Y-92065714D01*
X93883890Y-92065714D02*
X93931509Y-92018095D01*
X93931509Y-92018095D02*
X93979128Y-91922857D01*
X93979128Y-91922857D02*
X93979128Y-91541905D01*
X93455319Y-92446667D02*
X93455319Y-93113333D01*
X93455319Y-93113333D02*
X94455319Y-92684762D01*
%TO.C,C1*%
X87020080Y-87510833D02*
X87067700Y-87463214D01*
X87067700Y-87463214D02*
X87115319Y-87320357D01*
X87115319Y-87320357D02*
X87115319Y-87225119D01*
X87115319Y-87225119D02*
X87067700Y-87082262D01*
X87067700Y-87082262D02*
X86972461Y-86987024D01*
X86972461Y-86987024D02*
X86877223Y-86939405D01*
X86877223Y-86939405D02*
X86686747Y-86891786D01*
X86686747Y-86891786D02*
X86543890Y-86891786D01*
X86543890Y-86891786D02*
X86353414Y-86939405D01*
X86353414Y-86939405D02*
X86258176Y-86987024D01*
X86258176Y-86987024D02*
X86162938Y-87082262D01*
X86162938Y-87082262D02*
X86115319Y-87225119D01*
X86115319Y-87225119D02*
X86115319Y-87320357D01*
X86115319Y-87320357D02*
X86162938Y-87463214D01*
X86162938Y-87463214D02*
X86210557Y-87510833D01*
X87115319Y-88463214D02*
X87115319Y-87891786D01*
X87115319Y-88177500D02*
X86115319Y-88177500D01*
X86115319Y-88177500D02*
X86258176Y-88082262D01*
X86258176Y-88082262D02*
X86353414Y-87987024D01*
X86353414Y-87987024D02*
X86401033Y-87891786D01*
%TO.C,C29*%
X131442857Y-56159580D02*
X131490476Y-56207200D01*
X131490476Y-56207200D02*
X131633333Y-56254819D01*
X131633333Y-56254819D02*
X131728571Y-56254819D01*
X131728571Y-56254819D02*
X131871428Y-56207200D01*
X131871428Y-56207200D02*
X131966666Y-56111961D01*
X131966666Y-56111961D02*
X132014285Y-56016723D01*
X132014285Y-56016723D02*
X132061904Y-55826247D01*
X132061904Y-55826247D02*
X132061904Y-55683390D01*
X132061904Y-55683390D02*
X132014285Y-55492914D01*
X132014285Y-55492914D02*
X131966666Y-55397676D01*
X131966666Y-55397676D02*
X131871428Y-55302438D01*
X131871428Y-55302438D02*
X131728571Y-55254819D01*
X131728571Y-55254819D02*
X131633333Y-55254819D01*
X131633333Y-55254819D02*
X131490476Y-55302438D01*
X131490476Y-55302438D02*
X131442857Y-55350057D01*
X131061904Y-55350057D02*
X131014285Y-55302438D01*
X131014285Y-55302438D02*
X130919047Y-55254819D01*
X130919047Y-55254819D02*
X130680952Y-55254819D01*
X130680952Y-55254819D02*
X130585714Y-55302438D01*
X130585714Y-55302438D02*
X130538095Y-55350057D01*
X130538095Y-55350057D02*
X130490476Y-55445295D01*
X130490476Y-55445295D02*
X130490476Y-55540533D01*
X130490476Y-55540533D02*
X130538095Y-55683390D01*
X130538095Y-55683390D02*
X131109523Y-56254819D01*
X131109523Y-56254819D02*
X130490476Y-56254819D01*
X130014285Y-56254819D02*
X129823809Y-56254819D01*
X129823809Y-56254819D02*
X129728571Y-56207200D01*
X129728571Y-56207200D02*
X129680952Y-56159580D01*
X129680952Y-56159580D02*
X129585714Y-56016723D01*
X129585714Y-56016723D02*
X129538095Y-55826247D01*
X129538095Y-55826247D02*
X129538095Y-55445295D01*
X129538095Y-55445295D02*
X129585714Y-55350057D01*
X129585714Y-55350057D02*
X129633333Y-55302438D01*
X129633333Y-55302438D02*
X129728571Y-55254819D01*
X129728571Y-55254819D02*
X129919047Y-55254819D01*
X129919047Y-55254819D02*
X130014285Y-55302438D01*
X130014285Y-55302438D02*
X130061904Y-55350057D01*
X130061904Y-55350057D02*
X130109523Y-55445295D01*
X130109523Y-55445295D02*
X130109523Y-55683390D01*
X130109523Y-55683390D02*
X130061904Y-55778628D01*
X130061904Y-55778628D02*
X130014285Y-55826247D01*
X130014285Y-55826247D02*
X129919047Y-55873866D01*
X129919047Y-55873866D02*
X129728571Y-55873866D01*
X129728571Y-55873866D02*
X129633333Y-55826247D01*
X129633333Y-55826247D02*
X129585714Y-55778628D01*
X129585714Y-55778628D02*
X129538095Y-55683390D01*
D10*
%TO.C,R9*%
X89695466Y-67644318D02*
X90118800Y-67039556D01*
X90421181Y-67644318D02*
X90421181Y-66374318D01*
X90421181Y-66374318D02*
X89937371Y-66374318D01*
X89937371Y-66374318D02*
X89816419Y-66434794D01*
X89816419Y-66434794D02*
X89755942Y-66495270D01*
X89755942Y-66495270D02*
X89695466Y-66616222D01*
X89695466Y-66616222D02*
X89695466Y-66797651D01*
X89695466Y-66797651D02*
X89755942Y-66918603D01*
X89755942Y-66918603D02*
X89816419Y-66979080D01*
X89816419Y-66979080D02*
X89937371Y-67039556D01*
X89937371Y-67039556D02*
X90421181Y-67039556D01*
X89090704Y-67644318D02*
X88848800Y-67644318D01*
X88848800Y-67644318D02*
X88727847Y-67583842D01*
X88727847Y-67583842D02*
X88667371Y-67523365D01*
X88667371Y-67523365D02*
X88546419Y-67341937D01*
X88546419Y-67341937D02*
X88485942Y-67100032D01*
X88485942Y-67100032D02*
X88485942Y-66616222D01*
X88485942Y-66616222D02*
X88546419Y-66495270D01*
X88546419Y-66495270D02*
X88606895Y-66434794D01*
X88606895Y-66434794D02*
X88727847Y-66374318D01*
X88727847Y-66374318D02*
X88969752Y-66374318D01*
X88969752Y-66374318D02*
X89090704Y-66434794D01*
X89090704Y-66434794D02*
X89151181Y-66495270D01*
X89151181Y-66495270D02*
X89211657Y-66616222D01*
X89211657Y-66616222D02*
X89211657Y-66918603D01*
X89211657Y-66918603D02*
X89151181Y-67039556D01*
X89151181Y-67039556D02*
X89090704Y-67100032D01*
X89090704Y-67100032D02*
X88969752Y-67160508D01*
X88969752Y-67160508D02*
X88727847Y-67160508D01*
X88727847Y-67160508D02*
X88606895Y-67100032D01*
X88606895Y-67100032D02*
X88546419Y-67039556D01*
X88546419Y-67039556D02*
X88485942Y-66918603D01*
D11*
%TO.C,C33*%
X71942857Y-107459580D02*
X71990476Y-107507200D01*
X71990476Y-107507200D02*
X72133333Y-107554819D01*
X72133333Y-107554819D02*
X72228571Y-107554819D01*
X72228571Y-107554819D02*
X72371428Y-107507200D01*
X72371428Y-107507200D02*
X72466666Y-107411961D01*
X72466666Y-107411961D02*
X72514285Y-107316723D01*
X72514285Y-107316723D02*
X72561904Y-107126247D01*
X72561904Y-107126247D02*
X72561904Y-106983390D01*
X72561904Y-106983390D02*
X72514285Y-106792914D01*
X72514285Y-106792914D02*
X72466666Y-106697676D01*
X72466666Y-106697676D02*
X72371428Y-106602438D01*
X72371428Y-106602438D02*
X72228571Y-106554819D01*
X72228571Y-106554819D02*
X72133333Y-106554819D01*
X72133333Y-106554819D02*
X71990476Y-106602438D01*
X71990476Y-106602438D02*
X71942857Y-106650057D01*
X71609523Y-106554819D02*
X70990476Y-106554819D01*
X70990476Y-106554819D02*
X71323809Y-106935771D01*
X71323809Y-106935771D02*
X71180952Y-106935771D01*
X71180952Y-106935771D02*
X71085714Y-106983390D01*
X71085714Y-106983390D02*
X71038095Y-107031009D01*
X71038095Y-107031009D02*
X70990476Y-107126247D01*
X70990476Y-107126247D02*
X70990476Y-107364342D01*
X70990476Y-107364342D02*
X71038095Y-107459580D01*
X71038095Y-107459580D02*
X71085714Y-107507200D01*
X71085714Y-107507200D02*
X71180952Y-107554819D01*
X71180952Y-107554819D02*
X71466666Y-107554819D01*
X71466666Y-107554819D02*
X71561904Y-107507200D01*
X71561904Y-107507200D02*
X71609523Y-107459580D01*
X70657142Y-106554819D02*
X70038095Y-106554819D01*
X70038095Y-106554819D02*
X70371428Y-106935771D01*
X70371428Y-106935771D02*
X70228571Y-106935771D01*
X70228571Y-106935771D02*
X70133333Y-106983390D01*
X70133333Y-106983390D02*
X70085714Y-107031009D01*
X70085714Y-107031009D02*
X70038095Y-107126247D01*
X70038095Y-107126247D02*
X70038095Y-107364342D01*
X70038095Y-107364342D02*
X70085714Y-107459580D01*
X70085714Y-107459580D02*
X70133333Y-107507200D01*
X70133333Y-107507200D02*
X70228571Y-107554819D01*
X70228571Y-107554819D02*
X70514285Y-107554819D01*
X70514285Y-107554819D02*
X70609523Y-107507200D01*
X70609523Y-107507200D02*
X70657142Y-107459580D01*
%TO.C,C4*%
X99980080Y-84643333D02*
X100027700Y-84595714D01*
X100027700Y-84595714D02*
X100075319Y-84452857D01*
X100075319Y-84452857D02*
X100075319Y-84357619D01*
X100075319Y-84357619D02*
X100027700Y-84214762D01*
X100027700Y-84214762D02*
X99932461Y-84119524D01*
X99932461Y-84119524D02*
X99837223Y-84071905D01*
X99837223Y-84071905D02*
X99646747Y-84024286D01*
X99646747Y-84024286D02*
X99503890Y-84024286D01*
X99503890Y-84024286D02*
X99313414Y-84071905D01*
X99313414Y-84071905D02*
X99218176Y-84119524D01*
X99218176Y-84119524D02*
X99122938Y-84214762D01*
X99122938Y-84214762D02*
X99075319Y-84357619D01*
X99075319Y-84357619D02*
X99075319Y-84452857D01*
X99075319Y-84452857D02*
X99122938Y-84595714D01*
X99122938Y-84595714D02*
X99170557Y-84643333D01*
X99408652Y-85500476D02*
X100075319Y-85500476D01*
X99027700Y-85262381D02*
X99741985Y-85024286D01*
X99741985Y-85024286D02*
X99741985Y-85643333D01*
D10*
%TO.C,R13*%
X95774318Y-59283571D02*
X95169556Y-58860237D01*
X95774318Y-58557856D02*
X94504318Y-58557856D01*
X94504318Y-58557856D02*
X94504318Y-59041666D01*
X94504318Y-59041666D02*
X94564794Y-59162618D01*
X94564794Y-59162618D02*
X94625270Y-59223095D01*
X94625270Y-59223095D02*
X94746222Y-59283571D01*
X94746222Y-59283571D02*
X94927651Y-59283571D01*
X94927651Y-59283571D02*
X95048603Y-59223095D01*
X95048603Y-59223095D02*
X95109080Y-59162618D01*
X95109080Y-59162618D02*
X95169556Y-59041666D01*
X95169556Y-59041666D02*
X95169556Y-58557856D01*
X95774318Y-60493095D02*
X95774318Y-59767380D01*
X95774318Y-60130237D02*
X94504318Y-60130237D01*
X94504318Y-60130237D02*
X94685746Y-60009285D01*
X94685746Y-60009285D02*
X94806699Y-59888333D01*
X94806699Y-59888333D02*
X94867175Y-59767380D01*
X94504318Y-60916428D02*
X94504318Y-61702619D01*
X94504318Y-61702619D02*
X94988127Y-61279285D01*
X94988127Y-61279285D02*
X94988127Y-61460714D01*
X94988127Y-61460714D02*
X95048603Y-61581666D01*
X95048603Y-61581666D02*
X95109080Y-61642142D01*
X95109080Y-61642142D02*
X95230032Y-61702619D01*
X95230032Y-61702619D02*
X95532413Y-61702619D01*
X95532413Y-61702619D02*
X95653365Y-61642142D01*
X95653365Y-61642142D02*
X95713842Y-61581666D01*
X95713842Y-61581666D02*
X95774318Y-61460714D01*
X95774318Y-61460714D02*
X95774318Y-61097857D01*
X95774318Y-61097857D02*
X95713842Y-60976904D01*
X95713842Y-60976904D02*
X95653365Y-60916428D01*
%TO.C,R20*%
X121216428Y-55974318D02*
X121639762Y-55369556D01*
X121942143Y-55974318D02*
X121942143Y-54704318D01*
X121942143Y-54704318D02*
X121458333Y-54704318D01*
X121458333Y-54704318D02*
X121337381Y-54764794D01*
X121337381Y-54764794D02*
X121276904Y-54825270D01*
X121276904Y-54825270D02*
X121216428Y-54946222D01*
X121216428Y-54946222D02*
X121216428Y-55127651D01*
X121216428Y-55127651D02*
X121276904Y-55248603D01*
X121276904Y-55248603D02*
X121337381Y-55309080D01*
X121337381Y-55309080D02*
X121458333Y-55369556D01*
X121458333Y-55369556D02*
X121942143Y-55369556D01*
X120732619Y-54825270D02*
X120672143Y-54764794D01*
X120672143Y-54764794D02*
X120551190Y-54704318D01*
X120551190Y-54704318D02*
X120248809Y-54704318D01*
X120248809Y-54704318D02*
X120127857Y-54764794D01*
X120127857Y-54764794D02*
X120067381Y-54825270D01*
X120067381Y-54825270D02*
X120006904Y-54946222D01*
X120006904Y-54946222D02*
X120006904Y-55067175D01*
X120006904Y-55067175D02*
X120067381Y-55248603D01*
X120067381Y-55248603D02*
X120793095Y-55974318D01*
X120793095Y-55974318D02*
X120006904Y-55974318D01*
X119220714Y-54704318D02*
X119099761Y-54704318D01*
X119099761Y-54704318D02*
X118978809Y-54764794D01*
X118978809Y-54764794D02*
X118918333Y-54825270D01*
X118918333Y-54825270D02*
X118857857Y-54946222D01*
X118857857Y-54946222D02*
X118797380Y-55188127D01*
X118797380Y-55188127D02*
X118797380Y-55490508D01*
X118797380Y-55490508D02*
X118857857Y-55732413D01*
X118857857Y-55732413D02*
X118918333Y-55853365D01*
X118918333Y-55853365D02*
X118978809Y-55913842D01*
X118978809Y-55913842D02*
X119099761Y-55974318D01*
X119099761Y-55974318D02*
X119220714Y-55974318D01*
X119220714Y-55974318D02*
X119341666Y-55913842D01*
X119341666Y-55913842D02*
X119402142Y-55853365D01*
X119402142Y-55853365D02*
X119462619Y-55732413D01*
X119462619Y-55732413D02*
X119523095Y-55490508D01*
X119523095Y-55490508D02*
X119523095Y-55188127D01*
X119523095Y-55188127D02*
X119462619Y-54946222D01*
X119462619Y-54946222D02*
X119402142Y-54825270D01*
X119402142Y-54825270D02*
X119341666Y-54764794D01*
X119341666Y-54764794D02*
X119220714Y-54704318D01*
%TO.C,R16*%
X87374318Y-115033571D02*
X86769556Y-114610237D01*
X87374318Y-114307856D02*
X86104318Y-114307856D01*
X86104318Y-114307856D02*
X86104318Y-114791666D01*
X86104318Y-114791666D02*
X86164794Y-114912618D01*
X86164794Y-114912618D02*
X86225270Y-114973095D01*
X86225270Y-114973095D02*
X86346222Y-115033571D01*
X86346222Y-115033571D02*
X86527651Y-115033571D01*
X86527651Y-115033571D02*
X86648603Y-114973095D01*
X86648603Y-114973095D02*
X86709080Y-114912618D01*
X86709080Y-114912618D02*
X86769556Y-114791666D01*
X86769556Y-114791666D02*
X86769556Y-114307856D01*
X87374318Y-116243095D02*
X87374318Y-115517380D01*
X87374318Y-115880237D02*
X86104318Y-115880237D01*
X86104318Y-115880237D02*
X86285746Y-115759285D01*
X86285746Y-115759285D02*
X86406699Y-115638333D01*
X86406699Y-115638333D02*
X86467175Y-115517380D01*
X86104318Y-117331666D02*
X86104318Y-117089761D01*
X86104318Y-117089761D02*
X86164794Y-116968809D01*
X86164794Y-116968809D02*
X86225270Y-116908333D01*
X86225270Y-116908333D02*
X86406699Y-116787380D01*
X86406699Y-116787380D02*
X86648603Y-116726904D01*
X86648603Y-116726904D02*
X87132413Y-116726904D01*
X87132413Y-116726904D02*
X87253365Y-116787380D01*
X87253365Y-116787380D02*
X87313842Y-116847857D01*
X87313842Y-116847857D02*
X87374318Y-116968809D01*
X87374318Y-116968809D02*
X87374318Y-117210714D01*
X87374318Y-117210714D02*
X87313842Y-117331666D01*
X87313842Y-117331666D02*
X87253365Y-117392142D01*
X87253365Y-117392142D02*
X87132413Y-117452619D01*
X87132413Y-117452619D02*
X86830032Y-117452619D01*
X86830032Y-117452619D02*
X86709080Y-117392142D01*
X86709080Y-117392142D02*
X86648603Y-117331666D01*
X86648603Y-117331666D02*
X86588127Y-117210714D01*
X86588127Y-117210714D02*
X86588127Y-116968809D01*
X86588127Y-116968809D02*
X86648603Y-116847857D01*
X86648603Y-116847857D02*
X86709080Y-116787380D01*
X86709080Y-116787380D02*
X86830032Y-116726904D01*
D11*
%TO.C,C40*%
X62529580Y-88977142D02*
X62577200Y-88929523D01*
X62577200Y-88929523D02*
X62624819Y-88786666D01*
X62624819Y-88786666D02*
X62624819Y-88691428D01*
X62624819Y-88691428D02*
X62577200Y-88548571D01*
X62577200Y-88548571D02*
X62481961Y-88453333D01*
X62481961Y-88453333D02*
X62386723Y-88405714D01*
X62386723Y-88405714D02*
X62196247Y-88358095D01*
X62196247Y-88358095D02*
X62053390Y-88358095D01*
X62053390Y-88358095D02*
X61862914Y-88405714D01*
X61862914Y-88405714D02*
X61767676Y-88453333D01*
X61767676Y-88453333D02*
X61672438Y-88548571D01*
X61672438Y-88548571D02*
X61624819Y-88691428D01*
X61624819Y-88691428D02*
X61624819Y-88786666D01*
X61624819Y-88786666D02*
X61672438Y-88929523D01*
X61672438Y-88929523D02*
X61720057Y-88977142D01*
X61958152Y-89834285D02*
X62624819Y-89834285D01*
X61577200Y-89596190D02*
X62291485Y-89358095D01*
X62291485Y-89358095D02*
X62291485Y-89977142D01*
X61624819Y-90548571D02*
X61624819Y-90643809D01*
X61624819Y-90643809D02*
X61672438Y-90739047D01*
X61672438Y-90739047D02*
X61720057Y-90786666D01*
X61720057Y-90786666D02*
X61815295Y-90834285D01*
X61815295Y-90834285D02*
X62005771Y-90881904D01*
X62005771Y-90881904D02*
X62243866Y-90881904D01*
X62243866Y-90881904D02*
X62434342Y-90834285D01*
X62434342Y-90834285D02*
X62529580Y-90786666D01*
X62529580Y-90786666D02*
X62577200Y-90739047D01*
X62577200Y-90739047D02*
X62624819Y-90643809D01*
X62624819Y-90643809D02*
X62624819Y-90548571D01*
X62624819Y-90548571D02*
X62577200Y-90453333D01*
X62577200Y-90453333D02*
X62529580Y-90405714D01*
X62529580Y-90405714D02*
X62434342Y-90358095D01*
X62434342Y-90358095D02*
X62243866Y-90310476D01*
X62243866Y-90310476D02*
X62005771Y-90310476D01*
X62005771Y-90310476D02*
X61815295Y-90358095D01*
X61815295Y-90358095D02*
X61720057Y-90405714D01*
X61720057Y-90405714D02*
X61672438Y-90453333D01*
X61672438Y-90453333D02*
X61624819Y-90548571D01*
%TO.C,C3*%
X85784546Y-131281960D02*
X85832165Y-131329580D01*
X85832165Y-131329580D02*
X85975022Y-131377199D01*
X85975022Y-131377199D02*
X86070260Y-131377199D01*
X86070260Y-131377199D02*
X86213117Y-131329580D01*
X86213117Y-131329580D02*
X86308355Y-131234341D01*
X86308355Y-131234341D02*
X86355974Y-131139103D01*
X86355974Y-131139103D02*
X86403593Y-130948627D01*
X86403593Y-130948627D02*
X86403593Y-130805770D01*
X86403593Y-130805770D02*
X86355974Y-130615294D01*
X86355974Y-130615294D02*
X86308355Y-130520056D01*
X86308355Y-130520056D02*
X86213117Y-130424818D01*
X86213117Y-130424818D02*
X86070260Y-130377199D01*
X86070260Y-130377199D02*
X85975022Y-130377199D01*
X85975022Y-130377199D02*
X85832165Y-130424818D01*
X85832165Y-130424818D02*
X85784546Y-130472437D01*
X85451212Y-130377199D02*
X84832165Y-130377199D01*
X84832165Y-130377199D02*
X85165498Y-130758151D01*
X85165498Y-130758151D02*
X85022641Y-130758151D01*
X85022641Y-130758151D02*
X84927403Y-130805770D01*
X84927403Y-130805770D02*
X84879784Y-130853389D01*
X84879784Y-130853389D02*
X84832165Y-130948627D01*
X84832165Y-130948627D02*
X84832165Y-131186722D01*
X84832165Y-131186722D02*
X84879784Y-131281960D01*
X84879784Y-131281960D02*
X84927403Y-131329580D01*
X84927403Y-131329580D02*
X85022641Y-131377199D01*
X85022641Y-131377199D02*
X85308355Y-131377199D01*
X85308355Y-131377199D02*
X85403593Y-131329580D01*
X85403593Y-131329580D02*
X85451212Y-131281960D01*
%TO.C,C23*%
X65329580Y-86577142D02*
X65377200Y-86529523D01*
X65377200Y-86529523D02*
X65424819Y-86386666D01*
X65424819Y-86386666D02*
X65424819Y-86291428D01*
X65424819Y-86291428D02*
X65377200Y-86148571D01*
X65377200Y-86148571D02*
X65281961Y-86053333D01*
X65281961Y-86053333D02*
X65186723Y-86005714D01*
X65186723Y-86005714D02*
X64996247Y-85958095D01*
X64996247Y-85958095D02*
X64853390Y-85958095D01*
X64853390Y-85958095D02*
X64662914Y-86005714D01*
X64662914Y-86005714D02*
X64567676Y-86053333D01*
X64567676Y-86053333D02*
X64472438Y-86148571D01*
X64472438Y-86148571D02*
X64424819Y-86291428D01*
X64424819Y-86291428D02*
X64424819Y-86386666D01*
X64424819Y-86386666D02*
X64472438Y-86529523D01*
X64472438Y-86529523D02*
X64520057Y-86577142D01*
X64520057Y-86958095D02*
X64472438Y-87005714D01*
X64472438Y-87005714D02*
X64424819Y-87100952D01*
X64424819Y-87100952D02*
X64424819Y-87339047D01*
X64424819Y-87339047D02*
X64472438Y-87434285D01*
X64472438Y-87434285D02*
X64520057Y-87481904D01*
X64520057Y-87481904D02*
X64615295Y-87529523D01*
X64615295Y-87529523D02*
X64710533Y-87529523D01*
X64710533Y-87529523D02*
X64853390Y-87481904D01*
X64853390Y-87481904D02*
X65424819Y-86910476D01*
X65424819Y-86910476D02*
X65424819Y-87529523D01*
X64424819Y-87862857D02*
X64424819Y-88481904D01*
X64424819Y-88481904D02*
X64805771Y-88148571D01*
X64805771Y-88148571D02*
X64805771Y-88291428D01*
X64805771Y-88291428D02*
X64853390Y-88386666D01*
X64853390Y-88386666D02*
X64901009Y-88434285D01*
X64901009Y-88434285D02*
X64996247Y-88481904D01*
X64996247Y-88481904D02*
X65234342Y-88481904D01*
X65234342Y-88481904D02*
X65329580Y-88434285D01*
X65329580Y-88434285D02*
X65377200Y-88386666D01*
X65377200Y-88386666D02*
X65424819Y-88291428D01*
X65424819Y-88291428D02*
X65424819Y-88005714D01*
X65424819Y-88005714D02*
X65377200Y-87910476D01*
X65377200Y-87910476D02*
X65329580Y-87862857D01*
%TO.C,C32*%
X62409580Y-61482142D02*
X62457200Y-61434523D01*
X62457200Y-61434523D02*
X62504819Y-61291666D01*
X62504819Y-61291666D02*
X62504819Y-61196428D01*
X62504819Y-61196428D02*
X62457200Y-61053571D01*
X62457200Y-61053571D02*
X62361961Y-60958333D01*
X62361961Y-60958333D02*
X62266723Y-60910714D01*
X62266723Y-60910714D02*
X62076247Y-60863095D01*
X62076247Y-60863095D02*
X61933390Y-60863095D01*
X61933390Y-60863095D02*
X61742914Y-60910714D01*
X61742914Y-60910714D02*
X61647676Y-60958333D01*
X61647676Y-60958333D02*
X61552438Y-61053571D01*
X61552438Y-61053571D02*
X61504819Y-61196428D01*
X61504819Y-61196428D02*
X61504819Y-61291666D01*
X61504819Y-61291666D02*
X61552438Y-61434523D01*
X61552438Y-61434523D02*
X61600057Y-61482142D01*
X61504819Y-61815476D02*
X61504819Y-62434523D01*
X61504819Y-62434523D02*
X61885771Y-62101190D01*
X61885771Y-62101190D02*
X61885771Y-62244047D01*
X61885771Y-62244047D02*
X61933390Y-62339285D01*
X61933390Y-62339285D02*
X61981009Y-62386904D01*
X61981009Y-62386904D02*
X62076247Y-62434523D01*
X62076247Y-62434523D02*
X62314342Y-62434523D01*
X62314342Y-62434523D02*
X62409580Y-62386904D01*
X62409580Y-62386904D02*
X62457200Y-62339285D01*
X62457200Y-62339285D02*
X62504819Y-62244047D01*
X62504819Y-62244047D02*
X62504819Y-61958333D01*
X62504819Y-61958333D02*
X62457200Y-61863095D01*
X62457200Y-61863095D02*
X62409580Y-61815476D01*
X61600057Y-62815476D02*
X61552438Y-62863095D01*
X61552438Y-62863095D02*
X61504819Y-62958333D01*
X61504819Y-62958333D02*
X61504819Y-63196428D01*
X61504819Y-63196428D02*
X61552438Y-63291666D01*
X61552438Y-63291666D02*
X61600057Y-63339285D01*
X61600057Y-63339285D02*
X61695295Y-63386904D01*
X61695295Y-63386904D02*
X61790533Y-63386904D01*
X61790533Y-63386904D02*
X61933390Y-63339285D01*
X61933390Y-63339285D02*
X62504819Y-62767857D01*
X62504819Y-62767857D02*
X62504819Y-63386904D01*
D10*
%TO.C,R14*%
X121066428Y-107974318D02*
X121489762Y-107369556D01*
X121792143Y-107974318D02*
X121792143Y-106704318D01*
X121792143Y-106704318D02*
X121308333Y-106704318D01*
X121308333Y-106704318D02*
X121187381Y-106764794D01*
X121187381Y-106764794D02*
X121126904Y-106825270D01*
X121126904Y-106825270D02*
X121066428Y-106946222D01*
X121066428Y-106946222D02*
X121066428Y-107127651D01*
X121066428Y-107127651D02*
X121126904Y-107248603D01*
X121126904Y-107248603D02*
X121187381Y-107309080D01*
X121187381Y-107309080D02*
X121308333Y-107369556D01*
X121308333Y-107369556D02*
X121792143Y-107369556D01*
X119856904Y-107974318D02*
X120582619Y-107974318D01*
X120219762Y-107974318D02*
X120219762Y-106704318D01*
X120219762Y-106704318D02*
X120340714Y-106885746D01*
X120340714Y-106885746D02*
X120461666Y-107006699D01*
X120461666Y-107006699D02*
X120582619Y-107067175D01*
X118768333Y-107127651D02*
X118768333Y-107974318D01*
X119070714Y-106643842D02*
X119373095Y-107550984D01*
X119373095Y-107550984D02*
X118586904Y-107550984D01*
D11*
%TO.C,C30*%
X121080357Y-123859580D02*
X121127976Y-123907200D01*
X121127976Y-123907200D02*
X121270833Y-123954819D01*
X121270833Y-123954819D02*
X121366071Y-123954819D01*
X121366071Y-123954819D02*
X121508928Y-123907200D01*
X121508928Y-123907200D02*
X121604166Y-123811961D01*
X121604166Y-123811961D02*
X121651785Y-123716723D01*
X121651785Y-123716723D02*
X121699404Y-123526247D01*
X121699404Y-123526247D02*
X121699404Y-123383390D01*
X121699404Y-123383390D02*
X121651785Y-123192914D01*
X121651785Y-123192914D02*
X121604166Y-123097676D01*
X121604166Y-123097676D02*
X121508928Y-123002438D01*
X121508928Y-123002438D02*
X121366071Y-122954819D01*
X121366071Y-122954819D02*
X121270833Y-122954819D01*
X121270833Y-122954819D02*
X121127976Y-123002438D01*
X121127976Y-123002438D02*
X121080357Y-123050057D01*
X120747023Y-122954819D02*
X120127976Y-122954819D01*
X120127976Y-122954819D02*
X120461309Y-123335771D01*
X120461309Y-123335771D02*
X120318452Y-123335771D01*
X120318452Y-123335771D02*
X120223214Y-123383390D01*
X120223214Y-123383390D02*
X120175595Y-123431009D01*
X120175595Y-123431009D02*
X120127976Y-123526247D01*
X120127976Y-123526247D02*
X120127976Y-123764342D01*
X120127976Y-123764342D02*
X120175595Y-123859580D01*
X120175595Y-123859580D02*
X120223214Y-123907200D01*
X120223214Y-123907200D02*
X120318452Y-123954819D01*
X120318452Y-123954819D02*
X120604166Y-123954819D01*
X120604166Y-123954819D02*
X120699404Y-123907200D01*
X120699404Y-123907200D02*
X120747023Y-123859580D01*
X119508928Y-122954819D02*
X119413690Y-122954819D01*
X119413690Y-122954819D02*
X119318452Y-123002438D01*
X119318452Y-123002438D02*
X119270833Y-123050057D01*
X119270833Y-123050057D02*
X119223214Y-123145295D01*
X119223214Y-123145295D02*
X119175595Y-123335771D01*
X119175595Y-123335771D02*
X119175595Y-123573866D01*
X119175595Y-123573866D02*
X119223214Y-123764342D01*
X119223214Y-123764342D02*
X119270833Y-123859580D01*
X119270833Y-123859580D02*
X119318452Y-123907200D01*
X119318452Y-123907200D02*
X119413690Y-123954819D01*
X119413690Y-123954819D02*
X119508928Y-123954819D01*
X119508928Y-123954819D02*
X119604166Y-123907200D01*
X119604166Y-123907200D02*
X119651785Y-123859580D01*
X119651785Y-123859580D02*
X119699404Y-123764342D01*
X119699404Y-123764342D02*
X119747023Y-123573866D01*
X119747023Y-123573866D02*
X119747023Y-123335771D01*
X119747023Y-123335771D02*
X119699404Y-123145295D01*
X119699404Y-123145295D02*
X119651785Y-123050057D01*
X119651785Y-123050057D02*
X119604166Y-123002438D01*
X119604166Y-123002438D02*
X119508928Y-122954819D01*
D10*
%TO.C,R18*%
X133574318Y-117283571D02*
X132969556Y-116860237D01*
X133574318Y-116557856D02*
X132304318Y-116557856D01*
X132304318Y-116557856D02*
X132304318Y-117041666D01*
X132304318Y-117041666D02*
X132364794Y-117162618D01*
X132364794Y-117162618D02*
X132425270Y-117223095D01*
X132425270Y-117223095D02*
X132546222Y-117283571D01*
X132546222Y-117283571D02*
X132727651Y-117283571D01*
X132727651Y-117283571D02*
X132848603Y-117223095D01*
X132848603Y-117223095D02*
X132909080Y-117162618D01*
X132909080Y-117162618D02*
X132969556Y-117041666D01*
X132969556Y-117041666D02*
X132969556Y-116557856D01*
X133574318Y-118493095D02*
X133574318Y-117767380D01*
X133574318Y-118130237D02*
X132304318Y-118130237D01*
X132304318Y-118130237D02*
X132485746Y-118009285D01*
X132485746Y-118009285D02*
X132606699Y-117888333D01*
X132606699Y-117888333D02*
X132667175Y-117767380D01*
X132848603Y-119218809D02*
X132788127Y-119097857D01*
X132788127Y-119097857D02*
X132727651Y-119037380D01*
X132727651Y-119037380D02*
X132606699Y-118976904D01*
X132606699Y-118976904D02*
X132546222Y-118976904D01*
X132546222Y-118976904D02*
X132425270Y-119037380D01*
X132425270Y-119037380D02*
X132364794Y-119097857D01*
X132364794Y-119097857D02*
X132304318Y-119218809D01*
X132304318Y-119218809D02*
X132304318Y-119460714D01*
X132304318Y-119460714D02*
X132364794Y-119581666D01*
X132364794Y-119581666D02*
X132425270Y-119642142D01*
X132425270Y-119642142D02*
X132546222Y-119702619D01*
X132546222Y-119702619D02*
X132606699Y-119702619D01*
X132606699Y-119702619D02*
X132727651Y-119642142D01*
X132727651Y-119642142D02*
X132788127Y-119581666D01*
X132788127Y-119581666D02*
X132848603Y-119460714D01*
X132848603Y-119460714D02*
X132848603Y-119218809D01*
X132848603Y-119218809D02*
X132909080Y-119097857D01*
X132909080Y-119097857D02*
X132969556Y-119037380D01*
X132969556Y-119037380D02*
X133090508Y-118976904D01*
X133090508Y-118976904D02*
X133332413Y-118976904D01*
X133332413Y-118976904D02*
X133453365Y-119037380D01*
X133453365Y-119037380D02*
X133513842Y-119097857D01*
X133513842Y-119097857D02*
X133574318Y-119218809D01*
X133574318Y-119218809D02*
X133574318Y-119460714D01*
X133574318Y-119460714D02*
X133513842Y-119581666D01*
X133513842Y-119581666D02*
X133453365Y-119642142D01*
X133453365Y-119642142D02*
X133332413Y-119702619D01*
X133332413Y-119702619D02*
X133090508Y-119702619D01*
X133090508Y-119702619D02*
X132969556Y-119642142D01*
X132969556Y-119642142D02*
X132909080Y-119581666D01*
X132909080Y-119581666D02*
X132848603Y-119460714D01*
%TO.C,R26*%
X62516428Y-54861818D02*
X62939762Y-54257056D01*
X63242143Y-54861818D02*
X63242143Y-53591818D01*
X63242143Y-53591818D02*
X62758333Y-53591818D01*
X62758333Y-53591818D02*
X62637381Y-53652294D01*
X62637381Y-53652294D02*
X62576904Y-53712770D01*
X62576904Y-53712770D02*
X62516428Y-53833722D01*
X62516428Y-53833722D02*
X62516428Y-54015151D01*
X62516428Y-54015151D02*
X62576904Y-54136103D01*
X62576904Y-54136103D02*
X62637381Y-54196580D01*
X62637381Y-54196580D02*
X62758333Y-54257056D01*
X62758333Y-54257056D02*
X63242143Y-54257056D01*
X62032619Y-53712770D02*
X61972143Y-53652294D01*
X61972143Y-53652294D02*
X61851190Y-53591818D01*
X61851190Y-53591818D02*
X61548809Y-53591818D01*
X61548809Y-53591818D02*
X61427857Y-53652294D01*
X61427857Y-53652294D02*
X61367381Y-53712770D01*
X61367381Y-53712770D02*
X61306904Y-53833722D01*
X61306904Y-53833722D02*
X61306904Y-53954675D01*
X61306904Y-53954675D02*
X61367381Y-54136103D01*
X61367381Y-54136103D02*
X62093095Y-54861818D01*
X62093095Y-54861818D02*
X61306904Y-54861818D01*
X60218333Y-53591818D02*
X60460238Y-53591818D01*
X60460238Y-53591818D02*
X60581190Y-53652294D01*
X60581190Y-53652294D02*
X60641666Y-53712770D01*
X60641666Y-53712770D02*
X60762619Y-53894199D01*
X60762619Y-53894199D02*
X60823095Y-54136103D01*
X60823095Y-54136103D02*
X60823095Y-54619913D01*
X60823095Y-54619913D02*
X60762619Y-54740865D01*
X60762619Y-54740865D02*
X60702142Y-54801342D01*
X60702142Y-54801342D02*
X60581190Y-54861818D01*
X60581190Y-54861818D02*
X60339285Y-54861818D01*
X60339285Y-54861818D02*
X60218333Y-54801342D01*
X60218333Y-54801342D02*
X60157857Y-54740865D01*
X60157857Y-54740865D02*
X60097380Y-54619913D01*
X60097380Y-54619913D02*
X60097380Y-54317532D01*
X60097380Y-54317532D02*
X60157857Y-54196580D01*
X60157857Y-54196580D02*
X60218333Y-54136103D01*
X60218333Y-54136103D02*
X60339285Y-54075627D01*
X60339285Y-54075627D02*
X60581190Y-54075627D01*
X60581190Y-54075627D02*
X60702142Y-54136103D01*
X60702142Y-54136103D02*
X60762619Y-54196580D01*
X60762619Y-54196580D02*
X60823095Y-54317532D01*
D11*
%TO.C,C21*%
X121105357Y-72259580D02*
X121152976Y-72307200D01*
X121152976Y-72307200D02*
X121295833Y-72354819D01*
X121295833Y-72354819D02*
X121391071Y-72354819D01*
X121391071Y-72354819D02*
X121533928Y-72307200D01*
X121533928Y-72307200D02*
X121629166Y-72211961D01*
X121629166Y-72211961D02*
X121676785Y-72116723D01*
X121676785Y-72116723D02*
X121724404Y-71926247D01*
X121724404Y-71926247D02*
X121724404Y-71783390D01*
X121724404Y-71783390D02*
X121676785Y-71592914D01*
X121676785Y-71592914D02*
X121629166Y-71497676D01*
X121629166Y-71497676D02*
X121533928Y-71402438D01*
X121533928Y-71402438D02*
X121391071Y-71354819D01*
X121391071Y-71354819D02*
X121295833Y-71354819D01*
X121295833Y-71354819D02*
X121152976Y-71402438D01*
X121152976Y-71402438D02*
X121105357Y-71450057D01*
X120724404Y-71450057D02*
X120676785Y-71402438D01*
X120676785Y-71402438D02*
X120581547Y-71354819D01*
X120581547Y-71354819D02*
X120343452Y-71354819D01*
X120343452Y-71354819D02*
X120248214Y-71402438D01*
X120248214Y-71402438D02*
X120200595Y-71450057D01*
X120200595Y-71450057D02*
X120152976Y-71545295D01*
X120152976Y-71545295D02*
X120152976Y-71640533D01*
X120152976Y-71640533D02*
X120200595Y-71783390D01*
X120200595Y-71783390D02*
X120772023Y-72354819D01*
X120772023Y-72354819D02*
X120152976Y-72354819D01*
X119200595Y-72354819D02*
X119772023Y-72354819D01*
X119486309Y-72354819D02*
X119486309Y-71354819D01*
X119486309Y-71354819D02*
X119581547Y-71497676D01*
X119581547Y-71497676D02*
X119676785Y-71592914D01*
X119676785Y-71592914D02*
X119772023Y-71640533D01*
%TO.C,R8*%
X99295319Y-92143333D02*
X98819128Y-91810000D01*
X99295319Y-91571905D02*
X98295319Y-91571905D01*
X98295319Y-91571905D02*
X98295319Y-91952857D01*
X98295319Y-91952857D02*
X98342938Y-92048095D01*
X98342938Y-92048095D02*
X98390557Y-92095714D01*
X98390557Y-92095714D02*
X98485795Y-92143333D01*
X98485795Y-92143333D02*
X98628652Y-92143333D01*
X98628652Y-92143333D02*
X98723890Y-92095714D01*
X98723890Y-92095714D02*
X98771509Y-92048095D01*
X98771509Y-92048095D02*
X98819128Y-91952857D01*
X98819128Y-91952857D02*
X98819128Y-91571905D01*
X98723890Y-92714762D02*
X98676271Y-92619524D01*
X98676271Y-92619524D02*
X98628652Y-92571905D01*
X98628652Y-92571905D02*
X98533414Y-92524286D01*
X98533414Y-92524286D02*
X98485795Y-92524286D01*
X98485795Y-92524286D02*
X98390557Y-92571905D01*
X98390557Y-92571905D02*
X98342938Y-92619524D01*
X98342938Y-92619524D02*
X98295319Y-92714762D01*
X98295319Y-92714762D02*
X98295319Y-92905238D01*
X98295319Y-92905238D02*
X98342938Y-93000476D01*
X98342938Y-93000476D02*
X98390557Y-93048095D01*
X98390557Y-93048095D02*
X98485795Y-93095714D01*
X98485795Y-93095714D02*
X98533414Y-93095714D01*
X98533414Y-93095714D02*
X98628652Y-93048095D01*
X98628652Y-93048095D02*
X98676271Y-93000476D01*
X98676271Y-93000476D02*
X98723890Y-92905238D01*
X98723890Y-92905238D02*
X98723890Y-92714762D01*
X98723890Y-92714762D02*
X98771509Y-92619524D01*
X98771509Y-92619524D02*
X98819128Y-92571905D01*
X98819128Y-92571905D02*
X98914366Y-92524286D01*
X98914366Y-92524286D02*
X99104842Y-92524286D01*
X99104842Y-92524286D02*
X99200080Y-92571905D01*
X99200080Y-92571905D02*
X99247700Y-92619524D01*
X99247700Y-92619524D02*
X99295319Y-92714762D01*
X99295319Y-92714762D02*
X99295319Y-92905238D01*
X99295319Y-92905238D02*
X99247700Y-93000476D01*
X99247700Y-93000476D02*
X99200080Y-93048095D01*
X99200080Y-93048095D02*
X99104842Y-93095714D01*
X99104842Y-93095714D02*
X98914366Y-93095714D01*
X98914366Y-93095714D02*
X98819128Y-93048095D01*
X98819128Y-93048095D02*
X98771509Y-93000476D01*
X98771509Y-93000476D02*
X98723890Y-92905238D01*
%TO.C,C2*%
X109130080Y-83080833D02*
X109177700Y-83033214D01*
X109177700Y-83033214D02*
X109225319Y-82890357D01*
X109225319Y-82890357D02*
X109225319Y-82795119D01*
X109225319Y-82795119D02*
X109177700Y-82652262D01*
X109177700Y-82652262D02*
X109082461Y-82557024D01*
X109082461Y-82557024D02*
X108987223Y-82509405D01*
X108987223Y-82509405D02*
X108796747Y-82461786D01*
X108796747Y-82461786D02*
X108653890Y-82461786D01*
X108653890Y-82461786D02*
X108463414Y-82509405D01*
X108463414Y-82509405D02*
X108368176Y-82557024D01*
X108368176Y-82557024D02*
X108272938Y-82652262D01*
X108272938Y-82652262D02*
X108225319Y-82795119D01*
X108225319Y-82795119D02*
X108225319Y-82890357D01*
X108225319Y-82890357D02*
X108272938Y-83033214D01*
X108272938Y-83033214D02*
X108320557Y-83080833D01*
X108320557Y-83461786D02*
X108272938Y-83509405D01*
X108272938Y-83509405D02*
X108225319Y-83604643D01*
X108225319Y-83604643D02*
X108225319Y-83842738D01*
X108225319Y-83842738D02*
X108272938Y-83937976D01*
X108272938Y-83937976D02*
X108320557Y-83985595D01*
X108320557Y-83985595D02*
X108415795Y-84033214D01*
X108415795Y-84033214D02*
X108511033Y-84033214D01*
X108511033Y-84033214D02*
X108653890Y-83985595D01*
X108653890Y-83985595D02*
X109225319Y-83414167D01*
X109225319Y-83414167D02*
X109225319Y-84033214D01*
%TO.C,C24*%
X72842857Y-81659580D02*
X72890476Y-81707200D01*
X72890476Y-81707200D02*
X73033333Y-81754819D01*
X73033333Y-81754819D02*
X73128571Y-81754819D01*
X73128571Y-81754819D02*
X73271428Y-81707200D01*
X73271428Y-81707200D02*
X73366666Y-81611961D01*
X73366666Y-81611961D02*
X73414285Y-81516723D01*
X73414285Y-81516723D02*
X73461904Y-81326247D01*
X73461904Y-81326247D02*
X73461904Y-81183390D01*
X73461904Y-81183390D02*
X73414285Y-80992914D01*
X73414285Y-80992914D02*
X73366666Y-80897676D01*
X73366666Y-80897676D02*
X73271428Y-80802438D01*
X73271428Y-80802438D02*
X73128571Y-80754819D01*
X73128571Y-80754819D02*
X73033333Y-80754819D01*
X73033333Y-80754819D02*
X72890476Y-80802438D01*
X72890476Y-80802438D02*
X72842857Y-80850057D01*
X72461904Y-80850057D02*
X72414285Y-80802438D01*
X72414285Y-80802438D02*
X72319047Y-80754819D01*
X72319047Y-80754819D02*
X72080952Y-80754819D01*
X72080952Y-80754819D02*
X71985714Y-80802438D01*
X71985714Y-80802438D02*
X71938095Y-80850057D01*
X71938095Y-80850057D02*
X71890476Y-80945295D01*
X71890476Y-80945295D02*
X71890476Y-81040533D01*
X71890476Y-81040533D02*
X71938095Y-81183390D01*
X71938095Y-81183390D02*
X72509523Y-81754819D01*
X72509523Y-81754819D02*
X71890476Y-81754819D01*
X71033333Y-81088152D02*
X71033333Y-81754819D01*
X71271428Y-80707200D02*
X71509523Y-81421485D01*
X71509523Y-81421485D02*
X70890476Y-81421485D01*
%TO.C,C35*%
X64409580Y-112357142D02*
X64457200Y-112309523D01*
X64457200Y-112309523D02*
X64504819Y-112166666D01*
X64504819Y-112166666D02*
X64504819Y-112071428D01*
X64504819Y-112071428D02*
X64457200Y-111928571D01*
X64457200Y-111928571D02*
X64361961Y-111833333D01*
X64361961Y-111833333D02*
X64266723Y-111785714D01*
X64266723Y-111785714D02*
X64076247Y-111738095D01*
X64076247Y-111738095D02*
X63933390Y-111738095D01*
X63933390Y-111738095D02*
X63742914Y-111785714D01*
X63742914Y-111785714D02*
X63647676Y-111833333D01*
X63647676Y-111833333D02*
X63552438Y-111928571D01*
X63552438Y-111928571D02*
X63504819Y-112071428D01*
X63504819Y-112071428D02*
X63504819Y-112166666D01*
X63504819Y-112166666D02*
X63552438Y-112309523D01*
X63552438Y-112309523D02*
X63600057Y-112357142D01*
X63504819Y-112690476D02*
X63504819Y-113309523D01*
X63504819Y-113309523D02*
X63885771Y-112976190D01*
X63885771Y-112976190D02*
X63885771Y-113119047D01*
X63885771Y-113119047D02*
X63933390Y-113214285D01*
X63933390Y-113214285D02*
X63981009Y-113261904D01*
X63981009Y-113261904D02*
X64076247Y-113309523D01*
X64076247Y-113309523D02*
X64314342Y-113309523D01*
X64314342Y-113309523D02*
X64409580Y-113261904D01*
X64409580Y-113261904D02*
X64457200Y-113214285D01*
X64457200Y-113214285D02*
X64504819Y-113119047D01*
X64504819Y-113119047D02*
X64504819Y-112833333D01*
X64504819Y-112833333D02*
X64457200Y-112738095D01*
X64457200Y-112738095D02*
X64409580Y-112690476D01*
X63504819Y-114214285D02*
X63504819Y-113738095D01*
X63504819Y-113738095D02*
X63981009Y-113690476D01*
X63981009Y-113690476D02*
X63933390Y-113738095D01*
X63933390Y-113738095D02*
X63885771Y-113833333D01*
X63885771Y-113833333D02*
X63885771Y-114071428D01*
X63885771Y-114071428D02*
X63933390Y-114166666D01*
X63933390Y-114166666D02*
X63981009Y-114214285D01*
X63981009Y-114214285D02*
X64076247Y-114261904D01*
X64076247Y-114261904D02*
X64314342Y-114261904D01*
X64314342Y-114261904D02*
X64409580Y-114214285D01*
X64409580Y-114214285D02*
X64457200Y-114166666D01*
X64457200Y-114166666D02*
X64504819Y-114071428D01*
X64504819Y-114071428D02*
X64504819Y-113833333D01*
X64504819Y-113833333D02*
X64457200Y-113738095D01*
X64457200Y-113738095D02*
X64409580Y-113690476D01*
D10*
%TO.C,R11*%
X90402028Y-108204318D02*
X90825362Y-107599556D01*
X91127743Y-108204318D02*
X91127743Y-106934318D01*
X91127743Y-106934318D02*
X90643933Y-106934318D01*
X90643933Y-106934318D02*
X90522981Y-106994794D01*
X90522981Y-106994794D02*
X90462504Y-107055270D01*
X90462504Y-107055270D02*
X90402028Y-107176222D01*
X90402028Y-107176222D02*
X90402028Y-107357651D01*
X90402028Y-107357651D02*
X90462504Y-107478603D01*
X90462504Y-107478603D02*
X90522981Y-107539080D01*
X90522981Y-107539080D02*
X90643933Y-107599556D01*
X90643933Y-107599556D02*
X91127743Y-107599556D01*
X89192504Y-108204318D02*
X89918219Y-108204318D01*
X89555362Y-108204318D02*
X89555362Y-106934318D01*
X89555362Y-106934318D02*
X89676314Y-107115746D01*
X89676314Y-107115746D02*
X89797266Y-107236699D01*
X89797266Y-107236699D02*
X89918219Y-107297175D01*
X87982980Y-108204318D02*
X88708695Y-108204318D01*
X88345838Y-108204318D02*
X88345838Y-106934318D01*
X88345838Y-106934318D02*
X88466790Y-107115746D01*
X88466790Y-107115746D02*
X88587742Y-107236699D01*
X88587742Y-107236699D02*
X88708695Y-107297175D01*
D11*
%TO.C,C26*%
X63242857Y-123259580D02*
X63290476Y-123307200D01*
X63290476Y-123307200D02*
X63433333Y-123354819D01*
X63433333Y-123354819D02*
X63528571Y-123354819D01*
X63528571Y-123354819D02*
X63671428Y-123307200D01*
X63671428Y-123307200D02*
X63766666Y-123211961D01*
X63766666Y-123211961D02*
X63814285Y-123116723D01*
X63814285Y-123116723D02*
X63861904Y-122926247D01*
X63861904Y-122926247D02*
X63861904Y-122783390D01*
X63861904Y-122783390D02*
X63814285Y-122592914D01*
X63814285Y-122592914D02*
X63766666Y-122497676D01*
X63766666Y-122497676D02*
X63671428Y-122402438D01*
X63671428Y-122402438D02*
X63528571Y-122354819D01*
X63528571Y-122354819D02*
X63433333Y-122354819D01*
X63433333Y-122354819D02*
X63290476Y-122402438D01*
X63290476Y-122402438D02*
X63242857Y-122450057D01*
X62861904Y-122450057D02*
X62814285Y-122402438D01*
X62814285Y-122402438D02*
X62719047Y-122354819D01*
X62719047Y-122354819D02*
X62480952Y-122354819D01*
X62480952Y-122354819D02*
X62385714Y-122402438D01*
X62385714Y-122402438D02*
X62338095Y-122450057D01*
X62338095Y-122450057D02*
X62290476Y-122545295D01*
X62290476Y-122545295D02*
X62290476Y-122640533D01*
X62290476Y-122640533D02*
X62338095Y-122783390D01*
X62338095Y-122783390D02*
X62909523Y-123354819D01*
X62909523Y-123354819D02*
X62290476Y-123354819D01*
X61433333Y-122354819D02*
X61623809Y-122354819D01*
X61623809Y-122354819D02*
X61719047Y-122402438D01*
X61719047Y-122402438D02*
X61766666Y-122450057D01*
X61766666Y-122450057D02*
X61861904Y-122592914D01*
X61861904Y-122592914D02*
X61909523Y-122783390D01*
X61909523Y-122783390D02*
X61909523Y-123164342D01*
X61909523Y-123164342D02*
X61861904Y-123259580D01*
X61861904Y-123259580D02*
X61814285Y-123307200D01*
X61814285Y-123307200D02*
X61719047Y-123354819D01*
X61719047Y-123354819D02*
X61528571Y-123354819D01*
X61528571Y-123354819D02*
X61433333Y-123307200D01*
X61433333Y-123307200D02*
X61385714Y-123259580D01*
X61385714Y-123259580D02*
X61338095Y-123164342D01*
X61338095Y-123164342D02*
X61338095Y-122926247D01*
X61338095Y-122926247D02*
X61385714Y-122831009D01*
X61385714Y-122831009D02*
X61433333Y-122783390D01*
X61433333Y-122783390D02*
X61528571Y-122735771D01*
X61528571Y-122735771D02*
X61719047Y-122735771D01*
X61719047Y-122735771D02*
X61814285Y-122783390D01*
X61814285Y-122783390D02*
X61861904Y-122831009D01*
X61861904Y-122831009D02*
X61909523Y-122926247D01*
D10*
%TO.C,R3*%
X47574318Y-60313333D02*
X46969556Y-59889999D01*
X47574318Y-59587618D02*
X46304318Y-59587618D01*
X46304318Y-59587618D02*
X46304318Y-60071428D01*
X46304318Y-60071428D02*
X46364794Y-60192380D01*
X46364794Y-60192380D02*
X46425270Y-60252857D01*
X46425270Y-60252857D02*
X46546222Y-60313333D01*
X46546222Y-60313333D02*
X46727651Y-60313333D01*
X46727651Y-60313333D02*
X46848603Y-60252857D01*
X46848603Y-60252857D02*
X46909080Y-60192380D01*
X46909080Y-60192380D02*
X46969556Y-60071428D01*
X46969556Y-60071428D02*
X46969556Y-59587618D01*
X46304318Y-60736666D02*
X46304318Y-61522857D01*
X46304318Y-61522857D02*
X46788127Y-61099523D01*
X46788127Y-61099523D02*
X46788127Y-61280952D01*
X46788127Y-61280952D02*
X46848603Y-61401904D01*
X46848603Y-61401904D02*
X46909080Y-61462380D01*
X46909080Y-61462380D02*
X47030032Y-61522857D01*
X47030032Y-61522857D02*
X47332413Y-61522857D01*
X47332413Y-61522857D02*
X47453365Y-61462380D01*
X47453365Y-61462380D02*
X47513842Y-61401904D01*
X47513842Y-61401904D02*
X47574318Y-61280952D01*
X47574318Y-61280952D02*
X47574318Y-60918095D01*
X47574318Y-60918095D02*
X47513842Y-60797142D01*
X47513842Y-60797142D02*
X47453365Y-60736666D01*
%TO.C,R19*%
X132974318Y-63933571D02*
X132369556Y-63510237D01*
X132974318Y-63207856D02*
X131704318Y-63207856D01*
X131704318Y-63207856D02*
X131704318Y-63691666D01*
X131704318Y-63691666D02*
X131764794Y-63812618D01*
X131764794Y-63812618D02*
X131825270Y-63873095D01*
X131825270Y-63873095D02*
X131946222Y-63933571D01*
X131946222Y-63933571D02*
X132127651Y-63933571D01*
X132127651Y-63933571D02*
X132248603Y-63873095D01*
X132248603Y-63873095D02*
X132309080Y-63812618D01*
X132309080Y-63812618D02*
X132369556Y-63691666D01*
X132369556Y-63691666D02*
X132369556Y-63207856D01*
X132974318Y-65143095D02*
X132974318Y-64417380D01*
X132974318Y-64780237D02*
X131704318Y-64780237D01*
X131704318Y-64780237D02*
X131885746Y-64659285D01*
X131885746Y-64659285D02*
X132006699Y-64538333D01*
X132006699Y-64538333D02*
X132067175Y-64417380D01*
X132974318Y-65747857D02*
X132974318Y-65989761D01*
X132974318Y-65989761D02*
X132913842Y-66110714D01*
X132913842Y-66110714D02*
X132853365Y-66171190D01*
X132853365Y-66171190D02*
X132671937Y-66292142D01*
X132671937Y-66292142D02*
X132430032Y-66352619D01*
X132430032Y-66352619D02*
X131946222Y-66352619D01*
X131946222Y-66352619D02*
X131825270Y-66292142D01*
X131825270Y-66292142D02*
X131764794Y-66231666D01*
X131764794Y-66231666D02*
X131704318Y-66110714D01*
X131704318Y-66110714D02*
X131704318Y-65868809D01*
X131704318Y-65868809D02*
X131764794Y-65747857D01*
X131764794Y-65747857D02*
X131825270Y-65687380D01*
X131825270Y-65687380D02*
X131946222Y-65626904D01*
X131946222Y-65626904D02*
X132248603Y-65626904D01*
X132248603Y-65626904D02*
X132369556Y-65687380D01*
X132369556Y-65687380D02*
X132430032Y-65747857D01*
X132430032Y-65747857D02*
X132490508Y-65868809D01*
X132490508Y-65868809D02*
X132490508Y-66110714D01*
X132490508Y-66110714D02*
X132430032Y-66231666D01*
X132430032Y-66231666D02*
X132369556Y-66292142D01*
X132369556Y-66292142D02*
X132248603Y-66352619D01*
%TO.C,R12*%
X97402028Y-108204318D02*
X97825362Y-107599556D01*
X98127743Y-108204318D02*
X98127743Y-106934318D01*
X98127743Y-106934318D02*
X97643933Y-106934318D01*
X97643933Y-106934318D02*
X97522981Y-106994794D01*
X97522981Y-106994794D02*
X97462504Y-107055270D01*
X97462504Y-107055270D02*
X97402028Y-107176222D01*
X97402028Y-107176222D02*
X97402028Y-107357651D01*
X97402028Y-107357651D02*
X97462504Y-107478603D01*
X97462504Y-107478603D02*
X97522981Y-107539080D01*
X97522981Y-107539080D02*
X97643933Y-107599556D01*
X97643933Y-107599556D02*
X98127743Y-107599556D01*
X96192504Y-108204318D02*
X96918219Y-108204318D01*
X96555362Y-108204318D02*
X96555362Y-106934318D01*
X96555362Y-106934318D02*
X96676314Y-107115746D01*
X96676314Y-107115746D02*
X96797266Y-107236699D01*
X96797266Y-107236699D02*
X96918219Y-107297175D01*
X95708695Y-107055270D02*
X95648219Y-106994794D01*
X95648219Y-106994794D02*
X95527266Y-106934318D01*
X95527266Y-106934318D02*
X95224885Y-106934318D01*
X95224885Y-106934318D02*
X95103933Y-106994794D01*
X95103933Y-106994794D02*
X95043457Y-107055270D01*
X95043457Y-107055270D02*
X94982980Y-107176222D01*
X94982980Y-107176222D02*
X94982980Y-107297175D01*
X94982980Y-107297175D02*
X95043457Y-107478603D01*
X95043457Y-107478603D02*
X95769171Y-108204318D01*
X95769171Y-108204318D02*
X94982980Y-108204318D01*
D11*
%TO.C,C31*%
X123509580Y-112494642D02*
X123557200Y-112447023D01*
X123557200Y-112447023D02*
X123604819Y-112304166D01*
X123604819Y-112304166D02*
X123604819Y-112208928D01*
X123604819Y-112208928D02*
X123557200Y-112066071D01*
X123557200Y-112066071D02*
X123461961Y-111970833D01*
X123461961Y-111970833D02*
X123366723Y-111923214D01*
X123366723Y-111923214D02*
X123176247Y-111875595D01*
X123176247Y-111875595D02*
X123033390Y-111875595D01*
X123033390Y-111875595D02*
X122842914Y-111923214D01*
X122842914Y-111923214D02*
X122747676Y-111970833D01*
X122747676Y-111970833D02*
X122652438Y-112066071D01*
X122652438Y-112066071D02*
X122604819Y-112208928D01*
X122604819Y-112208928D02*
X122604819Y-112304166D01*
X122604819Y-112304166D02*
X122652438Y-112447023D01*
X122652438Y-112447023D02*
X122700057Y-112494642D01*
X122604819Y-112827976D02*
X122604819Y-113447023D01*
X122604819Y-113447023D02*
X122985771Y-113113690D01*
X122985771Y-113113690D02*
X122985771Y-113256547D01*
X122985771Y-113256547D02*
X123033390Y-113351785D01*
X123033390Y-113351785D02*
X123081009Y-113399404D01*
X123081009Y-113399404D02*
X123176247Y-113447023D01*
X123176247Y-113447023D02*
X123414342Y-113447023D01*
X123414342Y-113447023D02*
X123509580Y-113399404D01*
X123509580Y-113399404D02*
X123557200Y-113351785D01*
X123557200Y-113351785D02*
X123604819Y-113256547D01*
X123604819Y-113256547D02*
X123604819Y-112970833D01*
X123604819Y-112970833D02*
X123557200Y-112875595D01*
X123557200Y-112875595D02*
X123509580Y-112827976D01*
X123604819Y-114399404D02*
X123604819Y-113827976D01*
X123604819Y-114113690D02*
X122604819Y-114113690D01*
X122604819Y-114113690D02*
X122747676Y-114018452D01*
X122747676Y-114018452D02*
X122842914Y-113923214D01*
X122842914Y-113923214D02*
X122890533Y-113827976D01*
%TO.C,C28*%
X121209580Y-114694642D02*
X121257200Y-114647023D01*
X121257200Y-114647023D02*
X121304819Y-114504166D01*
X121304819Y-114504166D02*
X121304819Y-114408928D01*
X121304819Y-114408928D02*
X121257200Y-114266071D01*
X121257200Y-114266071D02*
X121161961Y-114170833D01*
X121161961Y-114170833D02*
X121066723Y-114123214D01*
X121066723Y-114123214D02*
X120876247Y-114075595D01*
X120876247Y-114075595D02*
X120733390Y-114075595D01*
X120733390Y-114075595D02*
X120542914Y-114123214D01*
X120542914Y-114123214D02*
X120447676Y-114170833D01*
X120447676Y-114170833D02*
X120352438Y-114266071D01*
X120352438Y-114266071D02*
X120304819Y-114408928D01*
X120304819Y-114408928D02*
X120304819Y-114504166D01*
X120304819Y-114504166D02*
X120352438Y-114647023D01*
X120352438Y-114647023D02*
X120400057Y-114694642D01*
X120400057Y-115075595D02*
X120352438Y-115123214D01*
X120352438Y-115123214D02*
X120304819Y-115218452D01*
X120304819Y-115218452D02*
X120304819Y-115456547D01*
X120304819Y-115456547D02*
X120352438Y-115551785D01*
X120352438Y-115551785D02*
X120400057Y-115599404D01*
X120400057Y-115599404D02*
X120495295Y-115647023D01*
X120495295Y-115647023D02*
X120590533Y-115647023D01*
X120590533Y-115647023D02*
X120733390Y-115599404D01*
X120733390Y-115599404D02*
X121304819Y-115027976D01*
X121304819Y-115027976D02*
X121304819Y-115647023D01*
X120733390Y-116218452D02*
X120685771Y-116123214D01*
X120685771Y-116123214D02*
X120638152Y-116075595D01*
X120638152Y-116075595D02*
X120542914Y-116027976D01*
X120542914Y-116027976D02*
X120495295Y-116027976D01*
X120495295Y-116027976D02*
X120400057Y-116075595D01*
X120400057Y-116075595D02*
X120352438Y-116123214D01*
X120352438Y-116123214D02*
X120304819Y-116218452D01*
X120304819Y-116218452D02*
X120304819Y-116408928D01*
X120304819Y-116408928D02*
X120352438Y-116504166D01*
X120352438Y-116504166D02*
X120400057Y-116551785D01*
X120400057Y-116551785D02*
X120495295Y-116599404D01*
X120495295Y-116599404D02*
X120542914Y-116599404D01*
X120542914Y-116599404D02*
X120638152Y-116551785D01*
X120638152Y-116551785D02*
X120685771Y-116504166D01*
X120685771Y-116504166D02*
X120733390Y-116408928D01*
X120733390Y-116408928D02*
X120733390Y-116218452D01*
X120733390Y-116218452D02*
X120781009Y-116123214D01*
X120781009Y-116123214D02*
X120828628Y-116075595D01*
X120828628Y-116075595D02*
X120923866Y-116027976D01*
X120923866Y-116027976D02*
X121114342Y-116027976D01*
X121114342Y-116027976D02*
X121209580Y-116075595D01*
X121209580Y-116075595D02*
X121257200Y-116123214D01*
X121257200Y-116123214D02*
X121304819Y-116218452D01*
X121304819Y-116218452D02*
X121304819Y-116408928D01*
X121304819Y-116408928D02*
X121257200Y-116504166D01*
X121257200Y-116504166D02*
X121209580Y-116551785D01*
X121209580Y-116551785D02*
X121114342Y-116599404D01*
X121114342Y-116599404D02*
X120923866Y-116599404D01*
X120923866Y-116599404D02*
X120828628Y-116551785D01*
X120828628Y-116551785D02*
X120781009Y-116504166D01*
X120781009Y-116504166D02*
X120733390Y-116408928D01*
D12*
%TO.C,R2*%
X39850000Y-117800000D02*
G75*
G03*
X39850000Y-117800000I-50000J0D01*
G01*
%TO.C,R5*%
X61100000Y-107875000D02*
X61100000Y-106525000D01*
D13*
%TO.C,C36*%
X58765000Y-117847500D02*
X58765000Y-113762500D01*
X60635000Y-117847500D02*
X58765000Y-117847500D01*
X60635000Y-113762500D02*
X60635000Y-117847500D01*
%TO.C,C39*%
X61965000Y-62210000D02*
X61965000Y-58125000D01*
X63835000Y-62210000D02*
X61965000Y-62210000D01*
X63835000Y-58125000D02*
X63835000Y-62210000D01*
%TO.C,C22*%
X118365000Y-66085000D02*
X118365000Y-62000000D01*
X120235000Y-66085000D02*
X118365000Y-66085000D01*
X120235000Y-62000000D02*
X120235000Y-66085000D01*
%TO.C,C38*%
X57215000Y-65277500D02*
X65250000Y-65277500D01*
X57215000Y-69297500D02*
X57215000Y-65277500D01*
X65250000Y-69297500D02*
X57215000Y-69297500D01*
%TO.C,C25*%
X135147500Y-113810000D02*
X127112500Y-113810000D01*
X135147500Y-109790000D02*
X135147500Y-113810000D01*
X127112500Y-109790000D02*
X135147500Y-109790000D01*
%TO.C,C34*%
X57335000Y-92610000D02*
X65370000Y-92610000D01*
X57335000Y-96630000D02*
X57335000Y-92610000D01*
X65370000Y-96630000D02*
X57335000Y-96630000D01*
%TO.C,R6*%
X94990500Y-79577621D02*
X94990500Y-79242379D01*
X95750500Y-79577621D02*
X95750500Y-79242379D01*
D12*
%TO.C,R1*%
X43250000Y-91950000D02*
G75*
G03*
X43250000Y-91950000I-50000J0D01*
G01*
D13*
%TO.C,R28*%
X97950500Y-79272379D02*
X97950500Y-79607621D01*
X97190500Y-79272379D02*
X97190500Y-79607621D01*
%TO.C,C27*%
X120665000Y-63747500D02*
X120665000Y-59662500D01*
X122535000Y-63747500D02*
X120665000Y-63747500D01*
X122535000Y-59662500D02*
X122535000Y-63747500D01*
%TO.C,C37*%
X76785000Y-59135000D02*
X68750000Y-59135000D01*
X76785000Y-55115000D02*
X76785000Y-59135000D01*
X68750000Y-55115000D02*
X76785000Y-55115000D01*
D12*
%TO.C,R4*%
X61820000Y-82295000D02*
X61820000Y-80945000D01*
D14*
%TO.C,R10*%
X100111200Y-65317400D02*
X100365200Y-65317400D01*
X100365200Y-66282600D02*
X100111200Y-66282600D01*
D13*
%TO.C,R7*%
X95550500Y-92112379D02*
X95550500Y-92447621D01*
X94790500Y-92112379D02*
X94790500Y-92447621D01*
%TO.C,C1*%
X86660500Y-91695000D02*
X86660500Y-83660000D01*
X90680500Y-91695000D02*
X86660500Y-91695000D01*
X90680500Y-83660000D02*
X90680500Y-91695000D01*
%TO.C,C29*%
X135285000Y-60510000D02*
X127250000Y-60510000D01*
X135285000Y-56490000D02*
X135285000Y-60510000D01*
X127250000Y-56490000D02*
X135285000Y-56490000D01*
D14*
%TO.C,R9*%
X92811200Y-65317400D02*
X93065200Y-65317400D01*
X93065200Y-66282600D02*
X92811200Y-66282600D01*
D13*
%TO.C,C33*%
X75785000Y-111810000D02*
X67750000Y-111810000D01*
X75785000Y-107790000D02*
X75785000Y-111810000D01*
X67750000Y-107790000D02*
X75785000Y-107790000D01*
%TO.C,C4*%
X96935500Y-87295000D02*
X96935500Y-83210000D01*
X98805500Y-87295000D02*
X96935500Y-87295000D01*
X98805500Y-83210000D02*
X98805500Y-87295000D01*
D12*
%TO.C,R20*%
X120400000Y-56075000D02*
X120400000Y-54725000D01*
D13*
%TO.C,C40*%
X59485000Y-92105000D02*
X59485000Y-88020000D01*
X61355000Y-92105000D02*
X59485000Y-92105000D01*
X61355000Y-88020000D02*
X61355000Y-92105000D01*
%TO.C,C3*%
X96105500Y-82287500D02*
X96105500Y-86372500D01*
X94235500Y-82287500D02*
X96105500Y-82287500D01*
X94235500Y-86372500D02*
X94235500Y-82287500D01*
%TO.C,C23*%
X62285000Y-89705000D02*
X62285000Y-85620000D01*
X64155000Y-89705000D02*
X62285000Y-89705000D01*
X64155000Y-85620000D02*
X64155000Y-89705000D01*
%TO.C,C32*%
X59365000Y-64610000D02*
X59365000Y-60525000D01*
X61235000Y-64610000D02*
X59365000Y-64610000D01*
X61235000Y-60525000D02*
X61235000Y-64610000D01*
D12*
%TO.C,R14*%
X120250000Y-108075000D02*
X120250000Y-106725000D01*
D13*
%TO.C,C30*%
X115952500Y-118790000D02*
X123987500Y-118790000D01*
X115952500Y-122810000D02*
X115952500Y-118790000D01*
X123987500Y-122810000D02*
X115952500Y-122810000D01*
D12*
%TO.C,R26*%
X61700000Y-54962500D02*
X61700000Y-53612500D01*
D13*
%TO.C,C21*%
X115977500Y-67190000D02*
X124012500Y-67190000D01*
X115977500Y-71210000D02*
X115977500Y-67190000D01*
X124012500Y-71210000D02*
X115977500Y-71210000D01*
%TO.C,R8*%
X97290500Y-92477621D02*
X97290500Y-92142379D01*
X98050500Y-92477621D02*
X98050500Y-92142379D01*
%TO.C,C2*%
X104060500Y-87732500D02*
X104060500Y-79697500D01*
X108080500Y-87732500D02*
X104060500Y-87732500D01*
X108080500Y-79697500D02*
X108080500Y-87732500D01*
%TO.C,C24*%
X76685000Y-86010000D02*
X68650000Y-86010000D01*
X76685000Y-81990000D02*
X76685000Y-86010000D01*
X68650000Y-81990000D02*
X76685000Y-81990000D01*
%TO.C,C35*%
X61365000Y-115485000D02*
X61365000Y-111400000D01*
X63235000Y-115485000D02*
X61365000Y-115485000D01*
X63235000Y-111400000D02*
X63235000Y-115485000D01*
D14*
%TO.C,R11*%
X92913000Y-105877400D02*
X93167000Y-105877400D01*
X93167000Y-106842600D02*
X92913000Y-106842600D01*
D13*
%TO.C,C26*%
X58115000Y-118190000D02*
X66150000Y-118190000D01*
X58115000Y-122210000D02*
X58115000Y-118190000D01*
X66150000Y-122210000D02*
X58115000Y-122210000D01*
D12*
%TO.C,R3*%
X47050000Y-65200000D02*
G75*
G03*
X47050000Y-65200000I-50000J0D01*
G01*
D14*
%TO.C,R12*%
X99913000Y-105877400D02*
X100167000Y-105877400D01*
X100167000Y-106842600D02*
X99913000Y-106842600D01*
D13*
%TO.C,C31*%
X120465000Y-115622500D02*
X120465000Y-111537500D01*
X122335000Y-115622500D02*
X120465000Y-115622500D01*
X122335000Y-111537500D02*
X122335000Y-115622500D01*
%TO.C,C28*%
X118165000Y-117822500D02*
X118165000Y-113737500D01*
X120035000Y-117822500D02*
X118165000Y-117822500D01*
X120035000Y-113737500D02*
X120035000Y-117822500D01*
%TD*%
M02*
