%TF.GenerationSoftware,KiCad,Pcbnew,7.0.5*%
%TF.CreationDate,2023-07-31T13:29:29+02:00*%
%TF.ProjectId,Byaxon_2D_V1,42796178-6f6e-45f3-9244-5f56312e6b69,rev?*%
%TF.SameCoordinates,Original*%
%TF.FileFunction,Legend,Top*%
%TF.FilePolarity,Positive*%
%FSLAX46Y46*%
G04 Gerber Fmt 4.6, Leading zero omitted, Abs format (unit mm)*
G04 Created by KiCad (PCBNEW 7.0.5) date 2023-07-31 13:29:29*
%MOMM*%
%LPD*%
G01*
G04 APERTURE LIST*
%ADD10C,0.150000*%
%ADD11C,0.254000*%
%ADD12C,0.120000*%
%ADD13C,0.200000*%
G04 APERTURE END LIST*
D10*
%TO.C,INA217_9*%
X117071905Y-107284819D02*
X117071905Y-106284819D01*
X117548095Y-107284819D02*
X117548095Y-106284819D01*
X117548095Y-106284819D02*
X118119523Y-107284819D01*
X118119523Y-107284819D02*
X118119523Y-106284819D01*
X118548095Y-106999104D02*
X119024285Y-106999104D01*
X118452857Y-107284819D02*
X118786190Y-106284819D01*
X118786190Y-106284819D02*
X119119523Y-107284819D01*
X119405238Y-106380057D02*
X119452857Y-106332438D01*
X119452857Y-106332438D02*
X119548095Y-106284819D01*
X119548095Y-106284819D02*
X119786190Y-106284819D01*
X119786190Y-106284819D02*
X119881428Y-106332438D01*
X119881428Y-106332438D02*
X119929047Y-106380057D01*
X119929047Y-106380057D02*
X119976666Y-106475295D01*
X119976666Y-106475295D02*
X119976666Y-106570533D01*
X119976666Y-106570533D02*
X119929047Y-106713390D01*
X119929047Y-106713390D02*
X119357619Y-107284819D01*
X119357619Y-107284819D02*
X119976666Y-107284819D01*
X120929047Y-107284819D02*
X120357619Y-107284819D01*
X120643333Y-107284819D02*
X120643333Y-106284819D01*
X120643333Y-106284819D02*
X120548095Y-106427676D01*
X120548095Y-106427676D02*
X120452857Y-106522914D01*
X120452857Y-106522914D02*
X120357619Y-106570533D01*
X121262381Y-106284819D02*
X121929047Y-106284819D01*
X121929047Y-106284819D02*
X121500476Y-107284819D01*
X122071905Y-107380057D02*
X122833809Y-107380057D01*
X123119524Y-107284819D02*
X123310000Y-107284819D01*
X123310000Y-107284819D02*
X123405238Y-107237200D01*
X123405238Y-107237200D02*
X123452857Y-107189580D01*
X123452857Y-107189580D02*
X123548095Y-107046723D01*
X123548095Y-107046723D02*
X123595714Y-106856247D01*
X123595714Y-106856247D02*
X123595714Y-106475295D01*
X123595714Y-106475295D02*
X123548095Y-106380057D01*
X123548095Y-106380057D02*
X123500476Y-106332438D01*
X123500476Y-106332438D02*
X123405238Y-106284819D01*
X123405238Y-106284819D02*
X123214762Y-106284819D01*
X123214762Y-106284819D02*
X123119524Y-106332438D01*
X123119524Y-106332438D02*
X123071905Y-106380057D01*
X123071905Y-106380057D02*
X123024286Y-106475295D01*
X123024286Y-106475295D02*
X123024286Y-106713390D01*
X123024286Y-106713390D02*
X123071905Y-106808628D01*
X123071905Y-106808628D02*
X123119524Y-106856247D01*
X123119524Y-106856247D02*
X123214762Y-106903866D01*
X123214762Y-106903866D02*
X123405238Y-106903866D01*
X123405238Y-106903866D02*
X123500476Y-106856247D01*
X123500476Y-106856247D02*
X123548095Y-106808628D01*
X123548095Y-106808628D02*
X123595714Y-106713390D01*
%TO.C,J6*%
X65366666Y-53154819D02*
X65366666Y-53869104D01*
X65366666Y-53869104D02*
X65319047Y-54011961D01*
X65319047Y-54011961D02*
X65223809Y-54107200D01*
X65223809Y-54107200D02*
X65080952Y-54154819D01*
X65080952Y-54154819D02*
X64985714Y-54154819D01*
X66271428Y-53154819D02*
X66080952Y-53154819D01*
X66080952Y-53154819D02*
X65985714Y-53202438D01*
X65985714Y-53202438D02*
X65938095Y-53250057D01*
X65938095Y-53250057D02*
X65842857Y-53392914D01*
X65842857Y-53392914D02*
X65795238Y-53583390D01*
X65795238Y-53583390D02*
X65795238Y-53964342D01*
X65795238Y-53964342D02*
X65842857Y-54059580D01*
X65842857Y-54059580D02*
X65890476Y-54107200D01*
X65890476Y-54107200D02*
X65985714Y-54154819D01*
X65985714Y-54154819D02*
X66176190Y-54154819D01*
X66176190Y-54154819D02*
X66271428Y-54107200D01*
X66271428Y-54107200D02*
X66319047Y-54059580D01*
X66319047Y-54059580D02*
X66366666Y-53964342D01*
X66366666Y-53964342D02*
X66366666Y-53726247D01*
X66366666Y-53726247D02*
X66319047Y-53631009D01*
X66319047Y-53631009D02*
X66271428Y-53583390D01*
X66271428Y-53583390D02*
X66176190Y-53535771D01*
X66176190Y-53535771D02*
X65985714Y-53535771D01*
X65985714Y-53535771D02*
X65890476Y-53583390D01*
X65890476Y-53583390D02*
X65842857Y-53631009D01*
X65842857Y-53631009D02*
X65795238Y-53726247D01*
%TO.C,J8*%
X124066666Y-54354819D02*
X124066666Y-55069104D01*
X124066666Y-55069104D02*
X124019047Y-55211961D01*
X124019047Y-55211961D02*
X123923809Y-55307200D01*
X123923809Y-55307200D02*
X123780952Y-55354819D01*
X123780952Y-55354819D02*
X123685714Y-55354819D01*
X124685714Y-54783390D02*
X124590476Y-54735771D01*
X124590476Y-54735771D02*
X124542857Y-54688152D01*
X124542857Y-54688152D02*
X124495238Y-54592914D01*
X124495238Y-54592914D02*
X124495238Y-54545295D01*
X124495238Y-54545295D02*
X124542857Y-54450057D01*
X124542857Y-54450057D02*
X124590476Y-54402438D01*
X124590476Y-54402438D02*
X124685714Y-54354819D01*
X124685714Y-54354819D02*
X124876190Y-54354819D01*
X124876190Y-54354819D02*
X124971428Y-54402438D01*
X124971428Y-54402438D02*
X125019047Y-54450057D01*
X125019047Y-54450057D02*
X125066666Y-54545295D01*
X125066666Y-54545295D02*
X125066666Y-54592914D01*
X125066666Y-54592914D02*
X125019047Y-54688152D01*
X125019047Y-54688152D02*
X124971428Y-54735771D01*
X124971428Y-54735771D02*
X124876190Y-54783390D01*
X124876190Y-54783390D02*
X124685714Y-54783390D01*
X124685714Y-54783390D02*
X124590476Y-54831009D01*
X124590476Y-54831009D02*
X124542857Y-54878628D01*
X124542857Y-54878628D02*
X124495238Y-54973866D01*
X124495238Y-54973866D02*
X124495238Y-55164342D01*
X124495238Y-55164342D02*
X124542857Y-55259580D01*
X124542857Y-55259580D02*
X124590476Y-55307200D01*
X124590476Y-55307200D02*
X124685714Y-55354819D01*
X124685714Y-55354819D02*
X124876190Y-55354819D01*
X124876190Y-55354819D02*
X124971428Y-55307200D01*
X124971428Y-55307200D02*
X125019047Y-55259580D01*
X125019047Y-55259580D02*
X125066666Y-55164342D01*
X125066666Y-55164342D02*
X125066666Y-54973866D01*
X125066666Y-54973866D02*
X125019047Y-54878628D01*
X125019047Y-54878628D02*
X124971428Y-54831009D01*
X124971428Y-54831009D02*
X124876190Y-54783390D01*
%TO.C,J14*%
X69590476Y-64979819D02*
X69590476Y-65694104D01*
X69590476Y-65694104D02*
X69542857Y-65836961D01*
X69542857Y-65836961D02*
X69447619Y-65932200D01*
X69447619Y-65932200D02*
X69304762Y-65979819D01*
X69304762Y-65979819D02*
X69209524Y-65979819D01*
X70590476Y-65979819D02*
X70019048Y-65979819D01*
X70304762Y-65979819D02*
X70304762Y-64979819D01*
X70304762Y-64979819D02*
X70209524Y-65122676D01*
X70209524Y-65122676D02*
X70114286Y-65217914D01*
X70114286Y-65217914D02*
X70019048Y-65265533D01*
X71447619Y-65313152D02*
X71447619Y-65979819D01*
X71209524Y-64932200D02*
X70971429Y-65646485D01*
X70971429Y-65646485D02*
X71590476Y-65646485D01*
%TO.C,J2*%
X64416666Y-105754819D02*
X64416666Y-106469104D01*
X64416666Y-106469104D02*
X64369047Y-106611961D01*
X64369047Y-106611961D02*
X64273809Y-106707200D01*
X64273809Y-106707200D02*
X64130952Y-106754819D01*
X64130952Y-106754819D02*
X64035714Y-106754819D01*
X64845238Y-105850057D02*
X64892857Y-105802438D01*
X64892857Y-105802438D02*
X64988095Y-105754819D01*
X64988095Y-105754819D02*
X65226190Y-105754819D01*
X65226190Y-105754819D02*
X65321428Y-105802438D01*
X65321428Y-105802438D02*
X65369047Y-105850057D01*
X65369047Y-105850057D02*
X65416666Y-105945295D01*
X65416666Y-105945295D02*
X65416666Y-106040533D01*
X65416666Y-106040533D02*
X65369047Y-106183390D01*
X65369047Y-106183390D02*
X64797619Y-106754819D01*
X64797619Y-106754819D02*
X65416666Y-106754819D01*
D11*
%TO.C,VR2*%
X94708695Y-101784688D02*
X95132028Y-103054688D01*
X95132028Y-103054688D02*
X95555362Y-101784688D01*
X96704409Y-103054688D02*
X96281075Y-102449926D01*
X95978694Y-103054688D02*
X95978694Y-101784688D01*
X95978694Y-101784688D02*
X96462504Y-101784688D01*
X96462504Y-101784688D02*
X96583456Y-101845164D01*
X96583456Y-101845164D02*
X96643933Y-101905640D01*
X96643933Y-101905640D02*
X96704409Y-102026592D01*
X96704409Y-102026592D02*
X96704409Y-102208021D01*
X96704409Y-102208021D02*
X96643933Y-102328973D01*
X96643933Y-102328973D02*
X96583456Y-102389450D01*
X96583456Y-102389450D02*
X96462504Y-102449926D01*
X96462504Y-102449926D02*
X95978694Y-102449926D01*
X97188218Y-101905640D02*
X97248694Y-101845164D01*
X97248694Y-101845164D02*
X97369647Y-101784688D01*
X97369647Y-101784688D02*
X97672028Y-101784688D01*
X97672028Y-101784688D02*
X97792980Y-101845164D01*
X97792980Y-101845164D02*
X97853456Y-101905640D01*
X97853456Y-101905640D02*
X97913933Y-102026592D01*
X97913933Y-102026592D02*
X97913933Y-102147545D01*
X97913933Y-102147545D02*
X97853456Y-102328973D01*
X97853456Y-102328973D02*
X97127742Y-103054688D01*
X97127742Y-103054688D02*
X97913933Y-103054688D01*
D10*
%TO.C,J16*%
X68790476Y-117954819D02*
X68790476Y-118669104D01*
X68790476Y-118669104D02*
X68742857Y-118811961D01*
X68742857Y-118811961D02*
X68647619Y-118907200D01*
X68647619Y-118907200D02*
X68504762Y-118954819D01*
X68504762Y-118954819D02*
X68409524Y-118954819D01*
X69790476Y-118954819D02*
X69219048Y-118954819D01*
X69504762Y-118954819D02*
X69504762Y-117954819D01*
X69504762Y-117954819D02*
X69409524Y-118097676D01*
X69409524Y-118097676D02*
X69314286Y-118192914D01*
X69314286Y-118192914D02*
X69219048Y-118240533D01*
X70647619Y-117954819D02*
X70457143Y-117954819D01*
X70457143Y-117954819D02*
X70361905Y-118002438D01*
X70361905Y-118002438D02*
X70314286Y-118050057D01*
X70314286Y-118050057D02*
X70219048Y-118192914D01*
X70219048Y-118192914D02*
X70171429Y-118383390D01*
X70171429Y-118383390D02*
X70171429Y-118764342D01*
X70171429Y-118764342D02*
X70219048Y-118859580D01*
X70219048Y-118859580D02*
X70266667Y-118907200D01*
X70266667Y-118907200D02*
X70361905Y-118954819D01*
X70361905Y-118954819D02*
X70552381Y-118954819D01*
X70552381Y-118954819D02*
X70647619Y-118907200D01*
X70647619Y-118907200D02*
X70695238Y-118859580D01*
X70695238Y-118859580D02*
X70742857Y-118764342D01*
X70742857Y-118764342D02*
X70742857Y-118526247D01*
X70742857Y-118526247D02*
X70695238Y-118431009D01*
X70695238Y-118431009D02*
X70647619Y-118383390D01*
X70647619Y-118383390D02*
X70552381Y-118335771D01*
X70552381Y-118335771D02*
X70361905Y-118335771D01*
X70361905Y-118335771D02*
X70266667Y-118383390D01*
X70266667Y-118383390D02*
X70219048Y-118431009D01*
X70219048Y-118431009D02*
X70171429Y-118526247D01*
%TO.C,connAlimen1*%
X148767200Y-91211428D02*
X148814819Y-91306666D01*
X148814819Y-91306666D02*
X148814819Y-91497142D01*
X148814819Y-91497142D02*
X148767200Y-91592380D01*
X148767200Y-91592380D02*
X148719580Y-91639999D01*
X148719580Y-91639999D02*
X148624342Y-91687618D01*
X148624342Y-91687618D02*
X148338628Y-91687618D01*
X148338628Y-91687618D02*
X148243390Y-91639999D01*
X148243390Y-91639999D02*
X148195771Y-91592380D01*
X148195771Y-91592380D02*
X148148152Y-91497142D01*
X148148152Y-91497142D02*
X148148152Y-91306666D01*
X148148152Y-91306666D02*
X148195771Y-91211428D01*
X148814819Y-90639999D02*
X148767200Y-90735237D01*
X148767200Y-90735237D02*
X148719580Y-90782856D01*
X148719580Y-90782856D02*
X148624342Y-90830475D01*
X148624342Y-90830475D02*
X148338628Y-90830475D01*
X148338628Y-90830475D02*
X148243390Y-90782856D01*
X148243390Y-90782856D02*
X148195771Y-90735237D01*
X148195771Y-90735237D02*
X148148152Y-90639999D01*
X148148152Y-90639999D02*
X148148152Y-90497142D01*
X148148152Y-90497142D02*
X148195771Y-90401904D01*
X148195771Y-90401904D02*
X148243390Y-90354285D01*
X148243390Y-90354285D02*
X148338628Y-90306666D01*
X148338628Y-90306666D02*
X148624342Y-90306666D01*
X148624342Y-90306666D02*
X148719580Y-90354285D01*
X148719580Y-90354285D02*
X148767200Y-90401904D01*
X148767200Y-90401904D02*
X148814819Y-90497142D01*
X148814819Y-90497142D02*
X148814819Y-90639999D01*
X148148152Y-89878094D02*
X148814819Y-89878094D01*
X148243390Y-89878094D02*
X148195771Y-89830475D01*
X148195771Y-89830475D02*
X148148152Y-89735237D01*
X148148152Y-89735237D02*
X148148152Y-89592380D01*
X148148152Y-89592380D02*
X148195771Y-89497142D01*
X148195771Y-89497142D02*
X148291009Y-89449523D01*
X148291009Y-89449523D02*
X148814819Y-89449523D01*
X148148152Y-88973332D02*
X148814819Y-88973332D01*
X148243390Y-88973332D02*
X148195771Y-88925713D01*
X148195771Y-88925713D02*
X148148152Y-88830475D01*
X148148152Y-88830475D02*
X148148152Y-88687618D01*
X148148152Y-88687618D02*
X148195771Y-88592380D01*
X148195771Y-88592380D02*
X148291009Y-88544761D01*
X148291009Y-88544761D02*
X148814819Y-88544761D01*
X148529104Y-88116189D02*
X148529104Y-87639999D01*
X148814819Y-88211427D02*
X147814819Y-87878094D01*
X147814819Y-87878094D02*
X148814819Y-87544761D01*
X148814819Y-87068570D02*
X148767200Y-87163808D01*
X148767200Y-87163808D02*
X148671961Y-87211427D01*
X148671961Y-87211427D02*
X147814819Y-87211427D01*
X148814819Y-86687617D02*
X148148152Y-86687617D01*
X147814819Y-86687617D02*
X147862438Y-86735236D01*
X147862438Y-86735236D02*
X147910057Y-86687617D01*
X147910057Y-86687617D02*
X147862438Y-86639998D01*
X147862438Y-86639998D02*
X147814819Y-86687617D01*
X147814819Y-86687617D02*
X147910057Y-86687617D01*
X148814819Y-86211427D02*
X148148152Y-86211427D01*
X148243390Y-86211427D02*
X148195771Y-86163808D01*
X148195771Y-86163808D02*
X148148152Y-86068570D01*
X148148152Y-86068570D02*
X148148152Y-85925713D01*
X148148152Y-85925713D02*
X148195771Y-85830475D01*
X148195771Y-85830475D02*
X148291009Y-85782856D01*
X148291009Y-85782856D02*
X148814819Y-85782856D01*
X148291009Y-85782856D02*
X148195771Y-85735237D01*
X148195771Y-85735237D02*
X148148152Y-85639999D01*
X148148152Y-85639999D02*
X148148152Y-85497142D01*
X148148152Y-85497142D02*
X148195771Y-85401903D01*
X148195771Y-85401903D02*
X148291009Y-85354284D01*
X148291009Y-85354284D02*
X148814819Y-85354284D01*
X148767200Y-84497142D02*
X148814819Y-84592380D01*
X148814819Y-84592380D02*
X148814819Y-84782856D01*
X148814819Y-84782856D02*
X148767200Y-84878094D01*
X148767200Y-84878094D02*
X148671961Y-84925713D01*
X148671961Y-84925713D02*
X148291009Y-84925713D01*
X148291009Y-84925713D02*
X148195771Y-84878094D01*
X148195771Y-84878094D02*
X148148152Y-84782856D01*
X148148152Y-84782856D02*
X148148152Y-84592380D01*
X148148152Y-84592380D02*
X148195771Y-84497142D01*
X148195771Y-84497142D02*
X148291009Y-84449523D01*
X148291009Y-84449523D02*
X148386247Y-84449523D01*
X148386247Y-84449523D02*
X148481485Y-84925713D01*
X148148152Y-84020951D02*
X148814819Y-84020951D01*
X148243390Y-84020951D02*
X148195771Y-83973332D01*
X148195771Y-83973332D02*
X148148152Y-83878094D01*
X148148152Y-83878094D02*
X148148152Y-83735237D01*
X148148152Y-83735237D02*
X148195771Y-83639999D01*
X148195771Y-83639999D02*
X148291009Y-83592380D01*
X148291009Y-83592380D02*
X148814819Y-83592380D01*
X148814819Y-82592380D02*
X148814819Y-83163808D01*
X148814819Y-82878094D02*
X147814819Y-82878094D01*
X147814819Y-82878094D02*
X147957676Y-82973332D01*
X147957676Y-82973332D02*
X148052914Y-83068570D01*
X148052914Y-83068570D02*
X148100533Y-83163808D01*
%TO.C,gradOutPut3*%
X140128152Y-120096191D02*
X140937676Y-120096191D01*
X140937676Y-120096191D02*
X141032914Y-120143810D01*
X141032914Y-120143810D02*
X141080533Y-120191429D01*
X141080533Y-120191429D02*
X141128152Y-120286667D01*
X141128152Y-120286667D02*
X141128152Y-120429524D01*
X141128152Y-120429524D02*
X141080533Y-120524762D01*
X140747200Y-120096191D02*
X140794819Y-120191429D01*
X140794819Y-120191429D02*
X140794819Y-120381905D01*
X140794819Y-120381905D02*
X140747200Y-120477143D01*
X140747200Y-120477143D02*
X140699580Y-120524762D01*
X140699580Y-120524762D02*
X140604342Y-120572381D01*
X140604342Y-120572381D02*
X140318628Y-120572381D01*
X140318628Y-120572381D02*
X140223390Y-120524762D01*
X140223390Y-120524762D02*
X140175771Y-120477143D01*
X140175771Y-120477143D02*
X140128152Y-120381905D01*
X140128152Y-120381905D02*
X140128152Y-120191429D01*
X140128152Y-120191429D02*
X140175771Y-120096191D01*
X140794819Y-119620000D02*
X140128152Y-119620000D01*
X140318628Y-119620000D02*
X140223390Y-119572381D01*
X140223390Y-119572381D02*
X140175771Y-119524762D01*
X140175771Y-119524762D02*
X140128152Y-119429524D01*
X140128152Y-119429524D02*
X140128152Y-119334286D01*
X140794819Y-118572381D02*
X140271009Y-118572381D01*
X140271009Y-118572381D02*
X140175771Y-118620000D01*
X140175771Y-118620000D02*
X140128152Y-118715238D01*
X140128152Y-118715238D02*
X140128152Y-118905714D01*
X140128152Y-118905714D02*
X140175771Y-119000952D01*
X140747200Y-118572381D02*
X140794819Y-118667619D01*
X140794819Y-118667619D02*
X140794819Y-118905714D01*
X140794819Y-118905714D02*
X140747200Y-119000952D01*
X140747200Y-119000952D02*
X140651961Y-119048571D01*
X140651961Y-119048571D02*
X140556723Y-119048571D01*
X140556723Y-119048571D02*
X140461485Y-119000952D01*
X140461485Y-119000952D02*
X140413866Y-118905714D01*
X140413866Y-118905714D02*
X140413866Y-118667619D01*
X140413866Y-118667619D02*
X140366247Y-118572381D01*
X140794819Y-117667619D02*
X139794819Y-117667619D01*
X140747200Y-117667619D02*
X140794819Y-117762857D01*
X140794819Y-117762857D02*
X140794819Y-117953333D01*
X140794819Y-117953333D02*
X140747200Y-118048571D01*
X140747200Y-118048571D02*
X140699580Y-118096190D01*
X140699580Y-118096190D02*
X140604342Y-118143809D01*
X140604342Y-118143809D02*
X140318628Y-118143809D01*
X140318628Y-118143809D02*
X140223390Y-118096190D01*
X140223390Y-118096190D02*
X140175771Y-118048571D01*
X140175771Y-118048571D02*
X140128152Y-117953333D01*
X140128152Y-117953333D02*
X140128152Y-117762857D01*
X140128152Y-117762857D02*
X140175771Y-117667619D01*
X139794819Y-117000952D02*
X139794819Y-116810476D01*
X139794819Y-116810476D02*
X139842438Y-116715238D01*
X139842438Y-116715238D02*
X139937676Y-116620000D01*
X139937676Y-116620000D02*
X140128152Y-116572381D01*
X140128152Y-116572381D02*
X140461485Y-116572381D01*
X140461485Y-116572381D02*
X140651961Y-116620000D01*
X140651961Y-116620000D02*
X140747200Y-116715238D01*
X140747200Y-116715238D02*
X140794819Y-116810476D01*
X140794819Y-116810476D02*
X140794819Y-117000952D01*
X140794819Y-117000952D02*
X140747200Y-117096190D01*
X140747200Y-117096190D02*
X140651961Y-117191428D01*
X140651961Y-117191428D02*
X140461485Y-117239047D01*
X140461485Y-117239047D02*
X140128152Y-117239047D01*
X140128152Y-117239047D02*
X139937676Y-117191428D01*
X139937676Y-117191428D02*
X139842438Y-117096190D01*
X139842438Y-117096190D02*
X139794819Y-117000952D01*
X140128152Y-115715238D02*
X140794819Y-115715238D01*
X140128152Y-116143809D02*
X140651961Y-116143809D01*
X140651961Y-116143809D02*
X140747200Y-116096190D01*
X140747200Y-116096190D02*
X140794819Y-116000952D01*
X140794819Y-116000952D02*
X140794819Y-115858095D01*
X140794819Y-115858095D02*
X140747200Y-115762857D01*
X140747200Y-115762857D02*
X140699580Y-115715238D01*
X140128152Y-115381904D02*
X140128152Y-115000952D01*
X139794819Y-115239047D02*
X140651961Y-115239047D01*
X140651961Y-115239047D02*
X140747200Y-115191428D01*
X140747200Y-115191428D02*
X140794819Y-115096190D01*
X140794819Y-115096190D02*
X140794819Y-115000952D01*
X140794819Y-114667618D02*
X139794819Y-114667618D01*
X139794819Y-114667618D02*
X139794819Y-114286666D01*
X139794819Y-114286666D02*
X139842438Y-114191428D01*
X139842438Y-114191428D02*
X139890057Y-114143809D01*
X139890057Y-114143809D02*
X139985295Y-114096190D01*
X139985295Y-114096190D02*
X140128152Y-114096190D01*
X140128152Y-114096190D02*
X140223390Y-114143809D01*
X140223390Y-114143809D02*
X140271009Y-114191428D01*
X140271009Y-114191428D02*
X140318628Y-114286666D01*
X140318628Y-114286666D02*
X140318628Y-114667618D01*
X140128152Y-113239047D02*
X140794819Y-113239047D01*
X140128152Y-113667618D02*
X140651961Y-113667618D01*
X140651961Y-113667618D02*
X140747200Y-113619999D01*
X140747200Y-113619999D02*
X140794819Y-113524761D01*
X140794819Y-113524761D02*
X140794819Y-113381904D01*
X140794819Y-113381904D02*
X140747200Y-113286666D01*
X140747200Y-113286666D02*
X140699580Y-113239047D01*
X140128152Y-112905713D02*
X140128152Y-112524761D01*
X139794819Y-112762856D02*
X140651961Y-112762856D01*
X140651961Y-112762856D02*
X140747200Y-112715237D01*
X140747200Y-112715237D02*
X140794819Y-112619999D01*
X140794819Y-112619999D02*
X140794819Y-112524761D01*
X139794819Y-112286665D02*
X139794819Y-111667618D01*
X139794819Y-111667618D02*
X140175771Y-112000951D01*
X140175771Y-112000951D02*
X140175771Y-111858094D01*
X140175771Y-111858094D02*
X140223390Y-111762856D01*
X140223390Y-111762856D02*
X140271009Y-111715237D01*
X140271009Y-111715237D02*
X140366247Y-111667618D01*
X140366247Y-111667618D02*
X140604342Y-111667618D01*
X140604342Y-111667618D02*
X140699580Y-111715237D01*
X140699580Y-111715237D02*
X140747200Y-111762856D01*
X140747200Y-111762856D02*
X140794819Y-111858094D01*
X140794819Y-111858094D02*
X140794819Y-112143808D01*
X140794819Y-112143808D02*
X140747200Y-112239046D01*
X140747200Y-112239046D02*
X140699580Y-112286665D01*
D11*
%TO.C,VR1*%
X94408695Y-70684688D02*
X94832028Y-71954688D01*
X94832028Y-71954688D02*
X95255362Y-70684688D01*
X96404409Y-71954688D02*
X95981075Y-71349926D01*
X95678694Y-71954688D02*
X95678694Y-70684688D01*
X95678694Y-70684688D02*
X96162504Y-70684688D01*
X96162504Y-70684688D02*
X96283456Y-70745164D01*
X96283456Y-70745164D02*
X96343933Y-70805640D01*
X96343933Y-70805640D02*
X96404409Y-70926592D01*
X96404409Y-70926592D02*
X96404409Y-71108021D01*
X96404409Y-71108021D02*
X96343933Y-71228973D01*
X96343933Y-71228973D02*
X96283456Y-71289450D01*
X96283456Y-71289450D02*
X96162504Y-71349926D01*
X96162504Y-71349926D02*
X95678694Y-71349926D01*
X97613933Y-71954688D02*
X96888218Y-71954688D01*
X97251075Y-71954688D02*
X97251075Y-70684688D01*
X97251075Y-70684688D02*
X97130123Y-70866116D01*
X97130123Y-70866116D02*
X97009171Y-70987069D01*
X97009171Y-70987069D02*
X96888218Y-71047545D01*
D10*
%TO.C,INA217_7*%
X58571905Y-81124819D02*
X58571905Y-80124819D01*
X59048095Y-81124819D02*
X59048095Y-80124819D01*
X59048095Y-80124819D02*
X59619523Y-81124819D01*
X59619523Y-81124819D02*
X59619523Y-80124819D01*
X60048095Y-80839104D02*
X60524285Y-80839104D01*
X59952857Y-81124819D02*
X60286190Y-80124819D01*
X60286190Y-80124819D02*
X60619523Y-81124819D01*
X60905238Y-80220057D02*
X60952857Y-80172438D01*
X60952857Y-80172438D02*
X61048095Y-80124819D01*
X61048095Y-80124819D02*
X61286190Y-80124819D01*
X61286190Y-80124819D02*
X61381428Y-80172438D01*
X61381428Y-80172438D02*
X61429047Y-80220057D01*
X61429047Y-80220057D02*
X61476666Y-80315295D01*
X61476666Y-80315295D02*
X61476666Y-80410533D01*
X61476666Y-80410533D02*
X61429047Y-80553390D01*
X61429047Y-80553390D02*
X60857619Y-81124819D01*
X60857619Y-81124819D02*
X61476666Y-81124819D01*
X62429047Y-81124819D02*
X61857619Y-81124819D01*
X62143333Y-81124819D02*
X62143333Y-80124819D01*
X62143333Y-80124819D02*
X62048095Y-80267676D01*
X62048095Y-80267676D02*
X61952857Y-80362914D01*
X61952857Y-80362914D02*
X61857619Y-80410533D01*
X62762381Y-80124819D02*
X63429047Y-80124819D01*
X63429047Y-80124819D02*
X63000476Y-81124819D01*
X63571905Y-81220057D02*
X64333809Y-81220057D01*
X64476667Y-80124819D02*
X65143333Y-80124819D01*
X65143333Y-80124819D02*
X64714762Y-81124819D01*
%TO.C,J12*%
X69690476Y-71979819D02*
X69690476Y-72694104D01*
X69690476Y-72694104D02*
X69642857Y-72836961D01*
X69642857Y-72836961D02*
X69547619Y-72932200D01*
X69547619Y-72932200D02*
X69404762Y-72979819D01*
X69404762Y-72979819D02*
X69309524Y-72979819D01*
X70690476Y-72979819D02*
X70119048Y-72979819D01*
X70404762Y-72979819D02*
X70404762Y-71979819D01*
X70404762Y-71979819D02*
X70309524Y-72122676D01*
X70309524Y-72122676D02*
X70214286Y-72217914D01*
X70214286Y-72217914D02*
X70119048Y-72265533D01*
X71071429Y-72075057D02*
X71119048Y-72027438D01*
X71119048Y-72027438D02*
X71214286Y-71979819D01*
X71214286Y-71979819D02*
X71452381Y-71979819D01*
X71452381Y-71979819D02*
X71547619Y-72027438D01*
X71547619Y-72027438D02*
X71595238Y-72075057D01*
X71595238Y-72075057D02*
X71642857Y-72170295D01*
X71642857Y-72170295D02*
X71642857Y-72265533D01*
X71642857Y-72265533D02*
X71595238Y-72408390D01*
X71595238Y-72408390D02*
X71023810Y-72979819D01*
X71023810Y-72979819D02*
X71642857Y-72979819D01*
%TO.C,J18*%
X68690476Y-123854819D02*
X68690476Y-124569104D01*
X68690476Y-124569104D02*
X68642857Y-124711961D01*
X68642857Y-124711961D02*
X68547619Y-124807200D01*
X68547619Y-124807200D02*
X68404762Y-124854819D01*
X68404762Y-124854819D02*
X68309524Y-124854819D01*
X69690476Y-124854819D02*
X69119048Y-124854819D01*
X69404762Y-124854819D02*
X69404762Y-123854819D01*
X69404762Y-123854819D02*
X69309524Y-123997676D01*
X69309524Y-123997676D02*
X69214286Y-124092914D01*
X69214286Y-124092914D02*
X69119048Y-124140533D01*
X70261905Y-124283390D02*
X70166667Y-124235771D01*
X70166667Y-124235771D02*
X70119048Y-124188152D01*
X70119048Y-124188152D02*
X70071429Y-124092914D01*
X70071429Y-124092914D02*
X70071429Y-124045295D01*
X70071429Y-124045295D02*
X70119048Y-123950057D01*
X70119048Y-123950057D02*
X70166667Y-123902438D01*
X70166667Y-123902438D02*
X70261905Y-123854819D01*
X70261905Y-123854819D02*
X70452381Y-123854819D01*
X70452381Y-123854819D02*
X70547619Y-123902438D01*
X70547619Y-123902438D02*
X70595238Y-123950057D01*
X70595238Y-123950057D02*
X70642857Y-124045295D01*
X70642857Y-124045295D02*
X70642857Y-124092914D01*
X70642857Y-124092914D02*
X70595238Y-124188152D01*
X70595238Y-124188152D02*
X70547619Y-124235771D01*
X70547619Y-124235771D02*
X70452381Y-124283390D01*
X70452381Y-124283390D02*
X70261905Y-124283390D01*
X70261905Y-124283390D02*
X70166667Y-124331009D01*
X70166667Y-124331009D02*
X70119048Y-124378628D01*
X70119048Y-124378628D02*
X70071429Y-124473866D01*
X70071429Y-124473866D02*
X70071429Y-124664342D01*
X70071429Y-124664342D02*
X70119048Y-124759580D01*
X70119048Y-124759580D02*
X70166667Y-124807200D01*
X70166667Y-124807200D02*
X70261905Y-124854819D01*
X70261905Y-124854819D02*
X70452381Y-124854819D01*
X70452381Y-124854819D02*
X70547619Y-124807200D01*
X70547619Y-124807200D02*
X70595238Y-124759580D01*
X70595238Y-124759580D02*
X70642857Y-124664342D01*
X70642857Y-124664342D02*
X70642857Y-124473866D01*
X70642857Y-124473866D02*
X70595238Y-124378628D01*
X70595238Y-124378628D02*
X70547619Y-124331009D01*
X70547619Y-124331009D02*
X70452381Y-124283390D01*
%TO.C,Lemo5*%
X48494819Y-91041785D02*
X48494819Y-91517975D01*
X48494819Y-91517975D02*
X47494819Y-91517975D01*
X48447200Y-90327499D02*
X48494819Y-90422737D01*
X48494819Y-90422737D02*
X48494819Y-90613213D01*
X48494819Y-90613213D02*
X48447200Y-90708451D01*
X48447200Y-90708451D02*
X48351961Y-90756070D01*
X48351961Y-90756070D02*
X47971009Y-90756070D01*
X47971009Y-90756070D02*
X47875771Y-90708451D01*
X47875771Y-90708451D02*
X47828152Y-90613213D01*
X47828152Y-90613213D02*
X47828152Y-90422737D01*
X47828152Y-90422737D02*
X47875771Y-90327499D01*
X47875771Y-90327499D02*
X47971009Y-90279880D01*
X47971009Y-90279880D02*
X48066247Y-90279880D01*
X48066247Y-90279880D02*
X48161485Y-90756070D01*
X48494819Y-89851308D02*
X47828152Y-89851308D01*
X47923390Y-89851308D02*
X47875771Y-89803689D01*
X47875771Y-89803689D02*
X47828152Y-89708451D01*
X47828152Y-89708451D02*
X47828152Y-89565594D01*
X47828152Y-89565594D02*
X47875771Y-89470356D01*
X47875771Y-89470356D02*
X47971009Y-89422737D01*
X47971009Y-89422737D02*
X48494819Y-89422737D01*
X47971009Y-89422737D02*
X47875771Y-89375118D01*
X47875771Y-89375118D02*
X47828152Y-89279880D01*
X47828152Y-89279880D02*
X47828152Y-89137023D01*
X47828152Y-89137023D02*
X47875771Y-89041784D01*
X47875771Y-89041784D02*
X47971009Y-88994165D01*
X47971009Y-88994165D02*
X48494819Y-88994165D01*
X48494819Y-88375118D02*
X48447200Y-88470356D01*
X48447200Y-88470356D02*
X48399580Y-88517975D01*
X48399580Y-88517975D02*
X48304342Y-88565594D01*
X48304342Y-88565594D02*
X48018628Y-88565594D01*
X48018628Y-88565594D02*
X47923390Y-88517975D01*
X47923390Y-88517975D02*
X47875771Y-88470356D01*
X47875771Y-88470356D02*
X47828152Y-88375118D01*
X47828152Y-88375118D02*
X47828152Y-88232261D01*
X47828152Y-88232261D02*
X47875771Y-88137023D01*
X47875771Y-88137023D02*
X47923390Y-88089404D01*
X47923390Y-88089404D02*
X48018628Y-88041785D01*
X48018628Y-88041785D02*
X48304342Y-88041785D01*
X48304342Y-88041785D02*
X48399580Y-88089404D01*
X48399580Y-88089404D02*
X48447200Y-88137023D01*
X48447200Y-88137023D02*
X48494819Y-88232261D01*
X48494819Y-88232261D02*
X48494819Y-88375118D01*
X47494819Y-87137023D02*
X47494819Y-87613213D01*
X47494819Y-87613213D02*
X47971009Y-87660832D01*
X47971009Y-87660832D02*
X47923390Y-87613213D01*
X47923390Y-87613213D02*
X47875771Y-87517975D01*
X47875771Y-87517975D02*
X47875771Y-87279880D01*
X47875771Y-87279880D02*
X47923390Y-87184642D01*
X47923390Y-87184642D02*
X47971009Y-87137023D01*
X47971009Y-87137023D02*
X48066247Y-87089404D01*
X48066247Y-87089404D02*
X48304342Y-87089404D01*
X48304342Y-87089404D02*
X48399580Y-87137023D01*
X48399580Y-87137023D02*
X48447200Y-87184642D01*
X48447200Y-87184642D02*
X48494819Y-87279880D01*
X48494819Y-87279880D02*
X48494819Y-87517975D01*
X48494819Y-87517975D02*
X48447200Y-87613213D01*
X48447200Y-87613213D02*
X48399580Y-87660832D01*
D11*
%TO.C,U1*%
X95532880Y-85494318D02*
X95532880Y-86522413D01*
X95532880Y-86522413D02*
X95593357Y-86643365D01*
X95593357Y-86643365D02*
X95653833Y-86703842D01*
X95653833Y-86703842D02*
X95774785Y-86764318D01*
X95774785Y-86764318D02*
X96016690Y-86764318D01*
X96016690Y-86764318D02*
X96137642Y-86703842D01*
X96137642Y-86703842D02*
X96198119Y-86643365D01*
X96198119Y-86643365D02*
X96258595Y-86522413D01*
X96258595Y-86522413D02*
X96258595Y-85494318D01*
X97528595Y-86764318D02*
X96802880Y-86764318D01*
X97165737Y-86764318D02*
X97165737Y-85494318D01*
X97165737Y-85494318D02*
X97044785Y-85675746D01*
X97044785Y-85675746D02*
X96923833Y-85796699D01*
X96923833Y-85796699D02*
X96802880Y-85857175D01*
D10*
%TO.C,J4*%
X65286666Y-80654819D02*
X65286666Y-81369104D01*
X65286666Y-81369104D02*
X65239047Y-81511961D01*
X65239047Y-81511961D02*
X65143809Y-81607200D01*
X65143809Y-81607200D02*
X65000952Y-81654819D01*
X65000952Y-81654819D02*
X64905714Y-81654819D01*
X66191428Y-80988152D02*
X66191428Y-81654819D01*
X65953333Y-80607200D02*
X65715238Y-81321485D01*
X65715238Y-81321485D02*
X66334285Y-81321485D01*
%TO.C,INA217_1*%
X58451905Y-53992319D02*
X58451905Y-52992319D01*
X58928095Y-53992319D02*
X58928095Y-52992319D01*
X58928095Y-52992319D02*
X59499523Y-53992319D01*
X59499523Y-53992319D02*
X59499523Y-52992319D01*
X59928095Y-53706604D02*
X60404285Y-53706604D01*
X59832857Y-53992319D02*
X60166190Y-52992319D01*
X60166190Y-52992319D02*
X60499523Y-53992319D01*
X60785238Y-53087557D02*
X60832857Y-53039938D01*
X60832857Y-53039938D02*
X60928095Y-52992319D01*
X60928095Y-52992319D02*
X61166190Y-52992319D01*
X61166190Y-52992319D02*
X61261428Y-53039938D01*
X61261428Y-53039938D02*
X61309047Y-53087557D01*
X61309047Y-53087557D02*
X61356666Y-53182795D01*
X61356666Y-53182795D02*
X61356666Y-53278033D01*
X61356666Y-53278033D02*
X61309047Y-53420890D01*
X61309047Y-53420890D02*
X60737619Y-53992319D01*
X60737619Y-53992319D02*
X61356666Y-53992319D01*
X62309047Y-53992319D02*
X61737619Y-53992319D01*
X62023333Y-53992319D02*
X62023333Y-52992319D01*
X62023333Y-52992319D02*
X61928095Y-53135176D01*
X61928095Y-53135176D02*
X61832857Y-53230414D01*
X61832857Y-53230414D02*
X61737619Y-53278033D01*
X62642381Y-52992319D02*
X63309047Y-52992319D01*
X63309047Y-52992319D02*
X62880476Y-53992319D01*
X63451905Y-54087557D02*
X64213809Y-54087557D01*
X64975714Y-53992319D02*
X64404286Y-53992319D01*
X64690000Y-53992319D02*
X64690000Y-52992319D01*
X64690000Y-52992319D02*
X64594762Y-53135176D01*
X64594762Y-53135176D02*
X64499524Y-53230414D01*
X64499524Y-53230414D02*
X64404286Y-53278033D01*
%TO.C,Lemo6*%
X48394819Y-64284285D02*
X48394819Y-64760475D01*
X48394819Y-64760475D02*
X47394819Y-64760475D01*
X48347200Y-63569999D02*
X48394819Y-63665237D01*
X48394819Y-63665237D02*
X48394819Y-63855713D01*
X48394819Y-63855713D02*
X48347200Y-63950951D01*
X48347200Y-63950951D02*
X48251961Y-63998570D01*
X48251961Y-63998570D02*
X47871009Y-63998570D01*
X47871009Y-63998570D02*
X47775771Y-63950951D01*
X47775771Y-63950951D02*
X47728152Y-63855713D01*
X47728152Y-63855713D02*
X47728152Y-63665237D01*
X47728152Y-63665237D02*
X47775771Y-63569999D01*
X47775771Y-63569999D02*
X47871009Y-63522380D01*
X47871009Y-63522380D02*
X47966247Y-63522380D01*
X47966247Y-63522380D02*
X48061485Y-63998570D01*
X48394819Y-63093808D02*
X47728152Y-63093808D01*
X47823390Y-63093808D02*
X47775771Y-63046189D01*
X47775771Y-63046189D02*
X47728152Y-62950951D01*
X47728152Y-62950951D02*
X47728152Y-62808094D01*
X47728152Y-62808094D02*
X47775771Y-62712856D01*
X47775771Y-62712856D02*
X47871009Y-62665237D01*
X47871009Y-62665237D02*
X48394819Y-62665237D01*
X47871009Y-62665237D02*
X47775771Y-62617618D01*
X47775771Y-62617618D02*
X47728152Y-62522380D01*
X47728152Y-62522380D02*
X47728152Y-62379523D01*
X47728152Y-62379523D02*
X47775771Y-62284284D01*
X47775771Y-62284284D02*
X47871009Y-62236665D01*
X47871009Y-62236665D02*
X48394819Y-62236665D01*
X48394819Y-61617618D02*
X48347200Y-61712856D01*
X48347200Y-61712856D02*
X48299580Y-61760475D01*
X48299580Y-61760475D02*
X48204342Y-61808094D01*
X48204342Y-61808094D02*
X47918628Y-61808094D01*
X47918628Y-61808094D02*
X47823390Y-61760475D01*
X47823390Y-61760475D02*
X47775771Y-61712856D01*
X47775771Y-61712856D02*
X47728152Y-61617618D01*
X47728152Y-61617618D02*
X47728152Y-61474761D01*
X47728152Y-61474761D02*
X47775771Y-61379523D01*
X47775771Y-61379523D02*
X47823390Y-61331904D01*
X47823390Y-61331904D02*
X47918628Y-61284285D01*
X47918628Y-61284285D02*
X48204342Y-61284285D01*
X48204342Y-61284285D02*
X48299580Y-61331904D01*
X48299580Y-61331904D02*
X48347200Y-61379523D01*
X48347200Y-61379523D02*
X48394819Y-61474761D01*
X48394819Y-61474761D02*
X48394819Y-61617618D01*
X47394819Y-60427142D02*
X47394819Y-60617618D01*
X47394819Y-60617618D02*
X47442438Y-60712856D01*
X47442438Y-60712856D02*
X47490057Y-60760475D01*
X47490057Y-60760475D02*
X47632914Y-60855713D01*
X47632914Y-60855713D02*
X47823390Y-60903332D01*
X47823390Y-60903332D02*
X48204342Y-60903332D01*
X48204342Y-60903332D02*
X48299580Y-60855713D01*
X48299580Y-60855713D02*
X48347200Y-60808094D01*
X48347200Y-60808094D02*
X48394819Y-60712856D01*
X48394819Y-60712856D02*
X48394819Y-60522380D01*
X48394819Y-60522380D02*
X48347200Y-60427142D01*
X48347200Y-60427142D02*
X48299580Y-60379523D01*
X48299580Y-60379523D02*
X48204342Y-60331904D01*
X48204342Y-60331904D02*
X47966247Y-60331904D01*
X47966247Y-60331904D02*
X47871009Y-60379523D01*
X47871009Y-60379523D02*
X47823390Y-60427142D01*
X47823390Y-60427142D02*
X47775771Y-60522380D01*
X47775771Y-60522380D02*
X47775771Y-60712856D01*
X47775771Y-60712856D02*
X47823390Y-60808094D01*
X47823390Y-60808094D02*
X47871009Y-60855713D01*
X47871009Y-60855713D02*
X47966247Y-60903332D01*
%TO.C,J3*%
X57886666Y-80474819D02*
X57886666Y-81189104D01*
X57886666Y-81189104D02*
X57839047Y-81331961D01*
X57839047Y-81331961D02*
X57743809Y-81427200D01*
X57743809Y-81427200D02*
X57600952Y-81474819D01*
X57600952Y-81474819D02*
X57505714Y-81474819D01*
X58267619Y-80474819D02*
X58886666Y-80474819D01*
X58886666Y-80474819D02*
X58553333Y-80855771D01*
X58553333Y-80855771D02*
X58696190Y-80855771D01*
X58696190Y-80855771D02*
X58791428Y-80903390D01*
X58791428Y-80903390D02*
X58839047Y-80951009D01*
X58839047Y-80951009D02*
X58886666Y-81046247D01*
X58886666Y-81046247D02*
X58886666Y-81284342D01*
X58886666Y-81284342D02*
X58839047Y-81379580D01*
X58839047Y-81379580D02*
X58791428Y-81427200D01*
X58791428Y-81427200D02*
X58696190Y-81474819D01*
X58696190Y-81474819D02*
X58410476Y-81474819D01*
X58410476Y-81474819D02*
X58315238Y-81427200D01*
X58315238Y-81427200D02*
X58267619Y-81379580D01*
%TO.C,connAlimen9v1*%
X100747200Y-49688571D02*
X100794819Y-49783809D01*
X100794819Y-49783809D02*
X100794819Y-49974285D01*
X100794819Y-49974285D02*
X100747200Y-50069523D01*
X100747200Y-50069523D02*
X100699580Y-50117142D01*
X100699580Y-50117142D02*
X100604342Y-50164761D01*
X100604342Y-50164761D02*
X100318628Y-50164761D01*
X100318628Y-50164761D02*
X100223390Y-50117142D01*
X100223390Y-50117142D02*
X100175771Y-50069523D01*
X100175771Y-50069523D02*
X100128152Y-49974285D01*
X100128152Y-49974285D02*
X100128152Y-49783809D01*
X100128152Y-49783809D02*
X100175771Y-49688571D01*
X100794819Y-49117142D02*
X100747200Y-49212380D01*
X100747200Y-49212380D02*
X100699580Y-49259999D01*
X100699580Y-49259999D02*
X100604342Y-49307618D01*
X100604342Y-49307618D02*
X100318628Y-49307618D01*
X100318628Y-49307618D02*
X100223390Y-49259999D01*
X100223390Y-49259999D02*
X100175771Y-49212380D01*
X100175771Y-49212380D02*
X100128152Y-49117142D01*
X100128152Y-49117142D02*
X100128152Y-48974285D01*
X100128152Y-48974285D02*
X100175771Y-48879047D01*
X100175771Y-48879047D02*
X100223390Y-48831428D01*
X100223390Y-48831428D02*
X100318628Y-48783809D01*
X100318628Y-48783809D02*
X100604342Y-48783809D01*
X100604342Y-48783809D02*
X100699580Y-48831428D01*
X100699580Y-48831428D02*
X100747200Y-48879047D01*
X100747200Y-48879047D02*
X100794819Y-48974285D01*
X100794819Y-48974285D02*
X100794819Y-49117142D01*
X100128152Y-48355237D02*
X100794819Y-48355237D01*
X100223390Y-48355237D02*
X100175771Y-48307618D01*
X100175771Y-48307618D02*
X100128152Y-48212380D01*
X100128152Y-48212380D02*
X100128152Y-48069523D01*
X100128152Y-48069523D02*
X100175771Y-47974285D01*
X100175771Y-47974285D02*
X100271009Y-47926666D01*
X100271009Y-47926666D02*
X100794819Y-47926666D01*
X100128152Y-47450475D02*
X100794819Y-47450475D01*
X100223390Y-47450475D02*
X100175771Y-47402856D01*
X100175771Y-47402856D02*
X100128152Y-47307618D01*
X100128152Y-47307618D02*
X100128152Y-47164761D01*
X100128152Y-47164761D02*
X100175771Y-47069523D01*
X100175771Y-47069523D02*
X100271009Y-47021904D01*
X100271009Y-47021904D02*
X100794819Y-47021904D01*
X100509104Y-46593332D02*
X100509104Y-46117142D01*
X100794819Y-46688570D02*
X99794819Y-46355237D01*
X99794819Y-46355237D02*
X100794819Y-46021904D01*
X100794819Y-45545713D02*
X100747200Y-45640951D01*
X100747200Y-45640951D02*
X100651961Y-45688570D01*
X100651961Y-45688570D02*
X99794819Y-45688570D01*
X100794819Y-45164760D02*
X100128152Y-45164760D01*
X99794819Y-45164760D02*
X99842438Y-45212379D01*
X99842438Y-45212379D02*
X99890057Y-45164760D01*
X99890057Y-45164760D02*
X99842438Y-45117141D01*
X99842438Y-45117141D02*
X99794819Y-45164760D01*
X99794819Y-45164760D02*
X99890057Y-45164760D01*
X100794819Y-44688570D02*
X100128152Y-44688570D01*
X100223390Y-44688570D02*
X100175771Y-44640951D01*
X100175771Y-44640951D02*
X100128152Y-44545713D01*
X100128152Y-44545713D02*
X100128152Y-44402856D01*
X100128152Y-44402856D02*
X100175771Y-44307618D01*
X100175771Y-44307618D02*
X100271009Y-44259999D01*
X100271009Y-44259999D02*
X100794819Y-44259999D01*
X100271009Y-44259999D02*
X100175771Y-44212380D01*
X100175771Y-44212380D02*
X100128152Y-44117142D01*
X100128152Y-44117142D02*
X100128152Y-43974285D01*
X100128152Y-43974285D02*
X100175771Y-43879046D01*
X100175771Y-43879046D02*
X100271009Y-43831427D01*
X100271009Y-43831427D02*
X100794819Y-43831427D01*
X100747200Y-42974285D02*
X100794819Y-43069523D01*
X100794819Y-43069523D02*
X100794819Y-43259999D01*
X100794819Y-43259999D02*
X100747200Y-43355237D01*
X100747200Y-43355237D02*
X100651961Y-43402856D01*
X100651961Y-43402856D02*
X100271009Y-43402856D01*
X100271009Y-43402856D02*
X100175771Y-43355237D01*
X100175771Y-43355237D02*
X100128152Y-43259999D01*
X100128152Y-43259999D02*
X100128152Y-43069523D01*
X100128152Y-43069523D02*
X100175771Y-42974285D01*
X100175771Y-42974285D02*
X100271009Y-42926666D01*
X100271009Y-42926666D02*
X100366247Y-42926666D01*
X100366247Y-42926666D02*
X100461485Y-43402856D01*
X100128152Y-42498094D02*
X100794819Y-42498094D01*
X100223390Y-42498094D02*
X100175771Y-42450475D01*
X100175771Y-42450475D02*
X100128152Y-42355237D01*
X100128152Y-42355237D02*
X100128152Y-42212380D01*
X100128152Y-42212380D02*
X100175771Y-42117142D01*
X100175771Y-42117142D02*
X100271009Y-42069523D01*
X100271009Y-42069523D02*
X100794819Y-42069523D01*
X100794819Y-41545713D02*
X100794819Y-41355237D01*
X100794819Y-41355237D02*
X100747200Y-41259999D01*
X100747200Y-41259999D02*
X100699580Y-41212380D01*
X100699580Y-41212380D02*
X100556723Y-41117142D01*
X100556723Y-41117142D02*
X100366247Y-41069523D01*
X100366247Y-41069523D02*
X99985295Y-41069523D01*
X99985295Y-41069523D02*
X99890057Y-41117142D01*
X99890057Y-41117142D02*
X99842438Y-41164761D01*
X99842438Y-41164761D02*
X99794819Y-41259999D01*
X99794819Y-41259999D02*
X99794819Y-41450475D01*
X99794819Y-41450475D02*
X99842438Y-41545713D01*
X99842438Y-41545713D02*
X99890057Y-41593332D01*
X99890057Y-41593332D02*
X99985295Y-41640951D01*
X99985295Y-41640951D02*
X100223390Y-41640951D01*
X100223390Y-41640951D02*
X100318628Y-41593332D01*
X100318628Y-41593332D02*
X100366247Y-41545713D01*
X100366247Y-41545713D02*
X100413866Y-41450475D01*
X100413866Y-41450475D02*
X100413866Y-41259999D01*
X100413866Y-41259999D02*
X100366247Y-41164761D01*
X100366247Y-41164761D02*
X100318628Y-41117142D01*
X100318628Y-41117142D02*
X100223390Y-41069523D01*
X100128152Y-40736189D02*
X100794819Y-40498094D01*
X100794819Y-40498094D02*
X100128152Y-40259999D01*
X100794819Y-39355237D02*
X100794819Y-39926665D01*
X100794819Y-39640951D02*
X99794819Y-39640951D01*
X99794819Y-39640951D02*
X99937676Y-39736189D01*
X99937676Y-39736189D02*
X100032914Y-39831427D01*
X100032914Y-39831427D02*
X100080533Y-39926665D01*
%TO.C,gradOutPut4*%
X140528152Y-66746191D02*
X141337676Y-66746191D01*
X141337676Y-66746191D02*
X141432914Y-66793810D01*
X141432914Y-66793810D02*
X141480533Y-66841429D01*
X141480533Y-66841429D02*
X141528152Y-66936667D01*
X141528152Y-66936667D02*
X141528152Y-67079524D01*
X141528152Y-67079524D02*
X141480533Y-67174762D01*
X141147200Y-66746191D02*
X141194819Y-66841429D01*
X141194819Y-66841429D02*
X141194819Y-67031905D01*
X141194819Y-67031905D02*
X141147200Y-67127143D01*
X141147200Y-67127143D02*
X141099580Y-67174762D01*
X141099580Y-67174762D02*
X141004342Y-67222381D01*
X141004342Y-67222381D02*
X140718628Y-67222381D01*
X140718628Y-67222381D02*
X140623390Y-67174762D01*
X140623390Y-67174762D02*
X140575771Y-67127143D01*
X140575771Y-67127143D02*
X140528152Y-67031905D01*
X140528152Y-67031905D02*
X140528152Y-66841429D01*
X140528152Y-66841429D02*
X140575771Y-66746191D01*
X141194819Y-66270000D02*
X140528152Y-66270000D01*
X140718628Y-66270000D02*
X140623390Y-66222381D01*
X140623390Y-66222381D02*
X140575771Y-66174762D01*
X140575771Y-66174762D02*
X140528152Y-66079524D01*
X140528152Y-66079524D02*
X140528152Y-65984286D01*
X141194819Y-65222381D02*
X140671009Y-65222381D01*
X140671009Y-65222381D02*
X140575771Y-65270000D01*
X140575771Y-65270000D02*
X140528152Y-65365238D01*
X140528152Y-65365238D02*
X140528152Y-65555714D01*
X140528152Y-65555714D02*
X140575771Y-65650952D01*
X141147200Y-65222381D02*
X141194819Y-65317619D01*
X141194819Y-65317619D02*
X141194819Y-65555714D01*
X141194819Y-65555714D02*
X141147200Y-65650952D01*
X141147200Y-65650952D02*
X141051961Y-65698571D01*
X141051961Y-65698571D02*
X140956723Y-65698571D01*
X140956723Y-65698571D02*
X140861485Y-65650952D01*
X140861485Y-65650952D02*
X140813866Y-65555714D01*
X140813866Y-65555714D02*
X140813866Y-65317619D01*
X140813866Y-65317619D02*
X140766247Y-65222381D01*
X141194819Y-64317619D02*
X140194819Y-64317619D01*
X141147200Y-64317619D02*
X141194819Y-64412857D01*
X141194819Y-64412857D02*
X141194819Y-64603333D01*
X141194819Y-64603333D02*
X141147200Y-64698571D01*
X141147200Y-64698571D02*
X141099580Y-64746190D01*
X141099580Y-64746190D02*
X141004342Y-64793809D01*
X141004342Y-64793809D02*
X140718628Y-64793809D01*
X140718628Y-64793809D02*
X140623390Y-64746190D01*
X140623390Y-64746190D02*
X140575771Y-64698571D01*
X140575771Y-64698571D02*
X140528152Y-64603333D01*
X140528152Y-64603333D02*
X140528152Y-64412857D01*
X140528152Y-64412857D02*
X140575771Y-64317619D01*
X140194819Y-63650952D02*
X140194819Y-63460476D01*
X140194819Y-63460476D02*
X140242438Y-63365238D01*
X140242438Y-63365238D02*
X140337676Y-63270000D01*
X140337676Y-63270000D02*
X140528152Y-63222381D01*
X140528152Y-63222381D02*
X140861485Y-63222381D01*
X140861485Y-63222381D02*
X141051961Y-63270000D01*
X141051961Y-63270000D02*
X141147200Y-63365238D01*
X141147200Y-63365238D02*
X141194819Y-63460476D01*
X141194819Y-63460476D02*
X141194819Y-63650952D01*
X141194819Y-63650952D02*
X141147200Y-63746190D01*
X141147200Y-63746190D02*
X141051961Y-63841428D01*
X141051961Y-63841428D02*
X140861485Y-63889047D01*
X140861485Y-63889047D02*
X140528152Y-63889047D01*
X140528152Y-63889047D02*
X140337676Y-63841428D01*
X140337676Y-63841428D02*
X140242438Y-63746190D01*
X140242438Y-63746190D02*
X140194819Y-63650952D01*
X140528152Y-62365238D02*
X141194819Y-62365238D01*
X140528152Y-62793809D02*
X141051961Y-62793809D01*
X141051961Y-62793809D02*
X141147200Y-62746190D01*
X141147200Y-62746190D02*
X141194819Y-62650952D01*
X141194819Y-62650952D02*
X141194819Y-62508095D01*
X141194819Y-62508095D02*
X141147200Y-62412857D01*
X141147200Y-62412857D02*
X141099580Y-62365238D01*
X140528152Y-62031904D02*
X140528152Y-61650952D01*
X140194819Y-61889047D02*
X141051961Y-61889047D01*
X141051961Y-61889047D02*
X141147200Y-61841428D01*
X141147200Y-61841428D02*
X141194819Y-61746190D01*
X141194819Y-61746190D02*
X141194819Y-61650952D01*
X141194819Y-61317618D02*
X140194819Y-61317618D01*
X140194819Y-61317618D02*
X140194819Y-60936666D01*
X140194819Y-60936666D02*
X140242438Y-60841428D01*
X140242438Y-60841428D02*
X140290057Y-60793809D01*
X140290057Y-60793809D02*
X140385295Y-60746190D01*
X140385295Y-60746190D02*
X140528152Y-60746190D01*
X140528152Y-60746190D02*
X140623390Y-60793809D01*
X140623390Y-60793809D02*
X140671009Y-60841428D01*
X140671009Y-60841428D02*
X140718628Y-60936666D01*
X140718628Y-60936666D02*
X140718628Y-61317618D01*
X140528152Y-59889047D02*
X141194819Y-59889047D01*
X140528152Y-60317618D02*
X141051961Y-60317618D01*
X141051961Y-60317618D02*
X141147200Y-60269999D01*
X141147200Y-60269999D02*
X141194819Y-60174761D01*
X141194819Y-60174761D02*
X141194819Y-60031904D01*
X141194819Y-60031904D02*
X141147200Y-59936666D01*
X141147200Y-59936666D02*
X141099580Y-59889047D01*
X140528152Y-59555713D02*
X140528152Y-59174761D01*
X140194819Y-59412856D02*
X141051961Y-59412856D01*
X141051961Y-59412856D02*
X141147200Y-59365237D01*
X141147200Y-59365237D02*
X141194819Y-59269999D01*
X141194819Y-59269999D02*
X141194819Y-59174761D01*
X140528152Y-58412856D02*
X141194819Y-58412856D01*
X140147200Y-58650951D02*
X140861485Y-58889046D01*
X140861485Y-58889046D02*
X140861485Y-58269999D01*
%TO.C,connPotes2*%
X48047200Y-47526667D02*
X48094819Y-47621905D01*
X48094819Y-47621905D02*
X48094819Y-47812381D01*
X48094819Y-47812381D02*
X48047200Y-47907619D01*
X48047200Y-47907619D02*
X47999580Y-47955238D01*
X47999580Y-47955238D02*
X47904342Y-48002857D01*
X47904342Y-48002857D02*
X47618628Y-48002857D01*
X47618628Y-48002857D02*
X47523390Y-47955238D01*
X47523390Y-47955238D02*
X47475771Y-47907619D01*
X47475771Y-47907619D02*
X47428152Y-47812381D01*
X47428152Y-47812381D02*
X47428152Y-47621905D01*
X47428152Y-47621905D02*
X47475771Y-47526667D01*
X48094819Y-46955238D02*
X48047200Y-47050476D01*
X48047200Y-47050476D02*
X47999580Y-47098095D01*
X47999580Y-47098095D02*
X47904342Y-47145714D01*
X47904342Y-47145714D02*
X47618628Y-47145714D01*
X47618628Y-47145714D02*
X47523390Y-47098095D01*
X47523390Y-47098095D02*
X47475771Y-47050476D01*
X47475771Y-47050476D02*
X47428152Y-46955238D01*
X47428152Y-46955238D02*
X47428152Y-46812381D01*
X47428152Y-46812381D02*
X47475771Y-46717143D01*
X47475771Y-46717143D02*
X47523390Y-46669524D01*
X47523390Y-46669524D02*
X47618628Y-46621905D01*
X47618628Y-46621905D02*
X47904342Y-46621905D01*
X47904342Y-46621905D02*
X47999580Y-46669524D01*
X47999580Y-46669524D02*
X48047200Y-46717143D01*
X48047200Y-46717143D02*
X48094819Y-46812381D01*
X48094819Y-46812381D02*
X48094819Y-46955238D01*
X47428152Y-46193333D02*
X48094819Y-46193333D01*
X47523390Y-46193333D02*
X47475771Y-46145714D01*
X47475771Y-46145714D02*
X47428152Y-46050476D01*
X47428152Y-46050476D02*
X47428152Y-45907619D01*
X47428152Y-45907619D02*
X47475771Y-45812381D01*
X47475771Y-45812381D02*
X47571009Y-45764762D01*
X47571009Y-45764762D02*
X48094819Y-45764762D01*
X47428152Y-45288571D02*
X48094819Y-45288571D01*
X47523390Y-45288571D02*
X47475771Y-45240952D01*
X47475771Y-45240952D02*
X47428152Y-45145714D01*
X47428152Y-45145714D02*
X47428152Y-45002857D01*
X47428152Y-45002857D02*
X47475771Y-44907619D01*
X47475771Y-44907619D02*
X47571009Y-44860000D01*
X47571009Y-44860000D02*
X48094819Y-44860000D01*
X48094819Y-44383809D02*
X47094819Y-44383809D01*
X47094819Y-44383809D02*
X47094819Y-44002857D01*
X47094819Y-44002857D02*
X47142438Y-43907619D01*
X47142438Y-43907619D02*
X47190057Y-43860000D01*
X47190057Y-43860000D02*
X47285295Y-43812381D01*
X47285295Y-43812381D02*
X47428152Y-43812381D01*
X47428152Y-43812381D02*
X47523390Y-43860000D01*
X47523390Y-43860000D02*
X47571009Y-43907619D01*
X47571009Y-43907619D02*
X47618628Y-44002857D01*
X47618628Y-44002857D02*
X47618628Y-44383809D01*
X48094819Y-43240952D02*
X48047200Y-43336190D01*
X48047200Y-43336190D02*
X47999580Y-43383809D01*
X47999580Y-43383809D02*
X47904342Y-43431428D01*
X47904342Y-43431428D02*
X47618628Y-43431428D01*
X47618628Y-43431428D02*
X47523390Y-43383809D01*
X47523390Y-43383809D02*
X47475771Y-43336190D01*
X47475771Y-43336190D02*
X47428152Y-43240952D01*
X47428152Y-43240952D02*
X47428152Y-43098095D01*
X47428152Y-43098095D02*
X47475771Y-43002857D01*
X47475771Y-43002857D02*
X47523390Y-42955238D01*
X47523390Y-42955238D02*
X47618628Y-42907619D01*
X47618628Y-42907619D02*
X47904342Y-42907619D01*
X47904342Y-42907619D02*
X47999580Y-42955238D01*
X47999580Y-42955238D02*
X48047200Y-43002857D01*
X48047200Y-43002857D02*
X48094819Y-43098095D01*
X48094819Y-43098095D02*
X48094819Y-43240952D01*
X47428152Y-42621904D02*
X47428152Y-42240952D01*
X47094819Y-42479047D02*
X47951961Y-42479047D01*
X47951961Y-42479047D02*
X48047200Y-42431428D01*
X48047200Y-42431428D02*
X48094819Y-42336190D01*
X48094819Y-42336190D02*
X48094819Y-42240952D01*
X48047200Y-41526666D02*
X48094819Y-41621904D01*
X48094819Y-41621904D02*
X48094819Y-41812380D01*
X48094819Y-41812380D02*
X48047200Y-41907618D01*
X48047200Y-41907618D02*
X47951961Y-41955237D01*
X47951961Y-41955237D02*
X47571009Y-41955237D01*
X47571009Y-41955237D02*
X47475771Y-41907618D01*
X47475771Y-41907618D02*
X47428152Y-41812380D01*
X47428152Y-41812380D02*
X47428152Y-41621904D01*
X47428152Y-41621904D02*
X47475771Y-41526666D01*
X47475771Y-41526666D02*
X47571009Y-41479047D01*
X47571009Y-41479047D02*
X47666247Y-41479047D01*
X47666247Y-41479047D02*
X47761485Y-41955237D01*
X48047200Y-41098094D02*
X48094819Y-41002856D01*
X48094819Y-41002856D02*
X48094819Y-40812380D01*
X48094819Y-40812380D02*
X48047200Y-40717142D01*
X48047200Y-40717142D02*
X47951961Y-40669523D01*
X47951961Y-40669523D02*
X47904342Y-40669523D01*
X47904342Y-40669523D02*
X47809104Y-40717142D01*
X47809104Y-40717142D02*
X47761485Y-40812380D01*
X47761485Y-40812380D02*
X47761485Y-40955237D01*
X47761485Y-40955237D02*
X47713866Y-41050475D01*
X47713866Y-41050475D02*
X47618628Y-41098094D01*
X47618628Y-41098094D02*
X47571009Y-41098094D01*
X47571009Y-41098094D02*
X47475771Y-41050475D01*
X47475771Y-41050475D02*
X47428152Y-40955237D01*
X47428152Y-40955237D02*
X47428152Y-40812380D01*
X47428152Y-40812380D02*
X47475771Y-40717142D01*
X47190057Y-40288570D02*
X47142438Y-40240951D01*
X47142438Y-40240951D02*
X47094819Y-40145713D01*
X47094819Y-40145713D02*
X47094819Y-39907618D01*
X47094819Y-39907618D02*
X47142438Y-39812380D01*
X47142438Y-39812380D02*
X47190057Y-39764761D01*
X47190057Y-39764761D02*
X47285295Y-39717142D01*
X47285295Y-39717142D02*
X47380533Y-39717142D01*
X47380533Y-39717142D02*
X47523390Y-39764761D01*
X47523390Y-39764761D02*
X48094819Y-40336189D01*
X48094819Y-40336189D02*
X48094819Y-39717142D01*
%TO.C,Lemo4*%
X47194819Y-116924285D02*
X47194819Y-117400475D01*
X47194819Y-117400475D02*
X46194819Y-117400475D01*
X47147200Y-116209999D02*
X47194819Y-116305237D01*
X47194819Y-116305237D02*
X47194819Y-116495713D01*
X47194819Y-116495713D02*
X47147200Y-116590951D01*
X47147200Y-116590951D02*
X47051961Y-116638570D01*
X47051961Y-116638570D02*
X46671009Y-116638570D01*
X46671009Y-116638570D02*
X46575771Y-116590951D01*
X46575771Y-116590951D02*
X46528152Y-116495713D01*
X46528152Y-116495713D02*
X46528152Y-116305237D01*
X46528152Y-116305237D02*
X46575771Y-116209999D01*
X46575771Y-116209999D02*
X46671009Y-116162380D01*
X46671009Y-116162380D02*
X46766247Y-116162380D01*
X46766247Y-116162380D02*
X46861485Y-116638570D01*
X47194819Y-115733808D02*
X46528152Y-115733808D01*
X46623390Y-115733808D02*
X46575771Y-115686189D01*
X46575771Y-115686189D02*
X46528152Y-115590951D01*
X46528152Y-115590951D02*
X46528152Y-115448094D01*
X46528152Y-115448094D02*
X46575771Y-115352856D01*
X46575771Y-115352856D02*
X46671009Y-115305237D01*
X46671009Y-115305237D02*
X47194819Y-115305237D01*
X46671009Y-115305237D02*
X46575771Y-115257618D01*
X46575771Y-115257618D02*
X46528152Y-115162380D01*
X46528152Y-115162380D02*
X46528152Y-115019523D01*
X46528152Y-115019523D02*
X46575771Y-114924284D01*
X46575771Y-114924284D02*
X46671009Y-114876665D01*
X46671009Y-114876665D02*
X47194819Y-114876665D01*
X47194819Y-114257618D02*
X47147200Y-114352856D01*
X47147200Y-114352856D02*
X47099580Y-114400475D01*
X47099580Y-114400475D02*
X47004342Y-114448094D01*
X47004342Y-114448094D02*
X46718628Y-114448094D01*
X46718628Y-114448094D02*
X46623390Y-114400475D01*
X46623390Y-114400475D02*
X46575771Y-114352856D01*
X46575771Y-114352856D02*
X46528152Y-114257618D01*
X46528152Y-114257618D02*
X46528152Y-114114761D01*
X46528152Y-114114761D02*
X46575771Y-114019523D01*
X46575771Y-114019523D02*
X46623390Y-113971904D01*
X46623390Y-113971904D02*
X46718628Y-113924285D01*
X46718628Y-113924285D02*
X47004342Y-113924285D01*
X47004342Y-113924285D02*
X47099580Y-113971904D01*
X47099580Y-113971904D02*
X47147200Y-114019523D01*
X47147200Y-114019523D02*
X47194819Y-114114761D01*
X47194819Y-114114761D02*
X47194819Y-114257618D01*
X46528152Y-113067142D02*
X47194819Y-113067142D01*
X46147200Y-113305237D02*
X46861485Y-113543332D01*
X46861485Y-113543332D02*
X46861485Y-112924285D01*
%TO.C,J9*%
X116166666Y-106554819D02*
X116166666Y-107269104D01*
X116166666Y-107269104D02*
X116119047Y-107411961D01*
X116119047Y-107411961D02*
X116023809Y-107507200D01*
X116023809Y-107507200D02*
X115880952Y-107554819D01*
X115880952Y-107554819D02*
X115785714Y-107554819D01*
X116690476Y-107554819D02*
X116880952Y-107554819D01*
X116880952Y-107554819D02*
X116976190Y-107507200D01*
X116976190Y-107507200D02*
X117023809Y-107459580D01*
X117023809Y-107459580D02*
X117119047Y-107316723D01*
X117119047Y-107316723D02*
X117166666Y-107126247D01*
X117166666Y-107126247D02*
X117166666Y-106745295D01*
X117166666Y-106745295D02*
X117119047Y-106650057D01*
X117119047Y-106650057D02*
X117071428Y-106602438D01*
X117071428Y-106602438D02*
X116976190Y-106554819D01*
X116976190Y-106554819D02*
X116785714Y-106554819D01*
X116785714Y-106554819D02*
X116690476Y-106602438D01*
X116690476Y-106602438D02*
X116642857Y-106650057D01*
X116642857Y-106650057D02*
X116595238Y-106745295D01*
X116595238Y-106745295D02*
X116595238Y-106983390D01*
X116595238Y-106983390D02*
X116642857Y-107078628D01*
X116642857Y-107078628D02*
X116690476Y-107126247D01*
X116690476Y-107126247D02*
X116785714Y-107173866D01*
X116785714Y-107173866D02*
X116976190Y-107173866D01*
X116976190Y-107173866D02*
X117071428Y-107126247D01*
X117071428Y-107126247D02*
X117119047Y-107078628D01*
X117119047Y-107078628D02*
X117166666Y-106983390D01*
%TO.C,J13*%
X76290476Y-64979819D02*
X76290476Y-65694104D01*
X76290476Y-65694104D02*
X76242857Y-65836961D01*
X76242857Y-65836961D02*
X76147619Y-65932200D01*
X76147619Y-65932200D02*
X76004762Y-65979819D01*
X76004762Y-65979819D02*
X75909524Y-65979819D01*
X77290476Y-65979819D02*
X76719048Y-65979819D01*
X77004762Y-65979819D02*
X77004762Y-64979819D01*
X77004762Y-64979819D02*
X76909524Y-65122676D01*
X76909524Y-65122676D02*
X76814286Y-65217914D01*
X76814286Y-65217914D02*
X76719048Y-65265533D01*
X77623810Y-64979819D02*
X78242857Y-64979819D01*
X78242857Y-64979819D02*
X77909524Y-65360771D01*
X77909524Y-65360771D02*
X78052381Y-65360771D01*
X78052381Y-65360771D02*
X78147619Y-65408390D01*
X78147619Y-65408390D02*
X78195238Y-65456009D01*
X78195238Y-65456009D02*
X78242857Y-65551247D01*
X78242857Y-65551247D02*
X78242857Y-65789342D01*
X78242857Y-65789342D02*
X78195238Y-65884580D01*
X78195238Y-65884580D02*
X78147619Y-65932200D01*
X78147619Y-65932200D02*
X78052381Y-65979819D01*
X78052381Y-65979819D02*
X77766667Y-65979819D01*
X77766667Y-65979819D02*
X77671429Y-65932200D01*
X77671429Y-65932200D02*
X77623810Y-65884580D01*
%TO.C,INA217_8*%
X117171905Y-55424819D02*
X117171905Y-54424819D01*
X117648095Y-55424819D02*
X117648095Y-54424819D01*
X117648095Y-54424819D02*
X118219523Y-55424819D01*
X118219523Y-55424819D02*
X118219523Y-54424819D01*
X118648095Y-55139104D02*
X119124285Y-55139104D01*
X118552857Y-55424819D02*
X118886190Y-54424819D01*
X118886190Y-54424819D02*
X119219523Y-55424819D01*
X119505238Y-54520057D02*
X119552857Y-54472438D01*
X119552857Y-54472438D02*
X119648095Y-54424819D01*
X119648095Y-54424819D02*
X119886190Y-54424819D01*
X119886190Y-54424819D02*
X119981428Y-54472438D01*
X119981428Y-54472438D02*
X120029047Y-54520057D01*
X120029047Y-54520057D02*
X120076666Y-54615295D01*
X120076666Y-54615295D02*
X120076666Y-54710533D01*
X120076666Y-54710533D02*
X120029047Y-54853390D01*
X120029047Y-54853390D02*
X119457619Y-55424819D01*
X119457619Y-55424819D02*
X120076666Y-55424819D01*
X121029047Y-55424819D02*
X120457619Y-55424819D01*
X120743333Y-55424819D02*
X120743333Y-54424819D01*
X120743333Y-54424819D02*
X120648095Y-54567676D01*
X120648095Y-54567676D02*
X120552857Y-54662914D01*
X120552857Y-54662914D02*
X120457619Y-54710533D01*
X121362381Y-54424819D02*
X122029047Y-54424819D01*
X122029047Y-54424819D02*
X121600476Y-55424819D01*
X122171905Y-55520057D02*
X122933809Y-55520057D01*
X123314762Y-54853390D02*
X123219524Y-54805771D01*
X123219524Y-54805771D02*
X123171905Y-54758152D01*
X123171905Y-54758152D02*
X123124286Y-54662914D01*
X123124286Y-54662914D02*
X123124286Y-54615295D01*
X123124286Y-54615295D02*
X123171905Y-54520057D01*
X123171905Y-54520057D02*
X123219524Y-54472438D01*
X123219524Y-54472438D02*
X123314762Y-54424819D01*
X123314762Y-54424819D02*
X123505238Y-54424819D01*
X123505238Y-54424819D02*
X123600476Y-54472438D01*
X123600476Y-54472438D02*
X123648095Y-54520057D01*
X123648095Y-54520057D02*
X123695714Y-54615295D01*
X123695714Y-54615295D02*
X123695714Y-54662914D01*
X123695714Y-54662914D02*
X123648095Y-54758152D01*
X123648095Y-54758152D02*
X123600476Y-54805771D01*
X123600476Y-54805771D02*
X123505238Y-54853390D01*
X123505238Y-54853390D02*
X123314762Y-54853390D01*
X123314762Y-54853390D02*
X123219524Y-54901009D01*
X123219524Y-54901009D02*
X123171905Y-54948628D01*
X123171905Y-54948628D02*
X123124286Y-55043866D01*
X123124286Y-55043866D02*
X123124286Y-55234342D01*
X123124286Y-55234342D02*
X123171905Y-55329580D01*
X123171905Y-55329580D02*
X123219524Y-55377200D01*
X123219524Y-55377200D02*
X123314762Y-55424819D01*
X123314762Y-55424819D02*
X123505238Y-55424819D01*
X123505238Y-55424819D02*
X123600476Y-55377200D01*
X123600476Y-55377200D02*
X123648095Y-55329580D01*
X123648095Y-55329580D02*
X123695714Y-55234342D01*
X123695714Y-55234342D02*
X123695714Y-55043866D01*
X123695714Y-55043866D02*
X123648095Y-54948628D01*
X123648095Y-54948628D02*
X123600476Y-54901009D01*
X123600476Y-54901009D02*
X123505238Y-54853390D01*
%TO.C,INA217_6*%
X57831905Y-106904819D02*
X57831905Y-105904819D01*
X58308095Y-106904819D02*
X58308095Y-105904819D01*
X58308095Y-105904819D02*
X58879523Y-106904819D01*
X58879523Y-106904819D02*
X58879523Y-105904819D01*
X59308095Y-106619104D02*
X59784285Y-106619104D01*
X59212857Y-106904819D02*
X59546190Y-105904819D01*
X59546190Y-105904819D02*
X59879523Y-106904819D01*
X60165238Y-106000057D02*
X60212857Y-105952438D01*
X60212857Y-105952438D02*
X60308095Y-105904819D01*
X60308095Y-105904819D02*
X60546190Y-105904819D01*
X60546190Y-105904819D02*
X60641428Y-105952438D01*
X60641428Y-105952438D02*
X60689047Y-106000057D01*
X60689047Y-106000057D02*
X60736666Y-106095295D01*
X60736666Y-106095295D02*
X60736666Y-106190533D01*
X60736666Y-106190533D02*
X60689047Y-106333390D01*
X60689047Y-106333390D02*
X60117619Y-106904819D01*
X60117619Y-106904819D02*
X60736666Y-106904819D01*
X61689047Y-106904819D02*
X61117619Y-106904819D01*
X61403333Y-106904819D02*
X61403333Y-105904819D01*
X61403333Y-105904819D02*
X61308095Y-106047676D01*
X61308095Y-106047676D02*
X61212857Y-106142914D01*
X61212857Y-106142914D02*
X61117619Y-106190533D01*
X62022381Y-105904819D02*
X62689047Y-105904819D01*
X62689047Y-105904819D02*
X62260476Y-106904819D01*
X62831905Y-107000057D02*
X63593809Y-107000057D01*
X64260476Y-105904819D02*
X64070000Y-105904819D01*
X64070000Y-105904819D02*
X63974762Y-105952438D01*
X63974762Y-105952438D02*
X63927143Y-106000057D01*
X63927143Y-106000057D02*
X63831905Y-106142914D01*
X63831905Y-106142914D02*
X63784286Y-106333390D01*
X63784286Y-106333390D02*
X63784286Y-106714342D01*
X63784286Y-106714342D02*
X63831905Y-106809580D01*
X63831905Y-106809580D02*
X63879524Y-106857200D01*
X63879524Y-106857200D02*
X63974762Y-106904819D01*
X63974762Y-106904819D02*
X64165238Y-106904819D01*
X64165238Y-106904819D02*
X64260476Y-106857200D01*
X64260476Y-106857200D02*
X64308095Y-106809580D01*
X64308095Y-106809580D02*
X64355714Y-106714342D01*
X64355714Y-106714342D02*
X64355714Y-106476247D01*
X64355714Y-106476247D02*
X64308095Y-106381009D01*
X64308095Y-106381009D02*
X64260476Y-106333390D01*
X64260476Y-106333390D02*
X64165238Y-106285771D01*
X64165238Y-106285771D02*
X63974762Y-106285771D01*
X63974762Y-106285771D02*
X63879524Y-106333390D01*
X63879524Y-106333390D02*
X63831905Y-106381009D01*
X63831905Y-106381009D02*
X63784286Y-106476247D01*
%TO.C,J5*%
X57366666Y-53142319D02*
X57366666Y-53856604D01*
X57366666Y-53856604D02*
X57319047Y-53999461D01*
X57319047Y-53999461D02*
X57223809Y-54094700D01*
X57223809Y-54094700D02*
X57080952Y-54142319D01*
X57080952Y-54142319D02*
X56985714Y-54142319D01*
X58319047Y-53142319D02*
X57842857Y-53142319D01*
X57842857Y-53142319D02*
X57795238Y-53618509D01*
X57795238Y-53618509D02*
X57842857Y-53570890D01*
X57842857Y-53570890D02*
X57938095Y-53523271D01*
X57938095Y-53523271D02*
X58176190Y-53523271D01*
X58176190Y-53523271D02*
X58271428Y-53570890D01*
X58271428Y-53570890D02*
X58319047Y-53618509D01*
X58319047Y-53618509D02*
X58366666Y-53713747D01*
X58366666Y-53713747D02*
X58366666Y-53951842D01*
X58366666Y-53951842D02*
X58319047Y-54047080D01*
X58319047Y-54047080D02*
X58271428Y-54094700D01*
X58271428Y-54094700D02*
X58176190Y-54142319D01*
X58176190Y-54142319D02*
X57938095Y-54142319D01*
X57938095Y-54142319D02*
X57842857Y-54094700D01*
X57842857Y-54094700D02*
X57795238Y-54047080D01*
%TO.C,J10*%
X123190476Y-106554819D02*
X123190476Y-107269104D01*
X123190476Y-107269104D02*
X123142857Y-107411961D01*
X123142857Y-107411961D02*
X123047619Y-107507200D01*
X123047619Y-107507200D02*
X122904762Y-107554819D01*
X122904762Y-107554819D02*
X122809524Y-107554819D01*
X124190476Y-107554819D02*
X123619048Y-107554819D01*
X123904762Y-107554819D02*
X123904762Y-106554819D01*
X123904762Y-106554819D02*
X123809524Y-106697676D01*
X123809524Y-106697676D02*
X123714286Y-106792914D01*
X123714286Y-106792914D02*
X123619048Y-106840533D01*
X124809524Y-106554819D02*
X124904762Y-106554819D01*
X124904762Y-106554819D02*
X125000000Y-106602438D01*
X125000000Y-106602438D02*
X125047619Y-106650057D01*
X125047619Y-106650057D02*
X125095238Y-106745295D01*
X125095238Y-106745295D02*
X125142857Y-106935771D01*
X125142857Y-106935771D02*
X125142857Y-107173866D01*
X125142857Y-107173866D02*
X125095238Y-107364342D01*
X125095238Y-107364342D02*
X125047619Y-107459580D01*
X125047619Y-107459580D02*
X125000000Y-107507200D01*
X125000000Y-107507200D02*
X124904762Y-107554819D01*
X124904762Y-107554819D02*
X124809524Y-107554819D01*
X124809524Y-107554819D02*
X124714286Y-107507200D01*
X124714286Y-107507200D02*
X124666667Y-107459580D01*
X124666667Y-107459580D02*
X124619048Y-107364342D01*
X124619048Y-107364342D02*
X124571429Y-107173866D01*
X124571429Y-107173866D02*
X124571429Y-106935771D01*
X124571429Y-106935771D02*
X124619048Y-106745295D01*
X124619048Y-106745295D02*
X124666667Y-106650057D01*
X124666667Y-106650057D02*
X124714286Y-106602438D01*
X124714286Y-106602438D02*
X124809524Y-106554819D01*
%TO.C,J1*%
X57366666Y-105854819D02*
X57366666Y-106569104D01*
X57366666Y-106569104D02*
X57319047Y-106711961D01*
X57319047Y-106711961D02*
X57223809Y-106807200D01*
X57223809Y-106807200D02*
X57080952Y-106854819D01*
X57080952Y-106854819D02*
X56985714Y-106854819D01*
X58366666Y-106854819D02*
X57795238Y-106854819D01*
X58080952Y-106854819D02*
X58080952Y-105854819D01*
X58080952Y-105854819D02*
X57985714Y-105997676D01*
X57985714Y-105997676D02*
X57890476Y-106092914D01*
X57890476Y-106092914D02*
X57795238Y-106140533D01*
%TO.C,J7*%
X116166666Y-54354819D02*
X116166666Y-55069104D01*
X116166666Y-55069104D02*
X116119047Y-55211961D01*
X116119047Y-55211961D02*
X116023809Y-55307200D01*
X116023809Y-55307200D02*
X115880952Y-55354819D01*
X115880952Y-55354819D02*
X115785714Y-55354819D01*
X116547619Y-54354819D02*
X117214285Y-54354819D01*
X117214285Y-54354819D02*
X116785714Y-55354819D01*
%TO.C,J15*%
X75190476Y-118054819D02*
X75190476Y-118769104D01*
X75190476Y-118769104D02*
X75142857Y-118911961D01*
X75142857Y-118911961D02*
X75047619Y-119007200D01*
X75047619Y-119007200D02*
X74904762Y-119054819D01*
X74904762Y-119054819D02*
X74809524Y-119054819D01*
X76190476Y-119054819D02*
X75619048Y-119054819D01*
X75904762Y-119054819D02*
X75904762Y-118054819D01*
X75904762Y-118054819D02*
X75809524Y-118197676D01*
X75809524Y-118197676D02*
X75714286Y-118292914D01*
X75714286Y-118292914D02*
X75619048Y-118340533D01*
X77095238Y-118054819D02*
X76619048Y-118054819D01*
X76619048Y-118054819D02*
X76571429Y-118531009D01*
X76571429Y-118531009D02*
X76619048Y-118483390D01*
X76619048Y-118483390D02*
X76714286Y-118435771D01*
X76714286Y-118435771D02*
X76952381Y-118435771D01*
X76952381Y-118435771D02*
X77047619Y-118483390D01*
X77047619Y-118483390D02*
X77095238Y-118531009D01*
X77095238Y-118531009D02*
X77142857Y-118626247D01*
X77142857Y-118626247D02*
X77142857Y-118864342D01*
X77142857Y-118864342D02*
X77095238Y-118959580D01*
X77095238Y-118959580D02*
X77047619Y-119007200D01*
X77047619Y-119007200D02*
X76952381Y-119054819D01*
X76952381Y-119054819D02*
X76714286Y-119054819D01*
X76714286Y-119054819D02*
X76619048Y-119007200D01*
X76619048Y-119007200D02*
X76571429Y-118959580D01*
D12*
%TO.C,INA217_9*%
X117660000Y-107830000D02*
X117660000Y-118110000D01*
X117660000Y-118110000D02*
X122960000Y-118110000D01*
X119310000Y-107830000D02*
X117660000Y-107830000D01*
X122960000Y-107830000D02*
X121310000Y-107830000D01*
X122960000Y-118110000D02*
X122960000Y-107830000D01*
X119310000Y-107830000D02*
G75*
G03*
X121310000Y-107830000I1000000J0D01*
G01*
%TO.C,J6*%
X64750000Y-50950000D02*
X64750000Y-52850000D01*
X64750000Y-52850000D02*
X66600000Y-52850000D01*
X66600000Y-50950000D02*
X64750000Y-50950000D01*
X66600000Y-51000000D02*
X66600000Y-50950000D01*
X66600000Y-52850000D02*
X66600000Y-51000000D01*
%TO.C,J8*%
X123450000Y-52150000D02*
X123450000Y-54050000D01*
X123450000Y-54050000D02*
X125300000Y-54050000D01*
X125300000Y-52150000D02*
X123450000Y-52150000D01*
X125300000Y-52200000D02*
X125300000Y-52150000D01*
X125300000Y-54050000D02*
X125300000Y-52200000D01*
%TO.C,J14*%
X69450000Y-62775000D02*
X69450000Y-64675000D01*
X69450000Y-64675000D02*
X71300000Y-64675000D01*
X71300000Y-62775000D02*
X69450000Y-62775000D01*
X71300000Y-62825000D02*
X71300000Y-62775000D01*
X71300000Y-64675000D02*
X71300000Y-62825000D01*
%TO.C,J2*%
X63800000Y-103550000D02*
X63800000Y-105450000D01*
X63800000Y-105450000D02*
X65650000Y-105450000D01*
X65650000Y-103550000D02*
X63800000Y-103550000D01*
X65650000Y-103600000D02*
X65650000Y-103550000D01*
X65650000Y-105450000D02*
X65650000Y-103600000D01*
D13*
%TO.C,VR2*%
X93440000Y-98240000D02*
X93440000Y-105230000D01*
X93440000Y-105230000D02*
X100040000Y-105230000D01*
X100040000Y-98240000D02*
X93440000Y-98240000D01*
X100040000Y-105230000D02*
X100040000Y-98240000D01*
X93075000Y-101698000D02*
G75*
G03*
X93075000Y-101698000I-57000J0D01*
G01*
D12*
%TO.C,J16*%
X68650000Y-115750000D02*
X68650000Y-117650000D01*
X68650000Y-117650000D02*
X70500000Y-117650000D01*
X70500000Y-115750000D02*
X68650000Y-115750000D01*
X70500000Y-115800000D02*
X70500000Y-115750000D01*
X70500000Y-117650000D02*
X70500000Y-115800000D01*
%TO.C,connAlimen1*%
X141540000Y-82800000D02*
X140800000Y-82800000D01*
X140800000Y-82800000D02*
X140800000Y-83300000D01*
X147360000Y-83040000D02*
X141040000Y-83040000D01*
X147360000Y-83040000D02*
X147360000Y-91240000D01*
X146900000Y-83040000D02*
X146900000Y-91240000D01*
X141600000Y-83040000D02*
X141600000Y-85390000D01*
X141040000Y-83040000D02*
X141040000Y-85390000D01*
X141600000Y-85390000D02*
X141600000Y-87930000D01*
X141040000Y-85390000D02*
X141040000Y-87930000D01*
X141600000Y-87930000D02*
X141600000Y-90470000D01*
X141040000Y-87930000D02*
X141040000Y-90470000D01*
X141600000Y-90470000D02*
X141600000Y-91240000D01*
X141040000Y-90470000D02*
X141040000Y-91240000D01*
X147360000Y-91240000D02*
X141040000Y-91240000D01*
%TO.C,gradOutPut3*%
X147160000Y-119190000D02*
X147900000Y-119190000D01*
X147900000Y-119190000D02*
X147900000Y-118690000D01*
X141340000Y-118950000D02*
X147660000Y-118950000D01*
X141340000Y-118950000D02*
X141340000Y-113290000D01*
X141800000Y-118950000D02*
X141800000Y-113290000D01*
X147100000Y-118950000D02*
X147100000Y-116600000D01*
X147660000Y-118950000D02*
X147660000Y-116600000D01*
X147100000Y-116600000D02*
X147100000Y-114060000D01*
X147660000Y-116600000D02*
X147660000Y-114060000D01*
X147100000Y-114060000D02*
X147100000Y-113290000D01*
X147660000Y-114060000D02*
X147660000Y-113290000D01*
X141340000Y-113290000D02*
X147660000Y-113290000D01*
D13*
%TO.C,VR1*%
X93140000Y-67140000D02*
X93140000Y-74130000D01*
X93140000Y-74130000D02*
X99740000Y-74130000D01*
X99740000Y-67140000D02*
X93140000Y-67140000D01*
X99740000Y-74130000D02*
X99740000Y-67140000D01*
X92775000Y-70598000D02*
G75*
G03*
X92775000Y-70598000I-57000J0D01*
G01*
D12*
%TO.C,INA217_7*%
X59160000Y-81670000D02*
X59160000Y-91950000D01*
X59160000Y-91950000D02*
X64460000Y-91950000D01*
X60810000Y-81670000D02*
X59160000Y-81670000D01*
X64460000Y-81670000D02*
X62810000Y-81670000D01*
X64460000Y-91950000D02*
X64460000Y-81670000D01*
X60810000Y-81670000D02*
G75*
G03*
X62810000Y-81670000I1000000J0D01*
G01*
%TO.C,J12*%
X69550000Y-69775000D02*
X69550000Y-71675000D01*
X69550000Y-71675000D02*
X71400000Y-71675000D01*
X71400000Y-69775000D02*
X69550000Y-69775000D01*
X71400000Y-69825000D02*
X71400000Y-69775000D01*
X71400000Y-71675000D02*
X71400000Y-69825000D01*
%TO.C,J18*%
X68550000Y-121650000D02*
X68550000Y-123550000D01*
X68550000Y-123550000D02*
X70400000Y-123550000D01*
X70400000Y-121650000D02*
X68550000Y-121650000D01*
X70400000Y-121700000D02*
X70400000Y-121650000D01*
X70400000Y-123550000D02*
X70400000Y-121700000D01*
%TO.C,Lemo5*%
X54860000Y-94937500D02*
X55600000Y-94937500D01*
X55600000Y-94937500D02*
X55600000Y-94437500D01*
X49040000Y-94697500D02*
X55360000Y-94697500D01*
X49040000Y-94697500D02*
X49040000Y-83957500D01*
X49500000Y-94697500D02*
X49500000Y-83957500D01*
X54800000Y-94697500D02*
X54800000Y-83957500D01*
X55360000Y-94697500D02*
X55360000Y-83957500D01*
X49040000Y-83957500D02*
X55360000Y-83957500D01*
D13*
%TO.C,U1*%
X91965500Y-76345000D02*
X99800500Y-76345000D01*
X93200500Y-96035000D02*
X99800500Y-96035000D01*
D12*
%TO.C,J4*%
X64670000Y-78450000D02*
X64670000Y-80350000D01*
X64670000Y-80350000D02*
X66520000Y-80350000D01*
X66520000Y-78450000D02*
X64670000Y-78450000D01*
X66520000Y-78500000D02*
X66520000Y-78450000D01*
X66520000Y-80350000D02*
X66520000Y-78500000D01*
%TO.C,INA217_1*%
X59040000Y-54537500D02*
X59040000Y-64817500D01*
X59040000Y-64817500D02*
X64340000Y-64817500D01*
X60690000Y-54537500D02*
X59040000Y-54537500D01*
X64340000Y-54537500D02*
X62690000Y-54537500D01*
X64340000Y-64817500D02*
X64340000Y-54537500D01*
X60690000Y-54537500D02*
G75*
G03*
X62690000Y-54537500I1000000J0D01*
G01*
%TO.C,Lemo6*%
X54760000Y-68180000D02*
X55500000Y-68180000D01*
X55500000Y-68180000D02*
X55500000Y-67680000D01*
X48940000Y-67940000D02*
X55260000Y-67940000D01*
X48940000Y-67940000D02*
X48940000Y-57200000D01*
X49400000Y-67940000D02*
X49400000Y-57200000D01*
X54700000Y-67940000D02*
X54700000Y-57200000D01*
X55260000Y-67940000D02*
X55260000Y-57200000D01*
X48940000Y-57200000D02*
X55260000Y-57200000D01*
%TO.C,J3*%
X57270000Y-78270000D02*
X57270000Y-80170000D01*
X57270000Y-80170000D02*
X59120000Y-80170000D01*
X59120000Y-78270000D02*
X57270000Y-78270000D01*
X59120000Y-78320000D02*
X59120000Y-78270000D01*
X59120000Y-80170000D02*
X59120000Y-78320000D01*
%TO.C,connAlimen9v1*%
X107160000Y-49100000D02*
X107900000Y-49100000D01*
X107900000Y-49100000D02*
X107900000Y-48600000D01*
X101340000Y-48860000D02*
X107660000Y-48860000D01*
X101340000Y-48860000D02*
X101340000Y-40660000D01*
X101800000Y-48860000D02*
X101800000Y-40660000D01*
X107100000Y-48860000D02*
X107100000Y-46510000D01*
X107660000Y-48860000D02*
X107660000Y-46510000D01*
X107100000Y-46510000D02*
X107100000Y-43970000D01*
X107660000Y-46510000D02*
X107660000Y-43970000D01*
X107100000Y-43970000D02*
X107100000Y-41430000D01*
X107660000Y-43970000D02*
X107660000Y-41430000D01*
X107100000Y-41430000D02*
X107100000Y-40660000D01*
X107660000Y-41430000D02*
X107660000Y-40660000D01*
X101340000Y-40660000D02*
X107660000Y-40660000D01*
%TO.C,gradOutPut4*%
X141740000Y-59940000D02*
X148060000Y-59940000D01*
X148060000Y-60710000D02*
X148060000Y-59940000D01*
X147500000Y-60710000D02*
X147500000Y-59940000D01*
X148060000Y-63250000D02*
X148060000Y-60710000D01*
X147500000Y-63250000D02*
X147500000Y-60710000D01*
X148060000Y-65600000D02*
X148060000Y-63250000D01*
X147500000Y-65600000D02*
X147500000Y-63250000D01*
X142200000Y-65600000D02*
X142200000Y-59940000D01*
X141740000Y-65600000D02*
X141740000Y-59940000D01*
X141740000Y-65600000D02*
X148060000Y-65600000D01*
X148300000Y-65840000D02*
X148300000Y-65340000D01*
X147560000Y-65840000D02*
X148300000Y-65840000D01*
%TO.C,connPotes2*%
X54460000Y-48200000D02*
X55200000Y-48200000D01*
X55200000Y-48200000D02*
X55200000Y-47700000D01*
X48640000Y-47960000D02*
X54960000Y-47960000D01*
X48640000Y-47960000D02*
X48640000Y-39760000D01*
X49100000Y-47960000D02*
X49100000Y-39760000D01*
X54400000Y-47960000D02*
X54400000Y-45610000D01*
X54960000Y-47960000D02*
X54960000Y-45610000D01*
X54400000Y-45610000D02*
X54400000Y-43070000D01*
X54960000Y-45610000D02*
X54960000Y-43070000D01*
X54400000Y-43070000D02*
X54400000Y-40530000D01*
X54960000Y-43070000D02*
X54960000Y-40530000D01*
X54400000Y-40530000D02*
X54400000Y-39760000D01*
X54960000Y-40530000D02*
X54960000Y-39760000D01*
X48640000Y-39760000D02*
X54960000Y-39760000D01*
%TO.C,Lemo4*%
X53560000Y-120820000D02*
X54300000Y-120820000D01*
X54300000Y-120820000D02*
X54300000Y-120320000D01*
X47740000Y-120580000D02*
X54060000Y-120580000D01*
X47740000Y-120580000D02*
X47740000Y-109840000D01*
X48200000Y-120580000D02*
X48200000Y-109840000D01*
X53500000Y-120580000D02*
X53500000Y-109840000D01*
X54060000Y-120580000D02*
X54060000Y-109840000D01*
X47740000Y-109840000D02*
X54060000Y-109840000D01*
%TO.C,J9*%
X115550000Y-104350000D02*
X115550000Y-106250000D01*
X115550000Y-106250000D02*
X117400000Y-106250000D01*
X117400000Y-104350000D02*
X115550000Y-104350000D01*
X117400000Y-104400000D02*
X117400000Y-104350000D01*
X117400000Y-106250000D02*
X117400000Y-104400000D01*
%TO.C,J13*%
X76150000Y-62775000D02*
X76150000Y-64675000D01*
X76150000Y-64675000D02*
X78000000Y-64675000D01*
X78000000Y-62775000D02*
X76150000Y-62775000D01*
X78000000Y-62825000D02*
X78000000Y-62775000D01*
X78000000Y-64675000D02*
X78000000Y-62825000D01*
%TO.C,INA217_8*%
X117760000Y-55970000D02*
X117760000Y-66250000D01*
X117760000Y-66250000D02*
X123060000Y-66250000D01*
X119410000Y-55970000D02*
X117760000Y-55970000D01*
X123060000Y-55970000D02*
X121410000Y-55970000D01*
X123060000Y-66250000D02*
X123060000Y-55970000D01*
X119410000Y-55970000D02*
G75*
G03*
X121410000Y-55970000I1000000J0D01*
G01*
%TO.C,INA217_6*%
X58420000Y-107450000D02*
X58420000Y-117730000D01*
X58420000Y-117730000D02*
X63720000Y-117730000D01*
X60070000Y-107450000D02*
X58420000Y-107450000D01*
X63720000Y-107450000D02*
X62070000Y-107450000D01*
X63720000Y-117730000D02*
X63720000Y-107450000D01*
X60070000Y-107450000D02*
G75*
G03*
X62070000Y-107450000I1000000J0D01*
G01*
%TO.C,J5*%
X56750000Y-50937500D02*
X56750000Y-52837500D01*
X56750000Y-52837500D02*
X58600000Y-52837500D01*
X58600000Y-50937500D02*
X56750000Y-50937500D01*
X58600000Y-50987500D02*
X58600000Y-50937500D01*
X58600000Y-52837500D02*
X58600000Y-50987500D01*
%TO.C,J10*%
X123050000Y-104350000D02*
X123050000Y-106250000D01*
X123050000Y-106250000D02*
X124900000Y-106250000D01*
X124900000Y-104350000D02*
X123050000Y-104350000D01*
X124900000Y-104400000D02*
X124900000Y-104350000D01*
X124900000Y-106250000D02*
X124900000Y-104400000D01*
%TO.C,J1*%
X56750000Y-103650000D02*
X56750000Y-105550000D01*
X56750000Y-105550000D02*
X58600000Y-105550000D01*
X58600000Y-103650000D02*
X56750000Y-103650000D01*
X58600000Y-103700000D02*
X58600000Y-103650000D01*
X58600000Y-105550000D02*
X58600000Y-103700000D01*
%TO.C,J7*%
X115550000Y-52150000D02*
X115550000Y-54050000D01*
X115550000Y-54050000D02*
X117400000Y-54050000D01*
X117400000Y-52150000D02*
X115550000Y-52150000D01*
X117400000Y-52200000D02*
X117400000Y-52150000D01*
X117400000Y-54050000D02*
X117400000Y-52200000D01*
%TO.C,J15*%
X75050000Y-115850000D02*
X75050000Y-117750000D01*
X75050000Y-117750000D02*
X76900000Y-117750000D01*
X76900000Y-115850000D02*
X75050000Y-115850000D01*
X76900000Y-115900000D02*
X76900000Y-115850000D01*
X76900000Y-117750000D02*
X76900000Y-115900000D01*
%TD*%
M02*
